<?xml version="1.0" encoding="utf-8" standalone="no"?>
<!DOCTYPE svg PUBLIC "-//W3C//DTD SVG 1.1//EN"
  "http://www.w3.org/Graphics/SVG/1.1/DTD/svg11.dtd">
<!-- Created with matplotlib (http://matplotlib.org/) -->
<svg height="432pt" version="1.1" viewBox="0 0 576 432" width="576pt" xmlns="http://www.w3.org/2000/svg" xmlns:xlink="http://www.w3.org/1999/xlink">
 <defs>
  <style type="text/css">
*{stroke-linecap:butt;stroke-linejoin:round;}
  </style>
 </defs>
 <g id="figure_1">
  <g id="patch_1">
   <path d="
M0 432
L576 432
L576 0
L0 0
z
" style="fill:#ffffff;"/>
  </g>
  <g id="axes_1">
   <g id="patch_2">
    <path d="
M72 388.8
L518.4 388.8
L518.4 43.2
L72 43.2
z
" style="fill:#ffffff;"/>
   </g>
   <g id="PolyCollection_1">
    <defs>
     <path d="
M72 -367.2
L72 -43.2
L73.116 -43.2
L74.232 -43.2
L75.348 -43.2
L76.464 -43.2
L77.58 -43.2
L78.696 -43.2
L79.812 -43.2
L80.928 -43.2
L82.044 -43.2
L83.16 -43.2
L84.276 -43.2
L85.392 -43.2
L86.508 -43.2
L87.624 -43.2
L88.74 -43.2
L89.856 -43.2
L90.972 -43.2
L92.088 -43.2
L93.204 -43.2
L94.32 -43.2
L95.436 -43.2
L96.552 -43.2
L97.668 -43.2
L98.784 -43.2
L99.9 -43.2
L101.016 -43.2
L102.132 -43.2
L103.248 -43.2
L104.364 -43.2
L105.48 -43.2
L106.596 -43.2
L107.712 -43.2
L108.828 -43.2
L109.944 -43.2
L111.06 -43.2
L112.176 -43.2
L113.292 -43.2
L114.408 -43.2
L115.524 -43.2
L116.64 -43.2
L117.756 -43.2
L118.872 -43.2
L119.988 -43.2
L121.104 -43.2
L122.22 -43.2
L123.336 -43.2
L124.452 -43.2
L125.568 -43.2
L126.684 -43.2
L127.8 -43.2
L128.916 -43.2
L130.032 -43.2
L131.148 -43.2
L132.264 -43.2
L133.38 -43.2
L134.496 -43.2
L135.612 -43.2
L136.728 -43.2
L137.844 -43.2
L138.96 -43.2
L140.076 -43.2
L141.192 -43.2
L142.308 -43.2
L143.424 -43.2
L144.54 -43.2
L145.656 -43.2
L146.772 -43.2
L147.888 -43.2
L149.004 -43.2
L150.12 -43.2
L151.236 -43.2
L152.352 -43.2
L153.468 -43.2
L154.584 -43.2
L155.7 -43.2
L156.816 -43.2
L157.932 -43.2
L159.048 -43.2
L160.164 -43.2
L161.28 -43.2
L162.396 -43.2
L163.512 -43.2
L164.628 -43.2
L165.744 -43.2
L166.86 -43.2
L167.976 -43.2
L169.092 -43.2
L170.208 -43.2
L171.324 -43.2
L172.44 -43.2
L173.556 -43.2
L174.672 -43.2
L175.788 -43.2
L176.904 -43.2
L178.02 -43.2
L179.136 -43.2
L180.252 -43.2
L181.368 -43.2
L182.484 -43.2
L183.6 -43.2
L184.716 -43.2
L185.832 -43.2
L186.948 -43.2
L188.064 -43.2
L189.18 -43.2
L190.296 -43.2
L191.412 -43.2
L192.528 -43.2
L193.644 -43.2
L194.76 -43.2
L195.876 -43.2
L196.992 -43.2
L198.108 -43.2
L199.224 -43.2
L200.34 -43.2
L201.456 -43.2
L202.572 -43.2
L203.688 -43.2
L204.804 -43.2
L205.92 -43.2
L207.036 -43.2
L208.152 -43.2
L209.268 -43.2
L210.384 -43.2
L211.5 -43.2
L212.616 -43.2
L213.732 -43.2
L214.848 -43.2
L215.964 -43.2
L217.08 -43.2
L218.196 -43.2
L219.312 -43.2
L220.428 -43.2
L221.544 -43.2
L222.66 -43.2
L223.776 -43.2
L224.892 -43.2
L226.008 -43.2
L227.124 -43.2
L228.24 -43.2
L229.356 -43.2
L230.472 -43.2
L231.588 -43.2
L232.704 -43.2
L233.82 -43.2
L234.936 -43.2
L236.052 -43.2
L237.168 -43.2
L238.284 -43.2
L239.4 -43.2
L240.516 -43.2
L241.632 -43.2
L242.748 -43.2
L243.864 -43.2
L244.98 -43.2
L246.096 -43.2
L247.212 -43.2
L248.328 -43.2
L249.444 -43.2
L250.56 -43.2
L251.676 -43.2
L252.792 -43.2
L253.908 -43.2
L255.024 -43.2
L256.14 -43.2
L257.256 -43.2
L258.372 -43.2
L259.488 -43.2
L260.604 -43.2
L261.72 -43.2
L262.836 -43.2
L263.952 -43.2
L265.068 -43.2
L266.184 -43.2
L267.3 -43.2
L268.416 -43.2
L269.532 -43.2
L270.648 -43.2
L271.764 -43.2
L272.88 -43.2
L273.996 -43.2
L275.112 -43.2
L276.228 -43.2
L277.344 -43.2
L278.46 -43.2
L279.576 -43.2
L280.692 -43.2
L281.808 -43.2
L282.924 -43.2
L284.04 -43.2
L285.156 -43.2
L286.272 -43.2
L287.388 -43.2
L288.504 -43.2
L289.62 -43.2
L290.736 -43.2
L291.852 -43.2
L292.968 -43.2
L294.084 -43.2
L295.2 -43.2
L296.316 -43.2
L297.432 -43.2
L298.548 -43.2
L299.664 -43.2
L300.78 -43.2
L301.896 -43.2
L303.012 -43.2
L304.128 -43.2
L305.244 -43.2
L306.36 -43.2
L307.476 -43.2
L308.592 -43.2
L309.708 -43.2
L310.824 -43.2
L311.94 -43.2
L313.056 -43.2
L314.172 -43.2
L315.288 -43.2
L316.404 -43.2
L317.52 -43.2
L318.636 -43.2
L319.752 -43.2
L320.868 -43.2
L321.984 -43.2
L323.1 -43.2
L324.216 -43.2
L325.332 -43.2
L326.448 -43.2
L327.564 -43.2
L328.68 -43.2
L329.796 -43.2
L330.912 -43.2
L332.028 -43.2
L333.144 -43.2
L334.26 -43.2
L335.376 -43.2
L336.492 -43.2
L337.608 -43.2
L338.724 -43.2
L339.84 -43.2
L340.956 -43.2
L342.072 -43.2
L343.188 -43.2
L344.304 -43.2
L345.42 -43.2
L346.536 -43.2
L347.652 -43.2
L348.768 -43.2
L349.884 -43.2
L351 -43.2
L352.116 -43.2
L353.232 -43.2
L354.348 -43.2
L355.464 -43.2
L356.58 -43.2
L357.696 -43.2
L358.812 -43.2
L359.928 -43.2
L361.044 -43.2
L362.16 -43.2
L363.276 -43.2
L364.392 -43.2
L365.508 -43.2
L366.624 -43.2
L367.74 -43.2
L368.856 -43.2
L369.972 -43.2
L371.088 -43.2
L372.204 -43.2
L373.32 -43.2
L374.436 -43.2
L375.552 -43.2
L376.668 -43.2
L377.784 -43.2
L378.9 -43.2
L380.016 -43.2
L381.132 -43.2
L382.248 -43.2
L383.364 -43.2
L384.48 -43.2
L385.596 -43.2
L386.712 -43.2
L387.828 -43.2
L388.944 -43.2
L390.06 -43.2
L391.176 -43.2
L392.292 -43.2
L393.408 -43.2
L394.524 -43.2
L395.64 -43.2
L396.756 -43.2
L397.872 -43.2
L398.988 -43.2
L400.104 -43.2
L401.22 -43.2
L402.336 -43.2
L403.452 -43.2
L404.568 -43.2
L405.684 -43.2
L406.8 -43.2
L407.916 -43.2
L409.032 -43.2
L410.148 -43.2
L411.264 -43.2
L412.38 -43.2
L413.496 -43.2
L414.612 -43.2
L415.728 -43.2
L416.844 -43.2
L417.96 -43.2
L419.076 -43.2
L420.192 -43.2
L421.308 -43.2
L422.424 -43.2
L423.54 -43.2
L424.656 -43.2
L425.772 -43.2
L426.888 -43.2
L428.004 -43.2
L429.12 -43.2
L430.236 -43.2
L431.352 -43.2
L432.468 -43.2
L433.584 -43.2
L434.7 -43.2
L435.816 -43.2
L436.932 -43.2
L438.048 -43.2
L439.164 -43.2
L440.28 -43.2
L441.396 -43.2
L442.512 -43.2
L443.628 -43.2
L444.744 -43.2
L445.86 -43.2
L446.976 -43.2
L448.092 -43.2
L449.208 -43.2
L450.324 -43.2
L451.44 -43.2
L452.556 -43.2
L453.672 -43.2
L454.788 -43.2
L455.904 -43.2
L457.02 -43.2
L458.136 -43.2
L459.252 -43.2
L460.368 -43.2
L461.484 -43.2
L462.6 -43.2
L463.716 -43.2
L464.832 -43.2
L465.948 -43.2
L467.064 -43.2
L468.18 -43.2
L469.296 -43.2
L470.412 -43.2
L471.528 -43.2
L472.644 -43.2
L473.76 -43.2
L474.876 -43.2
L475.992 -43.2
L477.108 -43.2
L478.224 -43.2
L479.34 -43.2
L480.456 -43.2
L481.572 -43.2
L482.688 -43.2
L483.804 -43.2
L484.92 -43.2
L486.036 -43.2
L487.152 -43.2
L488.268 -43.2
L489.384 -43.2
L490.5 -43.2
L491.616 -43.2
L492.732 -43.2
L493.848 -43.2
L494.964 -43.2
L496.08 -43.2
L497.196 -43.2
L498.312 -43.2
L499.428 -43.2
L500.544 -43.2
L501.66 -43.2
L502.776 -43.2
L503.892 -43.2
L505.008 -43.2
L506.124 -43.2
L507.24 -43.2
L508.356 -43.2
L509.472 -43.2
L510.588 -43.2
L511.704 -43.2
L512.82 -43.2
L513.936 -43.2
L515.052 -43.2
L516.168 -43.2
L517.284 -43.2
L517.284 -216
L517.284 -216
L516.168 -198.72
L515.052 -183.6
L513.936 -198.72
L512.82 -216
L511.704 -198.72
L510.588 -216
L509.472 -231.12
L508.356 -216
L507.24 -198.72
L506.124 -216
L505.008 -198.72
L503.892 -183.6
L502.776 -198.72
L501.66 -216
L500.544 -198.72
L499.428 -216
L498.312 -198.72
L497.196 -183.6
L496.08 -198.72
L494.964 -216
L493.848 -198.72
L492.732 -216
L491.616 -198.72
L490.5 -216
L489.384 -198.72
L488.268 -216
L487.152 -198.72
L486.036 -216
L484.92 -198.72
L483.804 -216
L482.688 -198.72
L481.572 -216
L480.456 -198.72
L479.34 -183.6
L478.224 -198.72
L477.108 -216
L475.992 -198.72
L474.876 -216
L473.76 -198.72
L472.644 -216
L471.528 -198.72
L470.412 -216
L469.296 -198.72
L468.18 -216
L467.064 -198.72
L465.948 -216
L464.832 -198.72
L463.716 -216
L462.6 -198.72
L461.484 -216
L460.368 -198.72
L459.252 -183.6
L458.136 -198.72
L457.02 -216
L455.904 -198.72
L454.788 -216
L453.672 -198.72
L452.556 -216
L451.44 -198.72
L450.324 -216
L449.208 -231.12
L448.092 -246.24
L446.976 -231.12
L445.86 -216
L444.744 -231.12
L443.628 -216
L442.512 -198.72
L441.396 -216
L440.28 -231.12
L439.164 -216
L438.048 -231.12
L436.932 -216
L435.816 -198.72
L434.7 -216
L433.584 -198.72
L432.468 -216
L431.352 -198.72
L430.236 -216
L429.12 -198.72
L428.004 -216
L426.888 -198.72
L425.772 -183.6
L424.656 -198.72
L423.54 -183.6
L422.424 -168.48
L421.308 -183.6
L420.192 -198.72
L419.076 -216
L417.96 -198.72
L416.844 -216
L415.728 -198.72
L414.612 -216
L413.496 -198.72
L412.38 -216
L411.264 -231.12
L410.148 -216
L409.032 -198.72
L407.916 -216
L406.8 -198.72
L405.684 -216
L404.568 -198.72
L403.452 -216
L402.336 -198.72
L401.22 -216
L400.104 -198.72
L398.988 -216
L397.872 -231.12
L396.756 -216
L395.64 -198.72
L394.524 -216
L393.408 -198.72
L392.292 -183.6
L391.176 -198.72
L390.06 -216
L388.944 -198.72
L387.828 -216
L386.712 -198.72
L385.596 -216
L384.48 -231.12
L383.364 -216
L382.248 -198.72
L381.132 -183.6
L380.016 -198.72
L378.9 -216
L377.784 -198.72
L376.668 -216
L375.552 -231.12
L374.436 -216
L373.32 -231.12
L372.204 -246.24
L371.088 -231.12
L369.972 -216
L368.856 -198.72
L367.74 -216
L366.624 -198.72
L365.508 -183.6
L364.392 -198.72
L363.276 -216
L362.16 -231.12
L361.044 -216
L359.928 -198.72
L358.812 -216
L357.696 -198.72
L356.58 -216
L355.464 -231.12
L354.348 -246.24
L353.232 -231.12
L352.116 -246.24
L351 -231.12
L349.884 -216
L348.768 -198.72
L347.652 -216
L346.536 -231.12
L345.42 -216
L344.304 -231.12
L343.188 -216
L342.072 -198.72
L340.956 -216
L339.84 -231.12
L338.724 -216
L337.608 -231.12
L336.492 -216
L335.376 -198.72
L334.26 -183.6
L333.144 -198.72
L332.028 -183.6
L330.912 -198.72
L329.796 -216
L328.68 -198.72
L327.564 -216
L326.448 -231.12
L325.332 -216
L324.216 -198.72
L323.1 -216
L321.984 -198.72
L320.868 -216
L319.752 -198.72
L318.636 -216
L317.52 -198.72
L316.404 -183.6
L315.288 -198.72
L314.172 -216
L313.056 -198.72
L311.94 -216
L310.824 -231.12
L309.708 -216
L308.592 -231.12
L307.476 -216
L306.36 -198.72
L305.244 -216
L304.128 -198.72
L303.012 -216
L301.896 -198.72
L300.78 -183.6
L299.664 -198.72
L298.548 -183.6
L297.432 -198.72
L296.316 -216
L295.2 -198.72
L294.084 -183.6
L292.968 -198.72
L291.852 -216
L290.736 -198.72
L289.62 -216
L288.504 -231.12
L287.388 -216
L286.272 -198.72
L285.156 -183.6
L284.04 -198.72
L282.924 -216
L281.808 -198.72
L280.692 -183.6
L279.576 -198.72
L278.46 -183.6
L277.344 -198.72
L276.228 -216
L275.112 -198.72
L273.996 -216
L272.88 -198.72
L271.764 -216
L270.648 -198.72
L269.532 -183.6
L268.416 -198.72
L267.3 -216
L266.184 -198.72
L265.068 -183.6
L263.952 -168.48
L262.836 -183.6
L261.72 -198.72
L260.604 -216
L259.488 -231.12
L258.372 -216
L257.256 -198.72
L256.14 -183.6
L255.024 -198.72
L253.908 -216
L252.792 -198.72
L251.676 -183.6
L250.56 -198.72
L249.444 -183.6
L248.328 -198.72
L247.212 -183.6
L246.096 -198.72
L244.98 -183.6
L243.864 -198.72
L242.748 -216
L241.632 -198.72
L240.516 -183.6
L239.4 -198.72
L238.284 -216
L237.168 -198.72
L236.052 -216
L234.936 -198.72
L233.82 -183.6
L232.704 -198.72
L231.588 -216
L230.472 -198.72
L229.356 -183.6
L228.24 -198.72
L227.124 -216
L226.008 -231.12
L224.892 -216
L223.776 -231.12
L222.66 -216
L221.544 -198.72
L220.428 -216
L219.312 -198.72
L218.196 -216
L217.08 -198.72
L215.964 -183.6
L214.848 -198.72
L213.732 -183.6
L212.616 -198.72
L211.5 -216
L210.384 -198.72
L209.268 -183.6
L208.152 -198.72
L207.036 -216
L205.92 -231.12
L204.804 -216
L203.688 -231.12
L202.572 -216
L201.456 -231.12
L200.34 -246.24
L199.224 -231.12
L198.108 -216
L196.992 -231.12
L195.876 -216
L194.76 -198.72
L193.644 -216
L192.528 -198.72
L191.412 -216
L190.296 -198.72
L189.18 -216
L188.064 -185.76
L186.948 -183.6
L185.832 -198.72
L184.716 -216
L183.6 -231.12
L182.484 -244.08
L181.368 -239.76
L180.252 -272.16
L179.136 -241.92
L178.02 -198.72
L176.904 -200.88
L175.788 -224.64
L174.672 -187.92
L173.556 -140.4
L172.44 -131.76
L171.324 -187.92
L170.208 -88.56
L169.092 -95.04
L167.976 -302.4
L166.86 -192.24
L165.744 -166.32
L164.628 -172.8
L163.512 -142.56
L162.396 -235.44
L161.28 -274.32
L160.164 -317.52
L159.048 -367.2
L157.932 -367.2
L156.816 -367.2
L155.7 -367.2
L154.584 -367.2
L153.468 -367.2
L152.352 -367.2
L151.236 -367.2
L150.12 -367.2
L149.004 -367.2
L147.888 -367.2
L146.772 -367.2
L145.656 -367.2
L144.54 -367.2
L143.424 -367.2
L142.308 -367.2
L141.192 -367.2
L140.076 -367.2
L138.96 -367.2
L137.844 -367.2
L136.728 -367.2
L135.612 -367.2
L134.496 -367.2
L133.38 -367.2
L132.264 -367.2
L131.148 -367.2
L130.032 -367.2
L128.916 -367.2
L127.8 -367.2
L126.684 -367.2
L125.568 -367.2
L124.452 -367.2
L123.336 -367.2
L122.22 -367.2
L121.104 -367.2
L119.988 -367.2
L118.872 -367.2
L117.756 -367.2
L116.64 -367.2
L115.524 -367.2
L114.408 -367.2
L113.292 -367.2
L112.176 -367.2
L111.06 -367.2
L109.944 -367.2
L108.828 -367.2
L107.712 -367.2
L106.596 -367.2
L105.48 -367.2
L104.364 -367.2
L103.248 -367.2
L102.132 -367.2
L101.016 -367.2
L99.9 -367.2
L98.784 -367.2
L97.668 -367.2
L96.552 -367.2
L95.436 -367.2
L94.32 -367.2
L93.204 -367.2
L92.088 -367.2
L90.972 -367.2
L89.856 -367.2
L88.74 -367.2
L87.624 -367.2
L86.508 -367.2
L85.392 -367.2
L84.276 -367.2
L83.16 -367.2
L82.044 -367.2
L80.928 -367.2
L79.812 -367.2
L78.696 -367.2
L77.58 -367.2
L76.464 -367.2
L75.348 -367.2
L74.232 -367.2
L73.116 -367.2
L72 -367.2
z
" id="C0_0_9c811f22ec"/>
    </defs>
    <g clip-path="url(#p7ff5b81e1d)">
     <use style="fill:#0000ff;stroke:#000000;" x="0.0" xlink:href="#C0_0_9c811f22ec" y="432.0"/>
    </g>
   </g>
   <g id="PolyCollection_2">
    <defs>
     <path d="
M72 -367.2
L72 -367.2
L73.116 -367.2
L74.232 -367.2
L75.348 -367.2
L76.464 -367.2
L77.58 -367.2
L78.696 -367.2
L79.812 -367.2
L80.928 -367.2
L82.044 -367.2
L83.16 -367.2
L84.276 -367.2
L85.392 -367.2
L86.508 -367.2
L87.624 -367.2
L88.74 -367.2
L89.856 -367.2
L90.972 -367.2
L92.088 -367.2
L93.204 -367.2
L94.32 -367.2
L95.436 -367.2
L96.552 -367.2
L97.668 -367.2
L98.784 -367.2
L99.9 -367.2
L101.016 -367.2
L102.132 -367.2
L103.248 -367.2
L104.364 -367.2
L105.48 -367.2
L106.596 -367.2
L107.712 -367.2
L108.828 -367.2
L109.944 -367.2
L111.06 -367.2
L112.176 -367.2
L113.292 -367.2
L114.408 -367.2
L115.524 -367.2
L116.64 -367.2
L117.756 -367.2
L118.872 -367.2
L119.988 -367.2
L121.104 -367.2
L122.22 -367.2
L123.336 -367.2
L124.452 -367.2
L125.568 -367.2
L126.684 -367.2
L127.8 -367.2
L128.916 -367.2
L130.032 -367.2
L131.148 -367.2
L132.264 -367.2
L133.38 -367.2
L134.496 -367.2
L135.612 -367.2
L136.728 -367.2
L137.844 -367.2
L138.96 -367.2
L140.076 -367.2
L141.192 -367.2
L142.308 -367.2
L143.424 -367.2
L144.54 -367.2
L145.656 -367.2
L146.772 -367.2
L147.888 -367.2
L149.004 -367.2
L150.12 -367.2
L151.236 -367.2
L152.352 -367.2
L153.468 -367.2
L154.584 -367.2
L155.7 -367.2
L156.816 -367.2
L157.932 -367.2
L159.048 -367.2
L160.164 -317.52
L161.28 -274.32
L162.396 -235.44
L163.512 -142.56
L164.628 -172.8
L165.744 -166.32
L166.86 -192.24
L167.976 -302.4
L169.092 -95.04
L170.208 -88.56
L171.324 -187.92
L172.44 -131.76
L173.556 -140.4
L174.672 -187.92
L175.788 -224.64
L176.904 -200.88
L178.02 -198.72
L179.136 -241.92
L180.252 -272.16
L181.368 -239.76
L182.484 -244.08
L183.6 -231.12
L184.716 -216
L185.832 -198.72
L186.948 -183.6
L188.064 -185.76
L189.18 -216
L190.296 -198.72
L191.412 -216
L192.528 -198.72
L193.644 -216
L194.76 -198.72
L195.876 -216
L196.992 -231.12
L198.108 -216
L199.224 -231.12
L200.34 -246.24
L201.456 -231.12
L202.572 -216
L203.688 -231.12
L204.804 -216
L205.92 -231.12
L207.036 -216
L208.152 -198.72
L209.268 -183.6
L210.384 -198.72
L211.5 -216
L212.616 -198.72
L213.732 -183.6
L214.848 -198.72
L215.964 -183.6
L217.08 -198.72
L218.196 -216
L219.312 -198.72
L220.428 -216
L221.544 -198.72
L222.66 -216
L223.776 -231.12
L224.892 -216
L226.008 -231.12
L227.124 -216
L228.24 -198.72
L229.356 -183.6
L230.472 -198.72
L231.588 -216
L232.704 -198.72
L233.82 -183.6
L234.936 -198.72
L236.052 -216
L237.168 -198.72
L238.284 -216
L239.4 -198.72
L240.516 -183.6
L241.632 -198.72
L242.748 -216
L243.864 -198.72
L244.98 -183.6
L246.096 -198.72
L247.212 -183.6
L248.328 -198.72
L249.444 -183.6
L250.56 -198.72
L251.676 -183.6
L252.792 -198.72
L253.908 -216
L255.024 -198.72
L256.14 -183.6
L257.256 -198.72
L258.372 -216
L259.488 -231.12
L260.604 -216
L261.72 -198.72
L262.836 -183.6
L263.952 -168.48
L265.068 -183.6
L266.184 -198.72
L267.3 -216
L268.416 -198.72
L269.532 -183.6
L270.648 -198.72
L271.764 -216
L272.88 -198.72
L273.996 -216
L275.112 -198.72
L276.228 -216
L277.344 -198.72
L278.46 -183.6
L279.576 -198.72
L280.692 -183.6
L281.808 -198.72
L282.924 -216
L284.04 -198.72
L285.156 -183.6
L286.272 -198.72
L287.388 -216
L288.504 -231.12
L289.62 -216
L290.736 -198.72
L291.852 -216
L292.968 -198.72
L294.084 -183.6
L295.2 -198.72
L296.316 -216
L297.432 -198.72
L298.548 -183.6
L299.664 -198.72
L300.78 -183.6
L301.896 -198.72
L303.012 -216
L304.128 -198.72
L305.244 -216
L306.36 -198.72
L307.476 -216
L308.592 -231.12
L309.708 -216
L310.824 -231.12
L311.94 -216
L313.056 -198.72
L314.172 -216
L315.288 -198.72
L316.404 -183.6
L317.52 -198.72
L318.636 -216
L319.752 -198.72
L320.868 -216
L321.984 -198.72
L323.1 -216
L324.216 -198.72
L325.332 -216
L326.448 -231.12
L327.564 -216
L328.68 -198.72
L329.796 -216
L330.912 -198.72
L332.028 -183.6
L333.144 -198.72
L334.26 -183.6
L335.376 -198.72
L336.492 -216
L337.608 -231.12
L338.724 -216
L339.84 -231.12
L340.956 -216
L342.072 -198.72
L343.188 -216
L344.304 -231.12
L345.42 -216
L346.536 -231.12
L347.652 -216
L348.768 -198.72
L349.884 -216
L351 -231.12
L352.116 -246.24
L353.232 -231.12
L354.348 -246.24
L355.464 -231.12
L356.58 -216
L357.696 -198.72
L358.812 -216
L359.928 -198.72
L361.044 -216
L362.16 -231.12
L363.276 -216
L364.392 -198.72
L365.508 -183.6
L366.624 -198.72
L367.74 -216
L368.856 -198.72
L369.972 -216
L371.088 -231.12
L372.204 -246.24
L373.32 -231.12
L374.436 -216
L375.552 -231.12
L376.668 -216
L377.784 -198.72
L378.9 -216
L380.016 -198.72
L381.132 -183.6
L382.248 -198.72
L383.364 -216
L384.48 -231.12
L385.596 -216
L386.712 -198.72
L387.828 -216
L388.944 -198.72
L390.06 -216
L391.176 -198.72
L392.292 -183.6
L393.408 -198.72
L394.524 -216
L395.64 -198.72
L396.756 -216
L397.872 -231.12
L398.988 -216
L400.104 -198.72
L401.22 -216
L402.336 -198.72
L403.452 -216
L404.568 -198.72
L405.684 -216
L406.8 -198.72
L407.916 -216
L409.032 -198.72
L410.148 -216
L411.264 -231.12
L412.38 -216
L413.496 -198.72
L414.612 -216
L415.728 -198.72
L416.844 -216
L417.96 -198.72
L419.076 -216
L420.192 -198.72
L421.308 -183.6
L422.424 -168.48
L423.54 -183.6
L424.656 -198.72
L425.772 -183.6
L426.888 -198.72
L428.004 -216
L429.12 -198.72
L430.236 -216
L431.352 -198.72
L432.468 -216
L433.584 -198.72
L434.7 -216
L435.816 -198.72
L436.932 -216
L438.048 -231.12
L439.164 -216
L440.28 -231.12
L441.396 -216
L442.512 -198.72
L443.628 -216
L444.744 -231.12
L445.86 -216
L446.976 -231.12
L448.092 -246.24
L449.208 -231.12
L450.324 -216
L451.44 -198.72
L452.556 -216
L453.672 -198.72
L454.788 -216
L455.904 -198.72
L457.02 -216
L458.136 -198.72
L459.252 -183.6
L460.368 -198.72
L461.484 -216
L462.6 -198.72
L463.716 -216
L464.832 -198.72
L465.948 -216
L467.064 -198.72
L468.18 -216
L469.296 -198.72
L470.412 -216
L471.528 -198.72
L472.644 -216
L473.76 -198.72
L474.876 -216
L475.992 -198.72
L477.108 -216
L478.224 -198.72
L479.34 -183.6
L480.456 -198.72
L481.572 -216
L482.688 -198.72
L483.804 -216
L484.92 -198.72
L486.036 -216
L487.152 -198.72
L488.268 -216
L489.384 -198.72
L490.5 -216
L491.616 -198.72
L492.732 -216
L493.848 -198.72
L494.964 -216
L496.08 -198.72
L497.196 -183.6
L498.312 -198.72
L499.428 -216
L500.544 -198.72
L501.66 -216
L502.776 -198.72
L503.892 -183.6
L505.008 -198.72
L506.124 -216
L507.24 -198.72
L508.356 -216
L509.472 -231.12
L510.588 -216
L511.704 -198.72
L512.82 -216
L513.936 -198.72
L515.052 -183.6
L516.168 -198.72
L517.284 -216
L517.284 -367.2
L517.284 -367.2
L516.168 -367.2
L515.052 -367.2
L513.936 -367.2
L512.82 -367.2
L511.704 -367.2
L510.588 -367.2
L509.472 -367.2
L508.356 -367.2
L507.24 -367.2
L506.124 -367.2
L505.008 -367.2
L503.892 -367.2
L502.776 -367.2
L501.66 -367.2
L500.544 -367.2
L499.428 -367.2
L498.312 -367.2
L497.196 -367.2
L496.08 -367.2
L494.964 -367.2
L493.848 -367.2
L492.732 -367.2
L491.616 -367.2
L490.5 -367.2
L489.384 -367.2
L488.268 -367.2
L487.152 -367.2
L486.036 -367.2
L484.92 -367.2
L483.804 -367.2
L482.688 -367.2
L481.572 -367.2
L480.456 -367.2
L479.34 -367.2
L478.224 -367.2
L477.108 -367.2
L475.992 -367.2
L474.876 -367.2
L473.76 -367.2
L472.644 -367.2
L471.528 -367.2
L470.412 -367.2
L469.296 -367.2
L468.18 -367.2
L467.064 -367.2
L465.948 -367.2
L464.832 -367.2
L463.716 -367.2
L462.6 -367.2
L461.484 -367.2
L460.368 -367.2
L459.252 -367.2
L458.136 -367.2
L457.02 -367.2
L455.904 -367.2
L454.788 -367.2
L453.672 -367.2
L452.556 -367.2
L451.44 -367.2
L450.324 -367.2
L449.208 -367.2
L448.092 -367.2
L446.976 -367.2
L445.86 -367.2
L444.744 -367.2
L443.628 -367.2
L442.512 -367.2
L441.396 -367.2
L440.28 -367.2
L439.164 -367.2
L438.048 -367.2
L436.932 -367.2
L435.816 -367.2
L434.7 -367.2
L433.584 -367.2
L432.468 -367.2
L431.352 -367.2
L430.236 -367.2
L429.12 -367.2
L428.004 -367.2
L426.888 -367.2
L425.772 -367.2
L424.656 -367.2
L423.54 -367.2
L422.424 -367.2
L421.308 -367.2
L420.192 -367.2
L419.076 -367.2
L417.96 -367.2
L416.844 -367.2
L415.728 -367.2
L414.612 -367.2
L413.496 -367.2
L412.38 -367.2
L411.264 -367.2
L410.148 -367.2
L409.032 -367.2
L407.916 -367.2
L406.8 -367.2
L405.684 -367.2
L404.568 -367.2
L403.452 -367.2
L402.336 -367.2
L401.22 -367.2
L400.104 -367.2
L398.988 -367.2
L397.872 -367.2
L396.756 -367.2
L395.64 -367.2
L394.524 -367.2
L393.408 -367.2
L392.292 -367.2
L391.176 -367.2
L390.06 -367.2
L388.944 -367.2
L387.828 -367.2
L386.712 -367.2
L385.596 -367.2
L384.48 -367.2
L383.364 -367.2
L382.248 -367.2
L381.132 -367.2
L380.016 -367.2
L378.9 -367.2
L377.784 -367.2
L376.668 -367.2
L375.552 -367.2
L374.436 -367.2
L373.32 -367.2
L372.204 -367.2
L371.088 -367.2
L369.972 -367.2
L368.856 -367.2
L367.74 -367.2
L366.624 -367.2
L365.508 -367.2
L364.392 -367.2
L363.276 -367.2
L362.16 -367.2
L361.044 -367.2
L359.928 -367.2
L358.812 -367.2
L357.696 -367.2
L356.58 -367.2
L355.464 -367.2
L354.348 -367.2
L353.232 -367.2
L352.116 -367.2
L351 -367.2
L349.884 -367.2
L348.768 -367.2
L347.652 -367.2
L346.536 -367.2
L345.42 -367.2
L344.304 -367.2
L343.188 -367.2
L342.072 -367.2
L340.956 -367.2
L339.84 -367.2
L338.724 -367.2
L337.608 -367.2
L336.492 -367.2
L335.376 -367.2
L334.26 -367.2
L333.144 -367.2
L332.028 -367.2
L330.912 -367.2
L329.796 -367.2
L328.68 -367.2
L327.564 -367.2
L326.448 -367.2
L325.332 -367.2
L324.216 -367.2
L323.1 -367.2
L321.984 -367.2
L320.868 -367.2
L319.752 -367.2
L318.636 -367.2
L317.52 -367.2
L316.404 -367.2
L315.288 -367.2
L314.172 -367.2
L313.056 -367.2
L311.94 -367.2
L310.824 -367.2
L309.708 -367.2
L308.592 -367.2
L307.476 -367.2
L306.36 -367.2
L305.244 -367.2
L304.128 -367.2
L303.012 -367.2
L301.896 -367.2
L300.78 -367.2
L299.664 -367.2
L298.548 -367.2
L297.432 -367.2
L296.316 -367.2
L295.2 -367.2
L294.084 -367.2
L292.968 -367.2
L291.852 -367.2
L290.736 -367.2
L289.62 -367.2
L288.504 -367.2
L287.388 -367.2
L286.272 -367.2
L285.156 -367.2
L284.04 -367.2
L282.924 -367.2
L281.808 -367.2
L280.692 -367.2
L279.576 -367.2
L278.46 -367.2
L277.344 -367.2
L276.228 -367.2
L275.112 -367.2
L273.996 -367.2
L272.88 -367.2
L271.764 -367.2
L270.648 -367.2
L269.532 -367.2
L268.416 -367.2
L267.3 -367.2
L266.184 -367.2
L265.068 -367.2
L263.952 -367.2
L262.836 -367.2
L261.72 -367.2
L260.604 -367.2
L259.488 -367.2
L258.372 -367.2
L257.256 -367.2
L256.14 -367.2
L255.024 -367.2
L253.908 -367.2
L252.792 -367.2
L251.676 -367.2
L250.56 -367.2
L249.444 -367.2
L248.328 -367.2
L247.212 -367.2
L246.096 -367.2
L244.98 -367.2
L243.864 -367.2
L242.748 -367.2
L241.632 -367.2
L240.516 -367.2
L239.4 -367.2
L238.284 -367.2
L237.168 -367.2
L236.052 -367.2
L234.936 -367.2
L233.82 -367.2
L232.704 -367.2
L231.588 -367.2
L230.472 -367.2
L229.356 -367.2
L228.24 -367.2
L227.124 -367.2
L226.008 -367.2
L224.892 -367.2
L223.776 -367.2
L222.66 -367.2
L221.544 -367.2
L220.428 -367.2
L219.312 -367.2
L218.196 -367.2
L217.08 -367.2
L215.964 -367.2
L214.848 -367.2
L213.732 -367.2
L212.616 -367.2
L211.5 -367.2
L210.384 -367.2
L209.268 -367.2
L208.152 -367.2
L207.036 -367.2
L205.92 -367.2
L204.804 -367.2
L203.688 -367.2
L202.572 -367.2
L201.456 -367.2
L200.34 -367.2
L199.224 -367.2
L198.108 -367.2
L196.992 -367.2
L195.876 -367.2
L194.76 -367.2
L193.644 -367.2
L192.528 -367.2
L191.412 -367.2
L190.296 -367.2
L189.18 -367.2
L188.064 -367.2
L186.948 -367.2
L185.832 -367.2
L184.716 -367.2
L183.6 -367.2
L182.484 -367.2
L181.368 -367.2
L180.252 -367.2
L179.136 -367.2
L178.02 -367.2
L176.904 -367.2
L175.788 -367.2
L174.672 -367.2
L173.556 -367.2
L172.44 -367.2
L171.324 -367.2
L170.208 -367.2
L169.092 -367.2
L167.976 -367.2
L166.86 -367.2
L165.744 -367.2
L164.628 -367.2
L163.512 -367.2
L162.396 -367.2
L161.28 -367.2
L160.164 -367.2
L159.048 -367.2
L157.932 -367.2
L156.816 -367.2
L155.7 -367.2
L154.584 -367.2
L153.468 -367.2
L152.352 -367.2
L151.236 -367.2
L150.12 -367.2
L149.004 -367.2
L147.888 -367.2
L146.772 -367.2
L145.656 -367.2
L144.54 -367.2
L143.424 -367.2
L142.308 -367.2
L141.192 -367.2
L140.076 -367.2
L138.96 -367.2
L137.844 -367.2
L136.728 -367.2
L135.612 -367.2
L134.496 -367.2
L133.38 -367.2
L132.264 -367.2
L131.148 -367.2
L130.032 -367.2
L128.916 -367.2
L127.8 -367.2
L126.684 -367.2
L125.568 -367.2
L124.452 -367.2
L123.336 -367.2
L122.22 -367.2
L121.104 -367.2
L119.988 -367.2
L118.872 -367.2
L117.756 -367.2
L116.64 -367.2
L115.524 -367.2
L114.408 -367.2
L113.292 -367.2
L112.176 -367.2
L111.06 -367.2
L109.944 -367.2
L108.828 -367.2
L107.712 -367.2
L106.596 -367.2
L105.48 -367.2
L104.364 -367.2
L103.248 -367.2
L102.132 -367.2
L101.016 -367.2
L99.9 -367.2
L98.784 -367.2
L97.668 -367.2
L96.552 -367.2
L95.436 -367.2
L94.32 -367.2
L93.204 -367.2
L92.088 -367.2
L90.972 -367.2
L89.856 -367.2
L88.74 -367.2
L87.624 -367.2
L86.508 -367.2
L85.392 -367.2
L84.276 -367.2
L83.16 -367.2
L82.044 -367.2
L80.928 -367.2
L79.812 -367.2
L78.696 -367.2
L77.58 -367.2
L76.464 -367.2
L75.348 -367.2
L74.232 -367.2
L73.116 -367.2
L72 -367.2
z
" id="C1_0_8623827f41"/>
    </defs>
    <g clip-path="url(#p7ff5b81e1d)">
     <use style="fill:#008000;stroke:#000000;" x="0.0" xlink:href="#C1_0_8623827f41" y="432.0"/>
    </g>
   </g>
   <g id="matplotlib.axis_1">
    <g id="xtick_1">
     <g id="line2d_1">
      <defs>
       <path d="
M0 0
L0 -4" id="m93b0483c22" style="stroke:#000000;stroke-width:0.5;"/>
      </defs>
      <g>
       <use style="stroke:#000000;stroke-width:0.5;" x="72.0" xlink:href="#m93b0483c22" y="388.8"/>
      </g>
     </g>
     <g id="line2d_2">
      <defs>
       <path d="
M0 0
L0 4" id="m741efc42ff" style="stroke:#000000;stroke-width:0.5;"/>
      </defs>
      <g>
       <use style="stroke:#000000;stroke-width:0.5;" x="72.0" xlink:href="#m741efc42ff" y="43.2"/>
      </g>
     </g>
     <g id="text_1">
      <!-- 0 -->
      <defs>
       <path d="
M56.9844 36.375
Q56.9844 16.7969 50.8594 7.64062
Q44.7344 -1.51562 31.8438 -1.51562
Q18.75 -1.51562 12.7188 7.76562
Q6.6875 17.0469 6.6875 36.2812
Q6.6875 55.6719 12.7812 64.9219
Q18.8906 74.1719 31.8438 74.1719
Q44.9219 74.1719 50.9531 64.7656
Q56.9844 55.375 56.9844 36.375
M44.1406 14.2031
Q45.8438 18.1719 46.4531 23.5156
Q47.0781 28.8594 47.0781 36.375
Q47.0781 43.7969 46.4531 49.2656
Q45.8438 54.7344 44.0938 58.5469
Q42.3906 62.3125 39.4219 64.2031
Q36.4688 66.1094 31.8438 66.1094
Q27.25 66.1094 24.2344 64.2031
Q21.2344 62.3125 19.4844 58.4531
Q17.8281 54.8281 17.2188 49.0156
Q16.6094 43.2188 16.6094 36.2812
Q16.6094 28.6562 17.1406 23.5312
Q17.6719 18.4062 19.4375 14.3594
Q21.0469 10.5469 24 8.54688
Q26.9531 6.54688 31.8438 6.54688
Q36.4219 6.54688 39.4531 8.45312
Q42.4844 10.3594 44.1406 14.2031" id="Verdana-30"/>
      </defs>
      <g transform="translate(68.9821875 401.918125)scale(0.12 -0.12)">
       <use xlink:href="#Verdana-30"/>
      </g>
     </g>
    </g>
    <g id="xtick_2">
     <g id="line2d_3">
      <g>
       <use style="stroke:#000000;stroke-width:0.5;" x="127.8" xlink:href="#m93b0483c22" y="388.8"/>
      </g>
     </g>
     <g id="line2d_4">
      <g>
       <use style="stroke:#000000;stroke-width:0.5;" x="127.8" xlink:href="#m741efc42ff" y="43.2"/>
      </g>
     </g>
     <g id="text_2">
      <!-- 50 -->
      <defs>
       <path d="
M56.5 23.0938
Q56.5 18.0156 54.6406 13.375
Q52.7812 8.73438 49.5625 5.5625
Q46.0469 2.15625 41.1875 0.3125
Q36.3281 -1.51562 29.9375 -1.51562
Q23.9688 -1.51562 18.4531 -0.265625
Q12.9375 0.984375 9.125 2.73438
L9.125 13.0312
L9.8125 13.0312
Q13.8125 10.5 19.1875 8.71875
Q24.5625 6.9375 29.7344 6.9375
Q33.2031 6.9375 36.4531 7.90625
Q39.7031 8.89062 42.2344 11.3281
Q44.3906 13.4219 45.4844 16.3438
Q46.5781 19.2812 46.5781 23.1406
Q46.5781 26.9062 45.2812 29.4844
Q44 32.0781 41.7031 33.6406
Q39.1562 35.5 35.5156 36.25
Q31.8906 37.0156 27.3906 37.0156
Q23.0938 37.0156 19.1094 36.4219
Q15.1406 35.8438 12.25 35.25
L12.25 72.7031
L56 72.7031
L56 64.1562
L21.6875 64.1562
L21.6875 44.8281
Q23.7812 45.0156 25.9688 45.1094
Q28.1719 45.2188 29.7812 45.2188
Q35.6875 45.2188 40.125 44.2188
Q44.5781 43.2188 48.2969 40.6719
Q52.2031 37.9844 54.3438 33.7344
Q56.5 29.5 56.5 23.0938" id="Verdana-35"/>
      </defs>
      <g transform="translate(121.11375 401.918125)scale(0.12 -0.12)">
       <use xlink:href="#Verdana-35"/>
       <use x="63.57421875" xlink:href="#Verdana-30"/>
      </g>
     </g>
    </g>
    <g id="xtick_3">
     <g id="line2d_5">
      <g>
       <use style="stroke:#000000;stroke-width:0.5;" x="183.6" xlink:href="#m93b0483c22" y="388.8"/>
      </g>
     </g>
     <g id="line2d_6">
      <g>
       <use style="stroke:#000000;stroke-width:0.5;" x="183.6" xlink:href="#m741efc42ff" y="43.2"/>
      </g>
     </g>
     <g id="text_3">
      <!-- 100 -->
      <defs>
       <path d="
M52.9375 0
L13.5781 0
L13.5781 7.42188
L28.7188 7.42188
L28.7188 56.1562
L13.5781 56.1562
L13.5781 62.7969
Q16.6562 62.7969 20.1719 63.2969
Q23.6875 63.8125 25.4844 64.7969
Q27.7344 66.0156 29.0312 67.8906
Q30.3281 69.7812 30.5156 72.9531
L38.0938 72.9531
L38.0938 7.42188
L52.9375 7.42188
z
" id="Verdana-31"/>
      </defs>
      <g transform="translate(173.36625 401.918125)scale(0.12 -0.12)">
       <use xlink:href="#Verdana-31"/>
       <use x="63.57421875" xlink:href="#Verdana-30"/>
       <use x="127.1484375" xlink:href="#Verdana-30"/>
      </g>
     </g>
    </g>
    <g id="xtick_4">
     <g id="line2d_7">
      <g>
       <use style="stroke:#000000;stroke-width:0.5;" x="239.4" xlink:href="#m93b0483c22" y="388.8"/>
      </g>
     </g>
     <g id="line2d_8">
      <g>
       <use style="stroke:#000000;stroke-width:0.5;" x="239.4" xlink:href="#m741efc42ff" y="43.2"/>
      </g>
     </g>
     <g id="text_4">
      <!-- 150 -->
      <g transform="translate(229.16625 401.918125)scale(0.12 -0.12)">
       <use xlink:href="#Verdana-31"/>
       <use x="63.57421875" xlink:href="#Verdana-35"/>
       <use x="127.1484375" xlink:href="#Verdana-30"/>
      </g>
     </g>
    </g>
    <g id="xtick_5">
     <g id="line2d_9">
      <g>
       <use style="stroke:#000000;stroke-width:0.5;" x="295.2" xlink:href="#m93b0483c22" y="388.8"/>
      </g>
     </g>
     <g id="line2d_10">
      <g>
       <use style="stroke:#000000;stroke-width:0.5;" x="295.2" xlink:href="#m741efc42ff" y="43.2"/>
      </g>
     </g>
     <g id="text_5">
      <!-- 200 -->
      <defs>
       <path d="
M57.0781 0
L7.85938 0
L7.85938 10.2031
Q12.9844 14.5938 18.1406 18.9844
Q23.2969 23.3906 27.7344 27.7344
Q37.1094 36.8125 40.5781 42.1562
Q44.0469 47.5156 44.0469 53.7188
Q44.0469 59.375 40.3125 62.5625
Q36.5781 65.7656 29.8906 65.7656
Q25.4375 65.7656 20.2656 64.2031
Q15.0938 62.6406 10.1562 59.4219
L9.67188 59.4219
L9.67188 69.6719
Q13.1406 71.3906 18.9219 72.7969
Q24.7031 74.2188 30.125 74.2188
Q41.3125 74.2188 47.6562 68.8125
Q54 63.4219 54 54.2031
Q54 50.0469 52.9531 46.4531
Q51.9062 42.875 49.8594 39.6562
Q47.9531 36.625 45.3906 33.6875
Q42.8281 30.7656 39.1562 27.2031
Q33.9375 22.0781 28.3594 17.2656
Q22.7969 12.4531 17.9688 8.34375
L57.0781 8.34375
z
" id="Verdana-32"/>
      </defs>
      <g transform="translate(284.623125 401.918125)scale(0.12 -0.12)">
       <use xlink:href="#Verdana-32"/>
       <use x="63.57421875" xlink:href="#Verdana-30"/>
       <use x="127.1484375" xlink:href="#Verdana-30"/>
      </g>
     </g>
    </g>
    <g id="xtick_6">
     <g id="line2d_11">
      <g>
       <use style="stroke:#000000;stroke-width:0.5;" x="351.0" xlink:href="#m93b0483c22" y="388.8"/>
      </g>
     </g>
     <g id="line2d_12">
      <g>
       <use style="stroke:#000000;stroke-width:0.5;" x="351.0" xlink:href="#m741efc42ff" y="43.2"/>
      </g>
     </g>
     <g id="text_6">
      <!-- 250 -->
      <g transform="translate(340.423125 401.918125)scale(0.12 -0.12)">
       <use xlink:href="#Verdana-32"/>
       <use x="63.57421875" xlink:href="#Verdana-35"/>
       <use x="127.1484375" xlink:href="#Verdana-30"/>
      </g>
     </g>
    </g>
    <g id="xtick_7">
     <g id="line2d_13">
      <g>
       <use style="stroke:#000000;stroke-width:0.5;" x="406.8" xlink:href="#m93b0483c22" y="388.8"/>
      </g>
     </g>
     <g id="line2d_14">
      <g>
       <use style="stroke:#000000;stroke-width:0.5;" x="406.8" xlink:href="#m741efc42ff" y="43.2"/>
      </g>
     </g>
     <g id="text_7">
      <!-- 300 -->
      <defs>
       <path d="
M50.6875 35.0156
Q53.0312 32.9062 54.5469 29.7344
Q56.0625 26.5625 56.0625 21.5312
Q56.0625 16.5469 54.25 12.3906
Q52.4375 8.25 49.1719 5.17188
Q45.5156 1.76562 40.5469 0.125
Q35.5938 -1.51562 29.6875 -1.51562
Q23.6406 -1.51562 17.7812 -0.0625
Q11.9219 1.375 8.15625 3.07812
L8.15625 13.2812
L8.89062 13.2812
Q13.0312 10.5469 18.6406 8.73438
Q24.2656 6.9375 29.5 6.9375
Q32.5625 6.9375 36.0312 7.95312
Q39.5 8.98438 41.6562 10.9844
Q43.8906 13.1406 44.9844 15.7188
Q46.0938 18.3125 46.0938 22.2656
Q46.0938 26.1719 44.8438 28.7344
Q43.6094 31.2969 41.4062 32.7656
Q39.2031 34.2812 36.0781 34.8438
Q32.9531 35.4062 29.3438 35.4062
L24.9531 35.4062
L24.9531 43.5
L28.375 43.5
Q35.7969 43.5 40.2031 46.5938
Q44.625 49.7031 44.625 55.6719
Q44.625 58.2969 43.5 60.2656
Q42.3906 62.25 40.375 63.5312
Q38.2812 64.7969 35.8906 65.2812
Q33.5 65.7656 30.4688 65.7656
Q25.8281 65.7656 20.5938 64.1094
Q15.375 62.4531 10.75 59.4219
L10.25 59.4219
L10.25 69.625
Q13.7188 71.3438 19.5 72.7812
Q25.2969 74.2188 30.7188 74.2188
Q36.0312 74.2188 40.0781 73.2344
Q44.1406 72.2656 47.4062 70.125
Q50.9219 67.7812 52.7344 64.4531
Q54.5469 61.1406 54.5469 56.6875
Q54.5469 50.6406 50.2656 46.125
Q46 41.6094 40.1875 40.4375
L40.1875 39.75
Q42.5312 39.3594 45.5469 38.1094
Q48.5781 36.8594 50.6875 35.0156" id="Verdana-33"/>
      </defs>
      <g transform="translate(396.2409375 401.918125)scale(0.12 -0.12)">
       <use xlink:href="#Verdana-33"/>
       <use x="63.57421875" xlink:href="#Verdana-30"/>
       <use x="127.1484375" xlink:href="#Verdana-30"/>
      </g>
     </g>
    </g>
    <g id="xtick_8">
     <g id="line2d_15">
      <g>
       <use style="stroke:#000000;stroke-width:0.5;" x="462.6" xlink:href="#m93b0483c22" y="388.8"/>
      </g>
     </g>
     <g id="line2d_16">
      <g>
       <use style="stroke:#000000;stroke-width:0.5;" x="462.6" xlink:href="#m741efc42ff" y="43.2"/>
      </g>
     </g>
     <g id="text_8">
      <!-- 350 -->
      <g transform="translate(452.0409375 401.918125)scale(0.12 -0.12)">
       <use xlink:href="#Verdana-33"/>
       <use x="63.57421875" xlink:href="#Verdana-35"/>
       <use x="127.1484375" xlink:href="#Verdana-30"/>
      </g>
     </g>
    </g>
    <g id="xtick_9">
     <g id="line2d_17">
      <g>
       <use style="stroke:#000000;stroke-width:0.5;" x="518.4" xlink:href="#m93b0483c22" y="388.8"/>
      </g>
     </g>
     <g id="line2d_18">
      <g>
       <use style="stroke:#000000;stroke-width:0.5;" x="518.4" xlink:href="#m741efc42ff" y="43.2"/>
      </g>
     </g>
     <g id="text_9">
      <!-- 400 -->
      <defs>
       <path d="
M58.7344 20.4531
L47.9531 20.4531
L47.9531 0
L38.5781 0
L38.5781 20.4531
L3.76562 20.4531
L3.76562 31.6875
L38.9688 72.7031
L47.9531 72.7031
L47.9531 28.2656
L58.7344 28.2656
z

M38.5781 28.2656
L38.5781 61.0781
L10.4062 28.2656
z
" id="Verdana-34"/>
      </defs>
      <g transform="translate(507.5775 401.918125)scale(0.12 -0.12)">
       <use xlink:href="#Verdana-34"/>
       <use x="63.57421875" xlink:href="#Verdana-30"/>
       <use x="127.1484375" xlink:href="#Verdana-30"/>
      </g>
     </g>
    </g>
    <g id="text_10">
     <!-- Generations -->
     <defs>
      <path d="
M37.3594 0.484375
Q34.7656 -0.203125 31.7031 -0.640625
Q28.6562 -1.07812 26.2656 -1.07812
Q17.9219 -1.07812 13.5781 3.40625
Q9.23438 7.90625 9.23438 17.8281
L9.23438 46.8281
L3.03125 46.8281
L3.03125 54.5469
L9.23438 54.5469
L9.23438 70.2188
L18.4062 70.2188
L18.4062 54.5469
L37.3594 54.5469
L37.3594 46.8281
L18.4062 46.8281
L18.4062 21.9688
Q18.4062 17.6719 18.5938 15.25
Q18.7969 12.8438 19.9688 10.75
Q21.0469 8.79688 22.9219 7.89062
Q24.8125 6.98438 28.6562 6.98438
Q30.9062 6.98438 33.3438 7.64062
Q35.7969 8.29688 36.8594 8.73438
L37.3594 8.73438
z
" id="Verdana-74"/>
      <path d="
M54.6875 26.3125
L14.5 26.3125
Q14.5 21.2969 16.0156 17.5469
Q17.5312 13.8125 20.1719 11.4219
Q22.7031 9.07812 26.1875 7.90625
Q29.6875 6.73438 33.8906 6.73438
Q39.4531 6.73438 45.0938 8.95312
Q50.7344 11.1875 53.125 13.3281
L53.6094 13.3281
L53.6094 3.32812
Q48.9688 1.375 44.1406 0.046875
Q39.3125 -1.26562 33.9844 -1.26562
Q20.4062 -1.26562 12.7812 6.07812
Q5.17188 13.4219 5.17188 26.9531
Q5.17188 40.3281 12.4688 48.1875
Q19.7812 56.0625 31.6875 56.0625
Q42.7188 56.0625 48.7031 49.6094
Q54.6875 43.1719 54.6875 31.2969
z

M45.75 33.3438
Q45.7031 40.5781 42.1094 44.5312
Q38.5312 48.4844 31.2031 48.4844
Q23.8281 48.4844 19.4531 44.1406
Q15.0938 39.7969 14.5 33.3438
z
" id="Verdana-65"/>
      <path d="
M48 15.7188
Q48 8.25 41.8125 3.46875
Q35.6406 -1.3125 24.9531 -1.3125
Q18.8906 -1.3125 13.8438 0.125
Q8.79688 1.5625 5.375 3.26562
L5.375 13.5781
L5.85938 13.5781
Q10.2031 10.2969 15.5156 8.375
Q20.8438 6.45312 25.7344 6.45312
Q31.7812 6.45312 35.2031 8.40625
Q38.625 10.3594 38.625 14.5469
Q38.625 17.7812 36.7656 19.4375
Q34.9062 21.0938 29.6406 22.2656
Q27.6875 22.7031 24.5312 23.2812
Q21.3906 23.875 18.7969 24.5625
Q11.625 26.4688 8.60938 30.1562
Q5.60938 33.8438 5.60938 39.2031
Q5.60938 42.5781 7 45.5469
Q8.40625 48.5312 11.2344 50.875
Q13.9688 53.1719 18.1875 54.5156
Q22.4062 55.8594 27.6406 55.8594
Q32.5156 55.8594 37.5156 54.6562
Q42.5312 53.4688 45.8438 51.7656
L45.8438 41.9375
L45.3594 41.9375
Q41.8438 44.5312 36.8125 46.3125
Q31.7812 48.0938 26.9531 48.0938
Q21.9219 48.0938 18.4531 46.1562
Q14.9844 44.2344 14.9844 40.4375
Q14.9844 37.0625 17.0938 35.3594
Q19.1406 33.6406 23.7344 32.5625
Q26.2656 31.9844 29.4062 31.3906
Q32.5625 30.8125 34.6719 30.3281
Q41.0625 28.8594 44.5312 25.2969
Q48 21.6875 48 15.7188" id="Verdana-73"/>
      <path d="
M51.4219 0
L42.2812 0
L42.2812 5.8125
Q41.0625 4.98438 38.9844 3.48438
Q36.9219 2 34.9688 1.125
Q32.6719 0 29.6875 -0.75
Q26.7031 -1.51562 22.7031 -1.51562
Q15.3281 -1.51562 10.2031 3.35938
Q5.07812 8.25 5.07812 15.8281
Q5.07812 22.0156 7.73438 25.8438
Q10.4062 29.6875 15.3281 31.8906
Q20.3125 34.0781 27.2969 34.8594
Q34.2812 35.6406 42.2812 36.0312
L42.2812 37.4531
Q42.2812 40.5781 41.1875 42.625
Q40.0938 44.6719 38.0312 45.8438
Q36.0781 46.9688 33.3438 47.3594
Q30.6094 47.75 27.6406 47.75
Q24.0312 47.75 19.5781 46.7969
Q15.1406 45.8438 10.4062 44.0469
L9.90625 44.0469
L9.90625 53.375
Q12.5938 54.1094 17.6719 54.9844
Q22.75 55.8594 27.6875 55.8594
Q33.4531 55.8594 37.7188 54.9062
Q42 53.9531 45.125 51.6562
Q48.1875 49.4219 49.7969 45.8438
Q51.4219 42.2812 51.4219 37.0156
z

M42.2812 13.4219
L42.2812 28.6094
Q38.0938 28.375 32.3906 27.875
Q26.7031 27.3906 23.3906 26.4688
Q19.4375 25.3438 16.9844 22.9688
Q14.5469 20.6094 14.5469 16.4531
Q14.5469 11.7656 17.375 9.39062
Q20.2188 7.03125 26.0312 7.03125
Q30.8594 7.03125 34.8594 8.90625
Q38.875 10.7969 42.2812 13.4219" id="Verdana-61"/>
      <path d="
M43.0625 44.5312
L42.5781 44.5312
Q40.5312 45.0156 38.5938 45.2344
Q36.6719 45.4531 34.0312 45.4531
Q29.7812 45.4531 25.8281 43.5781
Q21.875 41.7031 18.2188 38.7188
L18.2188 0
L9.03125 0
L9.03125 54.5469
L18.2188 54.5469
L18.2188 46.4844
Q23.6875 50.875 27.8594 52.7031
Q32.0312 54.5469 36.375 54.5469
Q38.7656 54.5469 39.8438 54.4219
Q40.9219 54.2969 43.0625 53.9531
z
" id="Verdana-72"/>
      <path d="
M18.8906 63.6719
L8.54688 63.6719
L8.54688 73.1875
L18.8906 73.1875
z

M18.3125 0
L9.125 0
L9.125 54.5469
L18.3125 54.5469
z
" id="Verdana-69"/>
      <path d="
M55.5156 27.25
Q55.5156 13.9219 48.6719 6.20312
Q41.8438 -1.51562 30.375 -1.51562
Q18.7969 -1.51562 11.9844 6.20312
Q5.17188 13.9219 5.17188 27.25
Q5.17188 40.5781 11.9844 48.3125
Q18.7969 56.0625 30.375 56.0625
Q41.8438 56.0625 48.6719 48.3125
Q55.5156 40.5781 55.5156 27.25
M46.0469 27.25
Q46.0469 37.8438 41.8906 42.9844
Q37.75 48.1406 30.375 48.1406
Q22.9062 48.1406 18.7812 42.9844
Q14.6562 37.8438 14.6562 27.25
Q14.6562 17 18.7969 11.6875
Q22.9531 6.39062 30.375 6.39062
Q37.7031 6.39062 41.875 11.6406
Q46.0469 16.8906 46.0469 27.25" id="Verdana-6f"/>
      <path d="
M54.6406 0
L45.4531 0
L45.4531 31.0625
Q45.4531 34.8125 45.0156 38.1094
Q44.5781 41.4062 43.4062 43.2656
Q42.1875 45.3125 39.8906 46.3125
Q37.5938 47.3125 33.9375 47.3125
Q30.1719 47.3125 26.0625 45.4531
Q21.9688 43.6094 18.2188 40.7188
L18.2188 0
L9.03125 0
L9.03125 54.5469
L18.2188 54.5469
L18.2188 48.4844
Q22.5156 52.0469 27.0938 54.0469
Q31.6875 56.0625 36.5312 56.0625
Q45.3594 56.0625 50 50.7344
Q54.6406 45.4062 54.6406 35.4062
z
" id="Verdana-6e"/>
      <path d="
M70.4062 5.375
Q64.4531 2.64062 57.3906 0.609375
Q50.3438 -1.42188 43.75 -1.42188
Q35.25 -1.42188 28.1719 0.921875
Q21.0938 3.26562 16.1094 7.95312
Q11.0781 12.7031 8.34375 19.7969
Q5.60938 26.9062 5.60938 36.4219
Q5.60938 53.8594 15.7969 63.9375
Q25.9844 74.0312 43.75 74.0312
Q49.9531 74.0312 56.4219 72.5312
Q62.8906 71.0469 70.3594 67.4844
L70.3594 56
L69.4844 56
Q67.9688 57.1719 65.0781 59.0781
Q62.2031 60.9844 59.4219 62.25
Q56.0625 63.7656 51.7812 64.7656
Q47.5156 65.7656 42.0938 65.7656
Q29.8906 65.7656 22.7812 57.9219
Q15.6719 50.0938 15.6719 36.7188
Q15.6719 22.6094 23.0938 14.7656
Q30.5156 6.9375 43.3125 6.9375
Q48 6.9375 52.6562 7.85938
Q57.3281 8.79688 60.8438 10.25
L60.8438 28.0781
L41.3594 28.0781
L41.3594 36.5781
L70.4062 36.5781
z
" id="Verdana-47"/>
     </defs>
     <g transform="translate(259.5496875 418.45125)scale(0.12 -0.12)">
      <use xlink:href="#Verdana-47"/>
      <use x="77.5390625" xlink:href="#Verdana-65"/>
      <use x="137.109375" xlink:href="#Verdana-6e"/>
      <use x="200.390625" xlink:href="#Verdana-65"/>
      <use x="259.9609375" xlink:href="#Verdana-72"/>
      <use x="300.88671875" xlink:href="#Verdana-61"/>
      <use x="360.9453125" xlink:href="#Verdana-74"/>
      <use x="400.349609375" xlink:href="#Verdana-69"/>
      <use x="427.791015625" xlink:href="#Verdana-6f"/>
      <use x="488.484375" xlink:href="#Verdana-6e"/>
      <use x="551.765625" xlink:href="#Verdana-73"/>
     </g>
    </g>
   </g>
   <g id="matplotlib.axis_2">
    <g id="ytick_1">
     <g id="line2d_19">
      <defs>
       <path d="
M0 0
L4 0" id="m728421d6d4" style="stroke:#000000;stroke-width:0.5;"/>
      </defs>
      <g>
       <use style="stroke:#000000;stroke-width:0.5;" x="72.0" xlink:href="#m728421d6d4" y="388.8"/>
      </g>
     </g>
     <g id="line2d_20">
      <defs>
       <path d="
M0 0
L-4 0" id="mcb0005524f" style="stroke:#000000;stroke-width:0.5;"/>
      </defs>
      <g>
       <use style="stroke:#000000;stroke-width:0.5;" x="518.4" xlink:href="#mcb0005524f" y="388.8"/>
      </g>
     </g>
     <g id="text_11">
      <!-- 0 -->
      <g transform="translate(61.964375 392.1515625)scale(0.12 -0.12)">
       <use xlink:href="#Verdana-30"/>
      </g>
     </g>
    </g>
    <g id="ytick_2">
     <g id="line2d_21">
      <g>
       <use style="stroke:#000000;stroke-width:0.5;" x="72.0" xlink:href="#m728421d6d4" y="345.6"/>
      </g>
     </g>
     <g id="line2d_22">
      <g>
       <use style="stroke:#000000;stroke-width:0.5;" x="518.4" xlink:href="#mcb0005524f" y="345.6"/>
      </g>
     </g>
     <g id="text_12">
      <!-- 20 -->
      <g transform="translate(54.475625 348.9515625)scale(0.12 -0.12)">
       <use xlink:href="#Verdana-32"/>
       <use x="63.57421875" xlink:href="#Verdana-30"/>
      </g>
     </g>
    </g>
    <g id="ytick_3">
     <g id="line2d_23">
      <g>
       <use style="stroke:#000000;stroke-width:0.5;" x="72.0" xlink:href="#m728421d6d4" y="302.4"/>
      </g>
     </g>
     <g id="line2d_24">
      <g>
       <use style="stroke:#000000;stroke-width:0.5;" x="518.4" xlink:href="#mcb0005524f" y="302.4"/>
      </g>
     </g>
     <g id="text_13">
      <!-- 40 -->
      <g transform="translate(53.984375 305.7515625)scale(0.12 -0.12)">
       <use xlink:href="#Verdana-34"/>
       <use x="63.57421875" xlink:href="#Verdana-30"/>
      </g>
     </g>
    </g>
    <g id="ytick_4">
     <g id="line2d_25">
      <g>
       <use style="stroke:#000000;stroke-width:0.5;" x="72.0" xlink:href="#m728421d6d4" y="259.2"/>
      </g>
     </g>
     <g id="line2d_26">
      <g>
       <use style="stroke:#000000;stroke-width:0.5;" x="518.4" xlink:href="#mcb0005524f" y="259.2"/>
      </g>
     </g>
     <g id="text_14">
      <!-- 60 -->
      <defs>
       <path d="
M58.1562 23.5781
Q58.1562 12.5 50.8594 5.48438
Q43.5625 -1.51562 32.9531 -1.51562
Q27.5938 -1.51562 23.1875 0.140625
Q18.7969 1.8125 15.4375 5.07812
Q11.2344 9.125 8.95312 15.8125
Q6.6875 22.5156 6.6875 31.9375
Q6.6875 41.6094 8.76562 49.0781
Q10.8438 56.5469 15.375 62.3594
Q19.6719 67.875 26.4531 70.9688
Q33.25 74.0781 42.2812 74.0781
Q45.1719 74.0781 47.125 73.8281
Q49.0781 73.5781 51.0781 72.9531
L51.0781 63.625
L50.5938 63.625
Q49.2188 64.3594 46.4531 65.0156
Q43.7031 65.6719 40.8281 65.6719
Q30.3281 65.6719 24.0781 59.1094
Q17.8281 52.5469 16.7969 41.3594
Q20.9062 43.8438 24.875 45.1406
Q28.8594 46.4375 34.0781 46.4375
Q38.7188 46.4375 42.25 45.5781
Q45.7969 44.7344 49.5156 42.1406
Q53.8125 39.1562 55.9844 34.6094
Q58.1562 30.0781 58.1562 23.5781
M48.25 23.1875
Q48.25 27.7344 46.9062 30.7031
Q45.5625 33.6875 42.4844 35.8906
Q40.2344 37.4531 37.5 37.9375
Q34.7656 38.4219 31.7812 38.4219
Q27.6406 38.4219 24.0781 37.4375
Q20.5156 36.4688 16.75 34.4219
Q16.6562 33.3438 16.5938 32.3438
Q16.5469 31.3438 16.5469 29.8281
Q16.5469 22.125 18.1406 17.6562
Q19.7344 13.1875 22.5156 10.5938
Q24.75 8.45312 27.3594 7.45312
Q29.9844 6.45312 33.0625 6.45312
Q40.1406 6.45312 44.1875 10.7656
Q48.25 15.0938 48.25 23.1875" id="Verdana-36"/>
      </defs>
      <g transform="translate(54.335 262.5515625)scale(0.12 -0.12)">
       <use xlink:href="#Verdana-36"/>
       <use x="63.57421875" xlink:href="#Verdana-30"/>
      </g>
     </g>
    </g>
    <g id="ytick_5">
     <g id="line2d_27">
      <g>
       <use style="stroke:#000000;stroke-width:0.5;" x="72.0" xlink:href="#m728421d6d4" y="216.0"/>
      </g>
     </g>
     <g id="line2d_28">
      <g>
       <use style="stroke:#000000;stroke-width:0.5;" x="518.4" xlink:href="#mcb0005524f" y="216.0"/>
      </g>
     </g>
     <g id="text_15">
      <!-- 80 -->
      <defs>
       <path d="
M57.625 20.2656
Q57.625 10.8438 50.2656 4.59375
Q42.9219 -1.65625 31.7812 -1.65625
Q19.9688 -1.65625 12.9531 4.4375
Q5.95312 10.5469 5.95312 20.0625
Q5.95312 26.125 9.46875 31.0312
Q12.9844 35.9375 19.3906 38.8125
L19.3906 39.1094
Q13.5312 42.2344 10.7188 45.9375
Q7.90625 49.6562 7.90625 55.2188
Q7.90625 63.4219 14.6406 68.8906
Q21.3906 74.3594 31.7812 74.3594
Q42.6719 74.3594 49.1719 69.1406
Q55.6719 63.9219 55.6719 55.8594
Q55.6719 50.9219 52.5938 46.1562
Q49.5156 41.4062 43.5625 38.7188
L43.5625 38.4219
Q50.3906 35.5 54 31.2031
Q57.625 26.9062 57.625 20.2656
M46.0469 55.7656
Q46.0469 60.9844 42.0156 64.0781
Q37.9844 67.1875 31.7344 67.1875
Q25.5938 67.1875 21.6562 64.25
Q17.7188 61.3281 17.7188 56.3438
Q17.7188 52.8281 19.7031 50.2656
Q21.6875 47.7031 25.6875 45.7031
Q27.4844 44.8281 30.875 43.4062
Q34.2812 42 37.5 41.0625
Q42.3281 44.2812 44.1875 47.75
Q46.0469 51.2188 46.0469 55.7656
M47.5625 19.3438
Q47.5625 23.8281 45.5781 26.5312
Q43.6094 29.25 37.8438 31.9844
Q35.5469 33.0625 32.8125 33.9844
Q30.0781 34.9062 25.5312 36.5781
Q21.1406 34.1875 18.4844 30.0781
Q15.8281 25.9844 15.8281 20.7969
Q15.8281 14.2031 20.3594 9.90625
Q24.9062 5.60938 31.8906 5.60938
Q39.0156 5.60938 43.2812 9.26562
Q47.5625 12.9375 47.5625 19.3438" id="Verdana-38"/>
      </defs>
      <g transform="translate(54.246875 219.3515625)scale(0.12 -0.12)">
       <use xlink:href="#Verdana-38"/>
       <use x="63.57421875" xlink:href="#Verdana-30"/>
      </g>
     </g>
    </g>
    <g id="ytick_6">
     <g id="line2d_29">
      <g>
       <use style="stroke:#000000;stroke-width:0.5;" x="72.0" xlink:href="#m728421d6d4" y="172.8"/>
      </g>
     </g>
     <g id="line2d_30">
      <g>
       <use style="stroke:#000000;stroke-width:0.5;" x="518.4" xlink:href="#mcb0005524f" y="172.8"/>
      </g>
     </g>
     <g id="text_16">
      <!-- 100 -->
      <g transform="translate(47.5325 176.1515625)scale(0.12 -0.12)">
       <use xlink:href="#Verdana-31"/>
       <use x="63.57421875" xlink:href="#Verdana-30"/>
       <use x="127.1484375" xlink:href="#Verdana-30"/>
      </g>
     </g>
    </g>
    <g id="ytick_7">
     <g id="line2d_31">
      <g>
       <use style="stroke:#000000;stroke-width:0.5;" x="72.0" xlink:href="#m728421d6d4" y="129.6"/>
      </g>
     </g>
     <g id="line2d_32">
      <g>
       <use style="stroke:#000000;stroke-width:0.5;" x="518.4" xlink:href="#mcb0005524f" y="129.6"/>
      </g>
     </g>
     <g id="text_17">
      <!-- 120 -->
      <g transform="translate(47.5325 132.9515625)scale(0.12 -0.12)">
       <use xlink:href="#Verdana-31"/>
       <use x="63.57421875" xlink:href="#Verdana-32"/>
       <use x="127.1484375" xlink:href="#Verdana-30"/>
      </g>
     </g>
    </g>
    <g id="ytick_8">
     <g id="line2d_33">
      <g>
       <use style="stroke:#000000;stroke-width:0.5;" x="72.0" xlink:href="#m728421d6d4" y="86.4"/>
      </g>
     </g>
     <g id="line2d_34">
      <g>
       <use style="stroke:#000000;stroke-width:0.5;" x="518.4" xlink:href="#mcb0005524f" y="86.4"/>
      </g>
     </g>
     <g id="text_18">
      <!-- 140 -->
      <g transform="translate(47.5325 89.7515625)scale(0.12 -0.12)">
       <use xlink:href="#Verdana-31"/>
       <use x="63.57421875" xlink:href="#Verdana-34"/>
       <use x="127.1484375" xlink:href="#Verdana-30"/>
      </g>
     </g>
    </g>
    <g id="ytick_9">
     <g id="line2d_35">
      <g>
       <use style="stroke:#000000;stroke-width:0.5;" x="72.0" xlink:href="#m728421d6d4" y="43.2"/>
      </g>
     </g>
     <g id="line2d_36">
      <g>
       <use style="stroke:#000000;stroke-width:0.5;" x="518.4" xlink:href="#mcb0005524f" y="43.2"/>
      </g>
     </g>
     <g id="text_19">
      <!-- 160 -->
      <g transform="translate(47.5325 46.5515625)scale(0.12 -0.12)">
       <use xlink:href="#Verdana-31"/>
       <use x="63.57421875" xlink:href="#Verdana-36"/>
       <use x="127.1484375" xlink:href="#Verdana-30"/>
      </g>
     </g>
    </g>
    <g id="text_20">
     <!-- Size per Species -->
     <defs>
      <path d="
M48.5781 0
L4.54688 0
L4.54688 6.78125
L36.3281 46.875
L5.21875 46.875
L5.21875 54.5469
L47.75 54.5469
L47.75 48
L15.8281 7.76562
L48.5781 7.76562
z
" id="Verdana-7a"/>
      <path id="Verdana-20"/>
      <path d="
M62.5938 20.75
Q62.5938 16.5 60.6094 12.3438
Q58.6406 8.20312 55.0781 5.32812
Q51.1719 2.20312 45.9688 0.4375
Q40.7656 -1.3125 33.4531 -1.3125
Q25.5938 -1.3125 19.3125 0.140625
Q13.0312 1.60938 6.54688 4.5
L6.54688 16.6094
L7.23438 16.6094
Q12.75 12.0156 19.9688 9.51562
Q27.2031 7.03125 33.5469 7.03125
Q42.5312 7.03125 47.5312 10.3906
Q52.5469 13.7656 52.5469 19.3906
Q52.5469 24.2188 50.1719 26.5156
Q47.7969 28.8125 42.9688 30.0781
Q39.3125 31.0625 35.0312 31.6875
Q30.7656 32.3281 25.9844 33.2969
Q16.3125 35.3594 11.6406 40.3125
Q6.98438 45.2656 6.98438 53.2188
Q6.98438 62.3594 14.6875 68.1875
Q22.4062 74.0312 34.2812 74.0312
Q41.9375 74.0312 48.3281 72.5625
Q54.7344 71.0938 59.6719 68.9531
L59.6719 57.5156
L58.9844 57.5156
Q54.8281 61.0312 48.0625 63.3438
Q41.3125 65.6719 34.2344 65.6719
Q26.4688 65.6719 21.75 62.4531
Q17.0469 59.2344 17.0469 54.1562
Q17.0469 49.6094 19.3906 47.0156
Q21.7344 44.4375 27.6406 43.0625
Q30.7656 42.3906 36.5156 41.4062
Q42.2812 40.4375 46.2969 39.4062
Q54.3906 37.25 58.4844 32.9062
Q62.5938 28.5625 62.5938 20.75" id="Verdana-53"/>
      <path d="
M57.0312 27.9375
Q57.0312 21.2969 55.125 15.7969
Q53.2188 10.2969 49.75 6.5
Q46.5312 2.875 42.1562 0.890625
Q37.7969 -1.07812 32.9062 -1.07812
Q28.6562 -1.07812 25.2188 -0.140625
Q21.7812 0.78125 18.2188 2.73438
L18.2188 -20.125
L9.03125 -20.125
L9.03125 54.5469
L18.2188 54.5469
L18.2188 48.8281
Q21.875 51.9062 26.4375 53.9844
Q31 56.0625 36.1875 56.0625
Q46.0469 56.0625 51.5312 48.6094
Q57.0312 41.1562 57.0312 27.9375
M47.5625 27.6875
Q47.5625 37.5469 44.1875 42.4219
Q40.8281 47.3125 33.8438 47.3125
Q29.8906 47.3125 25.875 45.5938
Q21.875 43.8906 18.2188 41.1094
L18.2188 10.2031
Q22.125 8.45312 24.9219 7.8125
Q27.7344 7.17188 31.2969 7.17188
Q38.9688 7.17188 43.2656 12.3438
Q47.5625 17.5312 47.5625 27.6875" id="Verdana-70"/>
      <path d="
M49.3594 3.42188
Q44.7812 1.21875 40.6562 0
Q36.5312 -1.21875 31.8906 -1.21875
Q25.9844 -1.21875 21.0469 0.515625
Q16.1094 2.25 12.5938 5.76562
Q9.03125 9.28125 7.07812 14.6406
Q5.125 20.0156 5.125 27.2031
Q5.125 40.5781 12.4688 48.1875
Q19.8281 55.8125 31.8906 55.8125
Q36.5781 55.8125 41.0938 54.4844
Q45.6094 53.1719 49.3594 51.2656
L49.3594 41.0625
L48.875 41.0625
Q44.6719 44.3438 40.2031 46.0938
Q35.75 47.8594 31.5 47.8594
Q23.6875 47.8594 19.1719 42.6094
Q14.6562 37.3594 14.6562 27.2031
Q14.6562 17.3281 19.0625 12.0312
Q23.4844 6.73438 31.5 6.73438
Q34.2812 6.73438 37.1562 7.46875
Q40.0469 8.20312 42.3281 9.375
Q44.3438 10.4062 46.0938 11.5469
Q47.8594 12.7031 48.875 13.5312
L49.3594 13.5312
z
" id="Verdana-63"/>
     </defs>
     <g transform="translate(40.1175 265.171875)rotate(-90.0)scale(0.12 -0.12)">
      <use xlink:href="#Verdana-53"/>
      <use x="68.359375" xlink:href="#Verdana-69"/>
      <use x="95.80078125" xlink:href="#Verdana-7a"/>
      <use x="147.71484375" xlink:href="#Verdana-65"/>
      <use x="207.28515625" xlink:href="#Verdana-20"/>
      <use x="242.44140625" xlink:href="#Verdana-70"/>
      <use x="304.74609375" xlink:href="#Verdana-65"/>
      <use x="364.31640625" xlink:href="#Verdana-72"/>
      <use x="406.9921875" xlink:href="#Verdana-20"/>
      <use x="442.1484375" xlink:href="#Verdana-53"/>
      <use x="510.5078125" xlink:href="#Verdana-70"/>
      <use x="572.8125" xlink:href="#Verdana-65"/>
      <use x="632.3828125" xlink:href="#Verdana-63"/>
      <use x="684.482421875" xlink:href="#Verdana-69"/>
      <use x="711.923828125" xlink:href="#Verdana-65"/>
      <use x="771.494140625" xlink:href="#Verdana-73"/>
     </g>
    </g>
   </g>
   <g id="patch_3">
    <path d="
M72 43.2
L518.4 43.2" style="fill:none;stroke:#000000;"/>
   </g>
   <g id="patch_4">
    <path d="
M518.4 388.8
L518.4 43.2" style="fill:none;stroke:#000000;"/>
   </g>
   <g id="patch_5">
    <path d="
M72 388.8
L518.4 388.8" style="fill:none;stroke:#000000;"/>
   </g>
   <g id="patch_6">
    <path d="
M72 388.8
L72 43.2" style="fill:none;stroke:#000000;"/>
   </g>
   <g id="text_21">
    <!-- Speciation -->
    <g transform="translate(258.80625 38.2)scale(0.144 -0.144)">
     <use xlink:href="#Verdana-53"/>
     <use x="68.359375" xlink:href="#Verdana-70"/>
     <use x="130.6640625" xlink:href="#Verdana-65"/>
     <use x="190.234375" xlink:href="#Verdana-63"/>
     <use x="242.333984375" xlink:href="#Verdana-69"/>
     <use x="269.775390625" xlink:href="#Verdana-61"/>
     <use x="329.833984375" xlink:href="#Verdana-74"/>
     <use x="369.23828125" xlink:href="#Verdana-69"/>
     <use x="396.6796875" xlink:href="#Verdana-6f"/>
     <use x="457.373046875" xlink:href="#Verdana-6e"/>
    </g>
   </g>
  </g>
 </g>
 <defs>
  <clipPath id="p7ff5b81e1d">
   <rect height="345.6" width="446.4" x="72.0" y="43.2"/>
  </clipPath>
 </defs>
</svg>
