<?xml version="1.0" encoding="UTF-8" standalone="no"?>
<!DOCTYPE svg PUBLIC "-//W3C//DTD SVG 1.1//EN"
 "http://www.w3.org/Graphics/SVG/1.1/DTD/svg11.dtd">
<!-- Generated by graphviz version 2.36.0 (20140111.2315)
 -->
<!-- Title: %3 Pages: 1 -->
<svg width="1451pt" height="248pt"
 viewBox="0.00 0.00 1451.34 248.00" xmlns="http://www.w3.org/2000/svg" xmlns:xlink="http://www.w3.org/1999/xlink">
<g id="graph0" class="graph" transform="scale(1 1) rotate(0) translate(4 244)">
<title>%3</title>
<polygon fill="white" stroke="none" points="-4,4 -4,-244 1447.34,-244 1447.34,4 -4,4"/>
<!-- 0 -->
<g id="node1" class="node"><title>0</title>
<polygon fill="lightgrey" stroke="black" points="724.667,-240 704.167,-240 704.167,-222 724.667,-222 724.667,-240"/>
<text text-anchor="middle" x="714.417" y="-228.8" font-family="Times,serif" font-size="9.00">0</text>
</g>
<!-- 12 -->
<g id="node13" class="node"><title>12</title>
<ellipse fill="lightblue" stroke="lightblue" cx="441.417" cy="-93" rx="18.0791" ry="18.2703"/>
<text text-anchor="middle" x="441.417" y="-90.8" font-family="Times,serif" font-size="9.00">12</text>
</g>
<!-- 0&#45;&gt;12 -->
<g id="edge102" class="edge"><title>0&#45;&gt;12</title>
<path fill="none" stroke="red" stroke-width="0.63908" d="M704.069,-228.444C693.201,-226.815 675.613,-224.194 660.417,-222 603.558,-213.79 442.105,-229.359 404.417,-186 386.352,-165.216 405.309,-134.486 422.075,-114.354"/>
<polygon fill="red" stroke="red" stroke-width="0.63908" points="424.829,-116.521 428.777,-106.69 419.559,-111.913 424.829,-116.521"/>
</g>
<!-- 14 -->
<g id="node15" class="node"><title>14</title>
<ellipse fill="lightblue" stroke="lightblue" cx="709.417" cy="-93" rx="18.0791" ry="18.2703"/>
<text text-anchor="middle" x="709.417" y="-90.8" font-family="Times,serif" font-size="9.00">14</text>
</g>
<!-- 0&#45;&gt;14 -->
<g id="edge42" class="edge"><title>0&#45;&gt;14</title>
<path fill="none" stroke="green" stroke-width="0.357207" d="M714.12,-221.9C713.412,-202.666 711.605,-153.508 710.448,-122.041"/>
<polygon fill="green" stroke="green" stroke-width="0.357207" points="713.934,-121.592 710.069,-111.727 706.939,-121.849 713.934,-121.592"/>
</g>
<!-- 15 -->
<g id="node16" class="node"><title>15</title>
<ellipse fill="lightblue" stroke="lightblue" cx="880.417" cy="-93" rx="18.0791" ry="18.2703"/>
<text text-anchor="middle" x="880.417" y="-90.8" font-family="Times,serif" font-size="9.00">15</text>
</g>
<!-- 0&#45;&gt;15 -->
<g id="edge87" class="edge"><title>0&#45;&gt;15</title>
<path fill="none" stroke="green" stroke-width="0.710573" d="M725.061,-227.135C758.043,-218.217 856.625,-191.229 861.417,-186 877.202,-168.775 881.271,-142.019 881.793,-121.793"/>
<polygon fill="green" stroke="green" stroke-width="0.710573" points="885.293,-121.608 881.778,-111.614 878.293,-121.619 885.293,-121.608"/>
</g>
<!-- 17 -->
<g id="node17" class="node"><title>17</title>
<ellipse fill="none" stroke="black" cx="926.417" cy="-167" rx="18.0791" ry="18.2703"/>
<text text-anchor="middle" x="926.417" y="-164.8" font-family="Times,serif" font-size="9.00">17</text>
</g>
<!-- 0&#45;&gt;17 -->
<g id="edge8" class="edge"><title>0&#45;&gt;17</title>
<path fill="none" stroke="green" stroke-width="0.548339" d="M724.675,-227.196C730.463,-225.632 737.833,-223.668 744.417,-222 810.878,-205.166 830.596,-211.046 894.417,-186 896.998,-184.987 899.626,-183.799 902.211,-182.524"/>
<polygon fill="green" stroke="green" stroke-width="0.548339" points="904.065,-185.501 911.218,-177.685 900.752,-179.334 904.065,-185.501"/>
</g>
<!-- 20 -->
<g id="node18" class="node"><title>20</title>
<ellipse fill="none" stroke="black" cx="834.417" cy="-167" rx="18.0791" ry="18.2703"/>
<text text-anchor="middle" x="834.417" y="-164.8" font-family="Times,serif" font-size="9.00">20</text>
</g>
<!-- 0&#45;&gt;20 -->
<g id="edge2" class="edge"><title>0&#45;&gt;20</title>
<path fill="none" stroke="green" stroke-width="0.286489" d="M724.84,-225.527C742.123,-217.999 777.656,-202.039 806.417,-186 807.909,-185.168 809.43,-184.288 810.953,-183.382"/>
<polygon fill="green" stroke="green" stroke-width="0.286489" points="812.865,-186.315 819.516,-178.068 809.174,-180.367 812.865,-186.315"/>
</g>
<!-- 19 -->
<g id="node19" class="node"><title>19</title>
<ellipse fill="none" stroke="black" cx="649.417" cy="-167" rx="18.0791" ry="18.2703"/>
<text text-anchor="middle" x="649.417" y="-164.8" font-family="Times,serif" font-size="9.00">19</text>
</g>
<!-- 0&#45;&gt;19 -->
<g id="edge105" class="edge"><title>0&#45;&gt;19</title>
<path fill="none" stroke="green" stroke-width="0.528668" d="M705.92,-221.895C696.774,-213.171 681.897,-198.981 669.705,-187.351"/>
<polygon fill="green" stroke="green" stroke-width="0.528668" points="671.819,-184.531 662.167,-180.161 666.988,-189.596 671.819,-184.531"/>
</g>
<!-- 18 -->
<g id="node20" class="node"><title>18</title>
<ellipse fill="none" stroke="black" cx="334.417" cy="-167" rx="18.0791" ry="18.2703"/>
<text text-anchor="middle" x="334.417" y="-164.8" font-family="Times,serif" font-size="9.00">18</text>
</g>
<!-- 0&#45;&gt;18 -->
<g id="edge53" class="edge"><title>0&#45;&gt;18</title>
<path fill="none" stroke="red" stroke-width="0.186256" d="M704.076,-228.389C693.215,-226.715 675.632,-224.058 660.417,-222 529.963,-204.353 491.496,-227.05 366.417,-186 363.635,-185.087 360.821,-183.922 358.076,-182.625"/>
<polygon fill="red" stroke="red" stroke-width="0.186256" points="359.629,-179.487 349.157,-177.88 356.342,-185.667 359.629,-179.487"/>
</g>
<!-- 21 -->
<g id="node21" class="node"><title>21</title>
<ellipse fill="none" stroke="black" cx="1056.42" cy="-167" rx="18.0791" ry="18.2703"/>
<text text-anchor="middle" x="1056.42" y="-164.8" font-family="Times,serif" font-size="9.00">21</text>
</g>
<!-- 0&#45;&gt;21 -->
<g id="edge47" class="edge"><title>0&#45;&gt;21</title>
<path fill="none" stroke="red" stroke-width="0.379249" d="M724.912,-226.953C730.645,-225.351 737.888,-223.43 744.417,-222 836.492,-201.836 860.548,-202.113 953.417,-186 978.853,-181.587 1007.81,-176.522 1028.53,-172.892"/>
<polygon fill="red" stroke="red" stroke-width="0.379249" points="1029.31,-176.309 1038.56,-171.135 1028.1,-169.414 1029.31,-176.309"/>
</g>
<!-- 23 -->
<g id="node22" class="node"><title>23</title>
<ellipse fill="none" stroke="black" cx="779.417" cy="-167" rx="18.0791" ry="18.2703"/>
<text text-anchor="middle" x="779.417" y="-164.8" font-family="Times,serif" font-size="9.00">23</text>
</g>
<!-- 0&#45;&gt;23 -->
<g id="edge145" class="edge"><title>0&#45;&gt;23</title>
<path fill="none" stroke="green" stroke-width="0.624149" d="M722.915,-221.895C732.061,-213.171 746.937,-198.981 759.13,-187.351"/>
<polygon fill="green" stroke="green" stroke-width="0.624149" points="761.847,-189.596 766.668,-180.161 757.016,-184.531 761.847,-189.596"/>
</g>
<!-- 22 -->
<g id="node24" class="node"><title>22</title>
<ellipse fill="none" stroke="black" cx="594.417" cy="-167" rx="18.0791" ry="18.2703"/>
<text text-anchor="middle" x="594.417" y="-164.8" font-family="Times,serif" font-size="9.00">22</text>
</g>
<!-- 0&#45;&gt;22 -->
<g id="edge97" class="edge"><title>0&#45;&gt;22</title>
<path fill="none" stroke="red" stroke-width="0.38406" d="M703.994,-225.527C686.712,-217.999 651.178,-202.039 622.417,-186 620.925,-185.168 619.404,-184.288 617.881,-183.382"/>
<polygon fill="red" stroke="red" stroke-width="0.38406" points="619.661,-180.367 609.318,-178.068 615.97,-186.315 619.661,-180.367"/>
</g>
<!-- 1 -->
<g id="node2" class="node"><title>1</title>
<polygon fill="lightgrey" stroke="black" points="604.667,-240 584.167,-240 584.167,-222 604.667,-222 604.667,-240"/>
<text text-anchor="middle" x="594.417" y="-228.8" font-family="Times,serif" font-size="9.00">1</text>
</g>
<!-- 1&#45;&gt;12 -->
<g id="edge27" class="edge"><title>1&#45;&gt;12</title>
<path fill="none" stroke="red" stroke-width="0.807537" d="M583.997,-225.256C580.961,-224.032 577.602,-222.828 574.417,-222 513.916,-206.267 336.696,-232.947 295.417,-186 284.265,-173.317 285.766,-161.86 295.417,-148 321.895,-109.977 378.39,-98.6629 412.822,-95.3373"/>
<polygon fill="red" stroke="red" stroke-width="0.807537" points="413.469,-98.797 423.159,-94.5145 412.913,-91.8191 413.469,-98.797"/>
</g>
<!-- 13 -->
<g id="node14" class="node"><title>13</title>
<ellipse fill="lightblue" stroke="lightblue" cx="779.417" cy="-19" rx="18.0791" ry="18.2703"/>
<text text-anchor="middle" x="779.417" y="-16.8" font-family="Times,serif" font-size="9.00">13</text>
</g>
<!-- 1&#45;&gt;13 -->
<g id="edge135" class="edge"><title>1&#45;&gt;13</title>
<path fill="none" stroke="red" stroke-width="0.523058" d="M584,-225.246C580.964,-224.022 577.604,-222.821 574.417,-222 511.529,-205.808 327.415,-234.665 284.417,-186 273.235,-173.344 277.464,-163.391 284.417,-148 304.9,-102.658 323.119,-94.5787 368.417,-74 437.239,-42.7351 669.861,-26.4199 751.119,-21.5719"/>
<polygon fill="red" stroke="red" stroke-width="0.523058" points="751.341,-25.0649 761.12,-20.9879 750.933,-18.0768 751.341,-25.0649"/>
</g>
<!-- 1&#45;&gt;14 -->
<g id="edge88" class="edge"><title>1&#45;&gt;14</title>
<path fill="none" stroke="green" stroke-width="0.905022" d="M583.994,-225.268C580.958,-224.044 577.6,-222.837 574.417,-222 516.517,-206.767 346.822,-231.074 307.417,-186 296.302,-173.285 296.298,-160.712 307.417,-148 332.089,-119.792 593.689,-101.158 681.133,-95.6797"/>
<polygon fill="green" stroke="green" stroke-width="0.905022" points="681.37,-99.1718 691.136,-95.0632 680.94,-92.1851 681.37,-99.1718"/>
</g>
<!-- 1&#45;&gt;15 -->
<g id="edge43" class="edge"><title>1&#45;&gt;15</title>
<path fill="none" stroke="red" stroke-width="0.287973" d="M587.096,-221.779C573.736,-205.766 548.45,-170.038 567.417,-148 602.454,-107.291 753.715,-122.358 806.417,-112 821.925,-108.952 839.084,-104.826 852.971,-101.294"/>
<polygon fill="red" stroke="red" stroke-width="0.287973" points="854.065,-104.626 862.872,-98.7354 852.314,-97.8485 854.065,-104.626"/>
</g>
<!-- 1&#45;&gt;17 -->
<g id="edge5" class="edge"><title>1&#45;&gt;17</title>
<path fill="none" stroke="red" stroke-width="0.234602" d="M604.843,-226.542C609.818,-224.987 615.881,-223.229 621.417,-222 726.713,-198.623 755.916,-208.434 861.417,-186 873.957,-183.334 887.66,-179.656 899.237,-176.319"/>
<polygon fill="red" stroke="red" stroke-width="0.234602" points="900.575,-179.574 909.178,-173.389 898.596,-172.859 900.575,-179.574"/>
</g>
<!-- 1&#45;&gt;20 -->
<g id="edge82" class="edge"><title>1&#45;&gt;20</title>
<path fill="none" stroke="red" stroke-width="0.705731" d="M604.868,-226.649C609.849,-225.118 615.909,-223.349 621.417,-222 702.779,-202.079 728.683,-217.207 806.417,-186 808.04,-185.349 809.669,-184.6 811.282,-183.786"/>
<polygon fill="red" stroke="red" stroke-width="0.705731" points="813.272,-186.678 820.166,-178.634 809.759,-180.623 813.272,-186.678"/>
</g>
<!-- 1&#45;&gt;19 -->
<g id="edge55" class="edge"><title>1&#45;&gt;19</title>
<path fill="none" stroke="red" stroke-width="0.255015" d="M601.608,-221.895C608.918,-213.654 620.555,-200.536 630.517,-189.305"/>
<polygon fill="red" stroke="red" stroke-width="0.255015" points="633.372,-191.362 637.39,-181.558 628.135,-186.716 633.372,-191.362"/>
</g>
<!-- 1&#45;&gt;18 -->
<g id="edge106" class="edge"><title>1&#45;&gt;18</title>
<path fill="none" stroke="red" stroke-width="0.425161" d="M583.973,-225.344C580.937,-224.122 577.584,-222.897 574.417,-222 484.148,-196.439 454.806,-217.454 366.417,-186 363.659,-185.018 360.86,-183.809 358.124,-182.486"/>
<polygon fill="red" stroke="red" stroke-width="0.425161" points="359.682,-179.35 349.214,-177.713 356.376,-185.521 359.682,-179.35"/>
</g>
<!-- 1&#45;&gt;21 -->
<g id="edge38" class="edge"><title>1&#45;&gt;21</title>
<path fill="none" stroke="green" stroke-width="0.290445" d="M604.821,-226.44C609.792,-224.863 615.857,-223.116 621.417,-222 766.937,-192.799 806.46,-206.786 953.417,-186 978.978,-182.385 1007.93,-177.231 1028.61,-173.364"/>
<polygon fill="green" stroke="green" stroke-width="0.290445" points="1029.43,-176.771 1038.61,-171.475 1028.13,-169.892 1029.43,-176.771"/>
</g>
<!-- 1&#45;&gt;23 -->
<g id="edge100" class="edge"><title>1&#45;&gt;23</title>
<path fill="none" stroke="red" stroke-width="0.672443" d="M604.894,-226.489C633.08,-217.043 711.193,-190.864 752.696,-176.955"/>
<polygon fill="red" stroke="red" stroke-width="0.672443" points="754.037,-180.197 762.406,-173.701 751.813,-173.56 754.037,-180.197"/>
</g>
<!-- 16 -->
<g id="node23" class="node"><title>16</title>
<ellipse fill="none" stroke="black" cx="464.417" cy="-167" rx="18.0791" ry="18.2703"/>
<text text-anchor="middle" x="464.417" y="-164.8" font-family="Times,serif" font-size="9.00">16</text>
</g>
<!-- 1&#45;&gt;16 -->
<g id="edge48" class="edge"><title>1&#45;&gt;16</title>
<path fill="none" stroke="red" stroke-width="0.235931" d="M583.973,-225.678C565.9,-218.119 527.722,-201.791 496.417,-186 493.942,-184.751 491.384,-183.407 488.842,-182.036"/>
<polygon fill="red" stroke="red" stroke-width="0.235931" points="490.333,-178.861 479.89,-177.075 486.94,-184.984 490.333,-178.861"/>
</g>
<!-- 1&#45;&gt;22 -->
<g id="edge149" class="edge"><title>1&#45;&gt;22</title>
<path fill="none" stroke="green" stroke-width="0.729245" d="M594.417,-221.895C594.417,-215.145 594.417,-205.124 594.417,-195.548"/>
<polygon fill="green" stroke="green" stroke-width="0.729245" points="597.917,-195.508 594.417,-185.508 590.917,-195.508 597.917,-195.508"/>
</g>
<!-- 2 -->
<g id="node3" class="node"><title>2</title>
<polygon fill="lightgrey" stroke="black" points="409.667,-240 389.167,-240 389.167,-222 409.667,-222 409.667,-240"/>
<text text-anchor="middle" x="399.417" y="-228.8" font-family="Times,serif" font-size="9.00">2</text>
</g>
<!-- 2&#45;&gt;12 -->
<g id="edge44" class="edge"><title>2&#45;&gt;12</title>
<path fill="none" stroke="red" stroke-width="0.585705" d="M388.947,-229.637C329.345,-227.465 34.5925,-215.286 8.41735,-186 -2.83738,-173.408 -2.76156,-160.66 8.41735,-148 35.2804,-117.579 320.566,-100.25 412.818,-95.4107"/>
<polygon fill="red" stroke="red" stroke-width="0.585705" points="413.274,-98.892 423.081,-94.8824 412.914,-91.9012 413.274,-98.892"/>
</g>
<!-- 2&#45;&gt;13 -->
<g id="edge91" class="edge"><title>2&#45;&gt;13</title>
<path fill="none" stroke="red" stroke-width="0.658833" d="M388.939,-230.355C362.552,-230.606 293.346,-227.138 263.417,-186 247.689,-164.38 268.051,-82.6467 277.417,-74 312.45,-41.6582 650.537,-25.2854 751.247,-21.0988"/>
<polygon fill="red" stroke="red" stroke-width="0.658833" points="751.435,-24.5941 761.285,-20.6895 751.15,-17.5999 751.435,-24.5941"/>
</g>
<!-- 2&#45;&gt;14 -->
<g id="edge103" class="edge"><title>2&#45;&gt;14</title>
<path fill="none" stroke="green" stroke-width="0.5859" d="M389.166,-230.121C364.012,-229.792 299.265,-225.019 271.417,-186 261.606,-172.253 260.23,-160.652 271.417,-148 285.101,-132.526 586.644,-104.794 681.273,-96.4442"/>
<polygon fill="green" stroke="green" stroke-width="0.5859" points="681.608,-99.9284 691.263,-95.567 680.995,-92.9552 681.608,-99.9284"/>
</g>
<!-- 2&#45;&gt;20 -->
<g id="edge101" class="edge"><title>2&#45;&gt;20</title>
<path fill="none" stroke="green" stroke-width="0.218623" d="M409.75,-229.019C471.249,-223.161 787.067,-192.834 806.417,-186 808.066,-185.418 809.715,-184.722 811.343,-183.947"/>
<polygon fill="green" stroke="green" stroke-width="0.218623" points="813.288,-186.868 820.264,-178.893 809.838,-180.777 813.288,-186.868"/>
</g>
<!-- 2&#45;&gt;19 -->
<g id="edge85" class="edge"><title>2&#45;&gt;19</title>
<path fill="none" stroke="green" stroke-width="0.254165" d="M409.991,-229.31C442.618,-226.889 544.17,-217.167 621.417,-186 623.038,-185.346 624.667,-184.595 626.28,-183.779"/>
<polygon fill="green" stroke="green" stroke-width="0.254165" points="628.271,-186.671 635.162,-178.623 624.756,-180.617 628.271,-186.671"/>
</g>
<!-- 2&#45;&gt;18 -->
<g id="edge40" class="edge"><title>2&#45;&gt;18</title>
<path fill="none" stroke="green" stroke-width="0.609536" d="M390.92,-221.895C381.774,-213.171 366.897,-198.981 354.705,-187.351"/>
<polygon fill="green" stroke="green" stroke-width="0.609536" points="356.819,-184.531 347.167,-180.161 351.988,-189.596 356.819,-184.531"/>
</g>
<!-- 2&#45;&gt;23 -->
<g id="edge49" class="edge"><title>2&#45;&gt;23</title>
<path fill="none" stroke="green" stroke-width="0.627772" d="M409.994,-228.38C446.797,-222.732 572.673,-203.304 676.417,-186 701.881,-181.753 730.839,-176.67 751.551,-172.99"/>
<polygon fill="green" stroke="green" stroke-width="0.627772" points="752.337,-176.405 761.569,-171.206 751.11,-169.514 752.337,-176.405"/>
</g>
<!-- 2&#45;&gt;16 -->
<g id="edge132" class="edge"><title>2&#45;&gt;16</title>
<path fill="none" stroke="red" stroke-width="0.327098" d="M407.915,-221.895C417.061,-213.171 431.937,-198.981 444.13,-187.351"/>
<polygon fill="red" stroke="red" stroke-width="0.327098" points="446.847,-189.596 451.668,-180.161 442.016,-184.531 446.847,-189.596"/>
</g>
<!-- 3 -->
<g id="node4" class="node"><title>3</title>
<polygon fill="lightgrey" stroke="black" points="910.667,-240 890.167,-240 890.167,-222 910.667,-222 910.667,-240"/>
<text text-anchor="middle" x="900.417" y="-228.8" font-family="Times,serif" font-size="9.00">3</text>
</g>
<!-- 3&#45;&gt;12 -->
<g id="edge26" class="edge"><title>3&#45;&gt;12</title>
<path fill="none" stroke="green" stroke-width="0.184922" d="M911.063,-226.371C915.479,-224.924 920.67,-223.298 925.417,-222 994.89,-203.007 1038.5,-242.301 1083.42,-186 1093.95,-172.798 1094.85,-160.433 1083.42,-148 1078.14,-142.255 593.77,-105.459 469.971,-96.1417"/>
<polygon fill="green" stroke="green" stroke-width="0.184922" points="470.005,-92.6344 459.77,-95.3747 469.48,-99.6147 470.005,-92.6344"/>
</g>
<!-- 3&#45;&gt;13 -->
<g id="edge134" class="edge"><title>3&#45;&gt;13</title>
<path fill="none" stroke="green" stroke-width="0.222711" d="M910.98,-226.015C915.382,-224.513 920.587,-222.942 925.417,-222 977.477,-211.848 1365.35,-224.893 1401.42,-186 1412.9,-173.616 1411.88,-161.256 1401.42,-148 1326.14,-52.6327 919.408,-26.5994 807.774,-21.2042"/>
<polygon fill="green" stroke="green" stroke-width="0.222711" points="807.779,-17.7008 797.627,-20.7321 807.454,-24.6932 807.779,-17.7008"/>
</g>
<!-- 3&#45;&gt;14 -->
<g id="edge117" class="edge"><title>3&#45;&gt;14</title>
<path fill="none" stroke="red" stroke-width="1.12352" d="M911.048,-226.316C915.462,-224.86 920.655,-223.242 925.417,-222 1003.1,-201.737 1051.62,-248.165 1102.42,-186 1113.1,-172.922 1113.73,-160.538 1102.42,-148 1050.03,-89.9531 828.185,-131.304 752.417,-112 746.489,-110.49 740.312,-108.302 734.551,-105.968"/>
<polygon fill="red" stroke="red" stroke-width="1.12352" points="735.932,-102.752 725.364,-101.997 733.155,-109.178 735.932,-102.752"/>
</g>
<!-- 3&#45;&gt;15 -->
<g id="edge69" class="edge"><title>3&#45;&gt;15</title>
<path fill="none" stroke="green" stroke-width="1.04106" d="M910.981,-226.022C915.384,-224.522 920.588,-222.95 925.417,-222 975.395,-212.173 1347.84,-223.404 1382.42,-186 1393.88,-173.598 1393.7,-160.565 1382.42,-148 1350.56,-112.529 1010.25,-98.346 908.802,-94.8872"/>
<polygon fill="green" stroke="green" stroke-width="1.04106" points="908.801,-91.3854 898.69,-94.5514 908.568,-98.3815 908.801,-91.3854"/>
</g>
<!-- 3&#45;&gt;17 -->
<g id="edge45" class="edge"><title>3&#45;&gt;17</title>
<path fill="none" stroke="red" stroke-width="0.459555" d="M903.816,-221.895C906.821,-214.731 911.37,-203.881 915.602,-193.79"/>
<polygon fill="red" stroke="red" stroke-width="0.459555" points="918.861,-195.068 919.501,-184.493 912.406,-192.361 918.861,-195.068"/>
</g>
<!-- 3&#45;&gt;20 -->
<g id="edge120" class="edge"><title>3&#45;&gt;20</title>
<path fill="none" stroke="green" stroke-width="0.457267" d="M891.789,-221.895C882.414,-213.088 867.109,-198.71 854.664,-187.02"/>
<polygon fill="green" stroke="green" stroke-width="0.457267" points="857.048,-184.457 847.363,-180.161 852.255,-189.559 857.048,-184.457"/>
</g>
<!-- 3&#45;&gt;19 -->
<g id="edge140" class="edge"><title>3&#45;&gt;19</title>
<path fill="none" stroke="green" stroke-width="0.456871" d="M889.952,-227.415C853.518,-218.415 731.477,-188.27 676.578,-174.709"/>
<polygon fill="green" stroke="green" stroke-width="0.456871" points="677.389,-171.304 666.842,-172.304 675.71,-178.1 677.389,-171.304"/>
</g>
<!-- 3&#45;&gt;18 -->
<g id="edge30" class="edge"><title>3&#45;&gt;18</title>
<path fill="none" stroke="green" stroke-width="0.399355" d="M890.08,-227.149C883.382,-225.406 874.443,-223.274 866.417,-222 677.446,-192.007 627.18,-210.494 437.417,-186 411.814,-182.695 382.872,-177.508 362.201,-173.549"/>
<polygon fill="green" stroke="green" stroke-width="0.399355" points="362.691,-170.078 352.207,-171.607 361.356,-176.95 362.691,-170.078"/>
</g>
<!-- 3&#45;&gt;21 -->
<g id="edge72" class="edge"><title>3&#45;&gt;21</title>
<path fill="none" stroke="green" stroke-width="0.426874" d="M910.683,-226.611C936.41,-218.076 1003.1,-195.69 1024.42,-186 1026.94,-184.852 1029.53,-183.575 1032.09,-182.245"/>
<polygon fill="green" stroke="green" stroke-width="0.426874" points="1033.98,-185.205 1041.07,-177.337 1030.62,-179.063 1033.98,-185.205"/>
</g>
<!-- 3&#45;&gt;23 -->
<g id="edge13" class="edge"><title>3&#45;&gt;23</title>
<path fill="none" stroke="red" stroke-width="0.563083" d="M890.156,-225.666C872.784,-218.214 836.623,-202.207 807.417,-186 805.924,-185.171 804.401,-184.293 802.877,-183.39"/>
<polygon fill="red" stroke="red" stroke-width="0.563083" points="804.655,-180.374 794.312,-178.08 800.967,-186.324 804.655,-180.374"/>
</g>
<!-- 3&#45;&gt;16 -->
<g id="edge93" class="edge"><title>3&#45;&gt;16</title>
<path fill="none" stroke="red" stroke-width="0.338021" d="M890.063,-227.247C883.359,-225.544 874.418,-223.418 866.417,-222 734.624,-198.636 699.834,-205.528 567.417,-186 541.878,-182.234 512.928,-177.097 492.239,-173.275"/>
<polygon fill="red" stroke="red" stroke-width="0.338021" points="492.706,-169.802 482.234,-171.41 491.423,-176.683 492.706,-169.802"/>
</g>
<!-- 3&#45;&gt;22 -->
<g id="edge58" class="edge"><title>3&#45;&gt;22</title>
<path fill="none" stroke="green" stroke-width="1.03692" d="M890.05,-227.32C883.34,-225.645 874.399,-223.525 866.417,-222 758.747,-201.428 725.051,-224.504 622.417,-186 620.781,-185.386 619.14,-184.666 617.519,-183.873"/>
<polygon fill="green" stroke="green" stroke-width="1.03692" points="619.032,-180.706 608.615,-178.774 615.553,-186.781 619.032,-180.706"/>
</g>
<!-- 4 -->
<g id="node5" class="node"><title>4</title>
<polygon fill="lightgrey" stroke="black" points="818.667,-240 798.167,-240 798.167,-222 818.667,-222 818.667,-240"/>
<text text-anchor="middle" x="808.417" y="-228.8" font-family="Times,serif" font-size="9.00">4</text>
</g>
<!-- 4&#45;&gt;13 -->
<g id="edge90" class="edge"><title>4&#45;&gt;13</title>
<path fill="none" stroke="green" stroke-width="0.839405" d="M818.692,-225.079C821.471,-223.913 824.515,-222.783 827.417,-222 887.775,-205.722 1065.14,-232.947 1106.42,-186 1117.57,-173.317 1111.13,-164.217 1106.42,-148 1095.54,-110.587 1091.62,-95.9265 1059.42,-74 1018.5,-46.1402 870.627,-28.8532 807.883,-22.6226"/>
<polygon fill="green" stroke="green" stroke-width="0.839405" points="807.835,-19.1016 797.544,-21.62 807.16,-26.0689 807.835,-19.1016"/>
</g>
<!-- 4&#45;&gt;14 -->
<g id="edge137" class="edge"><title>4&#45;&gt;14</title>
<path fill="none" stroke="red" stroke-width="0.31843" d="M818.782,-225.37C821.561,-224.203 824.581,-222.998 827.417,-222 882.355,-202.665 918.345,-232.497 953.417,-186 963.588,-172.517 964.256,-160.952 953.417,-148 895.175,-78.3993 839.464,-137.676 752.417,-112 746.55,-110.269 740.398,-107.991 734.641,-105.64"/>
<polygon fill="red" stroke="red" stroke-width="0.31843" points="736.017,-102.421 725.447,-101.697 733.258,-108.855 736.017,-102.421"/>
</g>
<!-- 4&#45;&gt;17 -->
<g id="edge60" class="edge"><title>4&#45;&gt;17</title>
<path fill="none" stroke="green" stroke-width="0.143419" d="M818.812,-224.848C835.049,-216.763 867.376,-200.516 894.417,-186 896.86,-184.689 899.397,-183.303 901.925,-181.907"/>
<polygon fill="green" stroke="green" stroke-width="0.143419" points="903.839,-184.847 910.861,-176.913 900.424,-178.736 903.839,-184.847"/>
</g>
<!-- 4&#45;&gt;20 -->
<g id="edge143" class="edge"><title>4&#45;&gt;20</title>
<path fill="none" stroke="green" stroke-width="0.415903" d="M811.816,-221.895C814.821,-214.731 819.37,-203.881 823.602,-193.79"/>
<polygon fill="green" stroke="green" stroke-width="0.415903" points="826.861,-195.068 827.501,-184.493 820.406,-192.361 826.861,-195.068"/>
</g>
<!-- 4&#45;&gt;18 -->
<g id="edge109" class="edge"><title>4&#45;&gt;18</title>
<path fill="none" stroke="green" stroke-width="0.128804" d="M797.841,-226.083C793.436,-224.592 788.234,-223.01 783.417,-222 632.1,-190.271 590.548,-207.321 437.417,-186 411.849,-182.44 382.902,-177.281 362.221,-173.397"/>
<polygon fill="green" stroke="green" stroke-width="0.128804" points="362.699,-169.926 352.221,-171.498 361.393,-176.803 362.699,-169.926"/>
</g>
<!-- 4&#45;&gt;21 -->
<g id="edge33" class="edge"><title>4&#45;&gt;21</title>
<path fill="none" stroke="green" stroke-width="0.173165" d="M818.721,-225.182C821.5,-224.015 824.536,-222.859 827.417,-222 912.716,-196.58 940.704,-216.233 1024.42,-186 1027.17,-185.005 1029.97,-183.788 1032.7,-182.46"/>
<polygon fill="green" stroke="green" stroke-width="0.173165" points="1034.45,-185.493 1041.61,-177.681 1031.14,-179.325 1034.45,-185.493"/>
</g>
<!-- 4&#45;&gt;23 -->
<g id="edge122" class="edge"><title>4&#45;&gt;23</title>
<path fill="none" stroke="green" stroke-width="0.524058" d="M804.626,-221.895C801.194,-214.556 795.953,-203.351 791.137,-193.055"/>
<polygon fill="green" stroke="green" stroke-width="0.524058" points="794.305,-191.567 786.897,-183.992 787.964,-194.533 794.305,-191.567"/>
</g>
<!-- 4&#45;&gt;16 -->
<g id="edge16" class="edge"><title>4&#45;&gt;16</title>
<path fill="none" stroke="green" stroke-width="0.264523" d="M797.808,-226.231C793.398,-224.762 788.201,-223.158 783.417,-222 688.823,-199.109 663.354,-202.377 567.417,-186 541.97,-181.656 513.01,-176.584 492.293,-172.933"/>
<polygon fill="green" stroke="green" stroke-width="0.264523" points="492.729,-169.456 482.273,-171.164 491.513,-176.349 492.729,-169.456"/>
</g>
<!-- 4&#45;&gt;22 -->
<g id="edge75" class="edge"><title>4&#45;&gt;22</title>
<path fill="none" stroke="green" stroke-width="1.17371" d="M797.774,-226.362C793.359,-224.913 788.167,-223.288 783.417,-222 712.651,-202.807 690.075,-214.26 622.417,-186 620.804,-185.326 619.181,-184.56 617.574,-183.734"/>
<polygon fill="green" stroke="green" stroke-width="1.17371" points="619.103,-180.574 608.703,-178.549 615.571,-186.617 619.103,-180.574"/>
</g>
<!-- 5 -->
<g id="node6" class="node"><title>5</title>
<polygon fill="lightgrey" stroke="black" points="774.667,-240 754.167,-240 754.167,-222 774.667,-222 774.667,-240"/>
<text text-anchor="middle" x="764.417" y="-228.8" font-family="Times,serif" font-size="9.00">5</text>
</g>
<!-- 5&#45;&gt;12 -->
<g id="edge119" class="edge"><title>5&#45;&gt;12</title>
<path fill="none" stroke="red" stroke-width="0.395204" d="M754.16,-226.991C748.158,-225.321 740.408,-223.321 733.417,-222 668.307,-209.695 481.353,-235.602 437.417,-186 421.729,-168.288 425.517,-140.308 431.505,-119.851"/>
<polygon fill="red" stroke="red" stroke-width="0.395204" points="434.875,-120.805 434.645,-110.212 428.22,-118.636 434.875,-120.805"/>
</g>
<!-- 5&#45;&gt;13 -->
<g id="edge71" class="edge"><title>5&#45;&gt;13</title>
<path fill="none" stroke="red" stroke-width="0.175664" d="M775.04,-225.95C779.165,-224.512 783.961,-223.004 788.417,-222 852.844,-207.485 1039.64,-235.446 1083.42,-186 1168.93,-89.4131 897.639,-38.1329 807.498,-24.0533"/>
<polygon fill="red" stroke="red" stroke-width="0.175664" points="807.853,-20.567 797.44,-22.5202 806.798,-27.4871 807.853,-20.567"/>
</g>
<!-- 5&#45;&gt;14 -->
<g id="edge29" class="edge"><title>5&#45;&gt;14</title>
<path fill="none" stroke="green" stroke-width="0.327812" d="M761.142,-221.9C753.17,-202.189 732.488,-151.048 719.823,-119.731"/>
<polygon fill="green" stroke="green" stroke-width="0.327812" points="723.013,-118.283 716.019,-110.325 716.524,-120.907 723.013,-118.283"/>
</g>
<!-- 5&#45;&gt;15 -->
<g id="edge139" class="edge"><title>5&#45;&gt;15</title>
<path fill="none" stroke="green" stroke-width="0.468405" d="M775.095,-226.169C779.226,-224.758 784.013,-223.211 788.417,-222 860.791,-202.104 906.338,-244.458 953.417,-186 964.011,-172.846 961.02,-163.081 953.417,-148 943.629,-128.584 923.197,-114.415 906.432,-105.474"/>
<polygon fill="green" stroke="green" stroke-width="0.468405" points="907.604,-102.147 897.093,-100.815 904.479,-108.411 907.604,-102.147"/>
</g>
<!-- 5&#45;&gt;17 -->
<g id="edge51" class="edge"><title>5&#45;&gt;17</title>
<path fill="none" stroke="red" stroke-width="0.871766" d="M774.948,-226.495C804.886,-216.523 888.705,-188.547 894.417,-186 896.95,-184.871 899.546,-183.606 902.11,-182.284"/>
<polygon fill="red" stroke="red" stroke-width="0.871766" points="903.989,-185.246 911.092,-177.385 900.637,-179.1 903.989,-185.246"/>
</g>
<!-- 5&#45;&gt;20 -->
<g id="edge63" class="edge"><title>5&#45;&gt;20</title>
<path fill="none" stroke="green" stroke-width="0.315028" d="M773.569,-221.895C783.635,-212.979 800.146,-198.354 813.431,-186.588"/>
<polygon fill="green" stroke="green" stroke-width="0.315028" points="816.034,-188.958 821.199,-179.707 811.393,-183.718 816.034,-188.958"/>
</g>
<!-- 5&#45;&gt;19 -->
<g id="edge112" class="edge"><title>5&#45;&gt;19</title>
<path fill="none" stroke="green" stroke-width="0.223603" d="M753.805,-224.278C735.759,-214.549 698.649,-194.542 673.894,-181.196"/>
<polygon fill="green" stroke="green" stroke-width="0.223603" points="675.54,-178.107 665.076,-176.442 672.218,-184.269 675.54,-178.107"/>
</g>
<!-- 5&#45;&gt;18 -->
<g id="edge7" class="edge"><title>5&#45;&gt;18</title>
<path fill="none" stroke="red" stroke-width="0.240405" d="M754.166,-226.959C748.166,-225.279 740.416,-223.279 733.417,-222 588.719,-195.554 549.127,-212.383 404.417,-186 390.099,-183.389 374.385,-179.449 361.479,-175.92"/>
<polygon fill="red" stroke="red" stroke-width="0.240405" points="362.386,-172.539 351.812,-173.211 360.497,-179.28 362.386,-172.539"/>
</g>
<!-- 5&#45;&gt;21 -->
<g id="edge19" class="edge"><title>5&#45;&gt;21</title>
<path fill="none" stroke="red" stroke-width="0.489318" d="M775.056,-226.02C779.183,-224.592 783.977,-223.071 788.417,-222 891.565,-197.134 924.105,-220.571 1024.42,-186 1027.19,-185.046 1029.99,-183.855 1032.73,-182.542"/>
<polygon fill="red" stroke="red" stroke-width="0.489318" points="1034.47,-185.579 1041.64,-177.78 1031.17,-179.405 1034.47,-185.579"/>
</g>
<!-- 5&#45;&gt;23 -->
<g id="edge80" class="edge"><title>5&#45;&gt;23</title>
<path fill="none" stroke="red" stroke-width="0.101924" d="M766.378,-221.895C768.052,-214.976 770.558,-204.62 772.927,-194.829"/>
<polygon fill="red" stroke="red" stroke-width="0.101924" points="776.355,-195.541 775.305,-184.998 769.551,-193.895 776.355,-195.541"/>
</g>
<!-- 5&#45;&gt;16 -->
<g id="edge104" class="edge"><title>5&#45;&gt;16</title>
<path fill="none" stroke="red" stroke-width="0.111055" d="M754.118,-227.192C748.102,-225.59 740.352,-223.59 733.417,-222 645.826,-201.922 541.245,-182.11 492.284,-173.076"/>
<polygon fill="red" stroke="red" stroke-width="0.111055" points="492.902,-169.631 482.434,-171.266 491.636,-176.516 492.902,-169.631"/>
</g>
<!-- 5&#45;&gt;22 -->
<g id="edge126" class="edge"><title>5&#45;&gt;22</title>
<path fill="none" stroke="green" stroke-width="0.353233" d="M753.879,-227.135C725.284,-219.297 646.749,-197.333 622.417,-186 620.833,-185.262 619.232,-184.447 617.64,-183.583"/>
<polygon fill="green" stroke="green" stroke-width="0.353233" points="619.19,-180.432 608.81,-178.307 615.599,-186.441 619.19,-180.432"/>
</g>
<!-- 6 -->
<g id="node7" class="node"><title>6</title>
<polygon fill="lightgrey" stroke="black" points="520.667,-240 500.167,-240 500.167,-222 520.667,-222 520.667,-240"/>
<text text-anchor="middle" x="510.417" y="-228.8" font-family="Times,serif" font-size="9.00">6</text>
</g>
<!-- 6&#45;&gt;12 -->
<g id="edge142" class="edge"><title>6&#45;&gt;12</title>
<path fill="none" stroke="red" stroke-width="0.295619" d="M499.982,-229.018C434.963,-222.887 88.0279,-190.003 84.4174,-186 73.1052,-173.459 73.4043,-160.804 84.4174,-148 126.883,-98.6275 335.595,-93.8274 412.712,-93.7708"/>
<polygon fill="red" stroke="red" stroke-width="0.295619" points="413.092,-97.2715 423.1,-93.7922 413.107,-90.2715 413.092,-97.2715"/>
</g>
<!-- 6&#45;&gt;13 -->
<g id="edge32" class="edge"><title>6&#45;&gt;13</title>
<path fill="none" stroke="red" stroke-width="0.28685" d="M500.112,-228.853C456.57,-223.905 289.232,-203.832 274.417,-186 250.195,-156.844 297.583,-78.4827 303.417,-74 374,-19.7688 659.327,-18.4741 750.946,-19.5061"/>
<polygon fill="red" stroke="red" stroke-width="0.28685" points="751.086,-23.0082 761.131,-19.6401 751.178,-16.0088 751.086,-23.0082"/>
</g>
<!-- 6&#45;&gt;14 -->
<g id="edge46" class="edge"><title>6&#45;&gt;14</title>
<path fill="none" stroke="red" stroke-width="0.732923" d="M499.931,-228.752C457.169,-223.562 297.561,-203.149 283.417,-186 272.671,-172.971 272.251,-160.671 283.417,-148 296.663,-132.969 588.101,-105.1 681.14,-96.5564"/>
<polygon fill="red" stroke="red" stroke-width="0.732923" points="681.589,-100.03 691.229,-95.6345 680.952,-93.0591 681.589,-100.03"/>
</g>
<!-- 6&#45;&gt;15 -->
<g id="edge95" class="edge"><title>6&#45;&gt;15</title>
<path fill="none" stroke="green" stroke-width="0.427645" d="M499.973,-229.458C451.015,-226.577 249.031,-210.75 307.417,-148 345.284,-107.303 751.498,-120.599 806.417,-112 822.031,-109.555 839.197,-105.469 853.062,-101.808"/>
<polygon fill="green" stroke="green" stroke-width="0.427645" points="854.208,-105.123 862.941,-99.1246 852.373,-98.3681 854.208,-105.123"/>
</g>
<!-- 6&#45;&gt;17 -->
<g id="edge79" class="edge"><title>6&#45;&gt;17</title>
<path fill="none" stroke="red" stroke-width="0.282201" d="M520.997,-226.098C525.402,-224.609 530.604,-223.025 535.417,-222 677.989,-191.635 718.273,-213.54 861.417,-186 874.006,-183.578 887.716,-179.935 899.286,-176.559"/>
<polygon fill="red" stroke="red" stroke-width="0.282201" points="900.645,-179.805 909.215,-173.576 898.631,-173.101 900.645,-179.805"/>
</g>
<!-- 6&#45;&gt;20 -->
<g id="edge62" class="edge"><title>6&#45;&gt;20</title>
<path fill="none" stroke="green" stroke-width="0.545725" d="M521.008,-226.151C525.415,-224.671 530.615,-223.078 535.417,-222 653.968,-195.38 692.352,-227.857 806.417,-186 808.058,-185.398 809.703,-184.687 811.326,-183.9"/>
<polygon fill="green" stroke="green" stroke-width="0.545725" points="813.285,-186.813 820.237,-178.818 809.816,-180.733 813.285,-186.813"/>
</g>
<!-- 6&#45;&gt;19 -->
<g id="edge147" class="edge"><title>6&#45;&gt;19</title>
<path fill="none" stroke="green" stroke-width="0.19993" d="M520.81,-226.638C540.811,-220.003 585.827,-204.275 621.417,-186 622.937,-185.22 624.479,-184.379 626.018,-183.504"/>
<polygon fill="green" stroke="green" stroke-width="0.19993" points="627.9,-186.456 634.623,-178.267 624.261,-180.476 627.9,-186.456"/>
</g>
<!-- 6&#45;&gt;18 -->
<g id="edge99" class="edge"><title>6&#45;&gt;18</title>
<path fill="none" stroke="red" stroke-width="0.31897" d="M500.022,-227.643C475.945,-222.01 414.721,-206.677 366.417,-186 363.868,-184.909 361.262,-183.669 358.69,-182.362"/>
<polygon fill="red" stroke="red" stroke-width="0.31897" points="360.159,-179.177 349.7,-177.483 356.82,-185.329 360.159,-179.177"/>
</g>
<!-- 6&#45;&gt;21 -->
<g id="edge111" class="edge"><title>6&#45;&gt;21</title>
<path fill="none" stroke="red" stroke-width="0.49438" d="M520.985,-226.04C525.388,-224.542 530.592,-222.967 535.417,-222 718.247,-185.356 768.512,-210.073 953.417,-186 979.017,-182.667 1007.96,-177.483 1028.63,-173.532"/>
<polygon fill="red" stroke="red" stroke-width="0.49438" points="1029.47,-176.934 1038.63,-171.595 1028.14,-170.062 1029.47,-176.934"/>
</g>
<!-- 6&#45;&gt;23 -->
<g id="edge18" class="edge"><title>6&#45;&gt;23</title>
<path fill="none" stroke="red" stroke-width="0.11464" d="M521.059,-226.357C525.474,-224.907 530.666,-223.283 535.417,-222 612.971,-201.057 705.981,-182.161 751.519,-173.306"/>
<polygon fill="red" stroke="red" stroke-width="0.11464" points="752.369,-176.707 761.524,-171.374 751.042,-169.834 752.369,-176.707"/>
</g>
<!-- 6&#45;&gt;16 -->
<g id="edge37" class="edge"><title>6&#45;&gt;16</title>
<path fill="none" stroke="green" stroke-width="0.425562" d="M504.404,-221.895C498.562,-214.021 489.417,-201.695 481.346,-190.817"/>
<polygon fill="green" stroke="green" stroke-width="0.425562" points="483.957,-188.462 475.188,-182.517 478.335,-192.633 483.957,-188.462"/>
</g>
<!-- 6&#45;&gt;22 -->
<g id="edge125" class="edge"><title>6&#45;&gt;22</title>
<path fill="none" stroke="green" stroke-width="0.185886" d="M520.717,-222.398C533.402,-213.035 555.308,-196.866 571.95,-184.583"/>
<polygon fill="green" stroke="green" stroke-width="0.185886" points="574.129,-187.325 580.097,-178.57 569.972,-181.693 574.129,-187.325"/>
</g>
<!-- 7 -->
<g id="node8" class="node"><title>7</title>
<polygon fill="lightgrey" stroke="black" points="651.667,-240 631.167,-240 631.167,-222 651.667,-222 651.667,-240"/>
<text text-anchor="middle" x="641.417" y="-228.8" font-family="Times,serif" font-size="9.00">7</text>
</g>
<!-- 7&#45;&gt;12 -->
<g id="edge3" class="edge"><title>7&#45;&gt;12</title>
<path fill="none" stroke="red" stroke-width="0.182732" d="M631.143,-226.634C625.89,-225.024 619.366,-223.192 613.417,-222 546.282,-208.551 352.916,-237.165 307.417,-186 296.194,-173.379 297.967,-161.997 307.417,-148 330.997,-113.075 381.341,-100.733 413.164,-96.3752"/>
<polygon fill="red" stroke="red" stroke-width="0.182732" points="413.665,-99.8404 423.181,-95.1822 412.837,-92.8895 413.665,-99.8404"/>
</g>
<!-- 7&#45;&gt;14 -->
<g id="edge98" class="edge"><title>7&#45;&gt;14</title>
<path fill="none" stroke="green" stroke-width="0.118282" d="M630.928,-227.35C613.999,-222.443 581.163,-210.165 567.417,-186 559.067,-171.32 557.83,-161.904 567.417,-148 592.953,-110.97 647.485,-99.3122 681.048,-95.6556"/>
<polygon fill="green" stroke="green" stroke-width="0.118282" points="681.507,-99.1283 691.144,-94.7275 680.866,-92.1576 681.507,-99.1283"/>
</g>
<!-- 7&#45;&gt;17 -->
<g id="edge67" class="edge"><title>7&#45;&gt;17</title>
<path fill="none" stroke="green" stroke-width="0.230689" d="M652.01,-228.164C683.856,-222.584 781.467,-205.039 861.417,-186 873.889,-183.03 887.581,-179.308 899.17,-176.021"/>
<polygon fill="green" stroke="green" stroke-width="0.230689" points="900.482,-179.285 909.125,-173.158 898.547,-172.558 900.482,-179.285"/>
</g>
<!-- 7&#45;&gt;20 -->
<g id="edge84" class="edge"><title>7&#45;&gt;20</title>
<path fill="none" stroke="red" stroke-width="0.13461" d="M651.835,-228.381C678.461,-224 750.824,-210.558 806.417,-186 808.016,-185.294 809.629,-184.503 811.228,-183.657"/>
<polygon fill="red" stroke="red" stroke-width="0.13461" points="813.251,-186.528 820.079,-178.426 809.689,-180.502 813.251,-186.528"/>
</g>
<!-- 7&#45;&gt;19 -->
<g id="edge9" class="edge"><title>7&#45;&gt;19</title>
<path fill="none" stroke="red" stroke-width="0.85444" d="M642.463,-221.895C643.34,-215.097 644.646,-204.981 645.889,-195.343"/>
<polygon fill="red" stroke="red" stroke-width="0.85444" points="649.383,-195.618 647.191,-185.252 642.44,-194.722 649.383,-195.618"/>
</g>
<!-- 7&#45;&gt;18 -->
<g id="edge54" class="edge"><title>7&#45;&gt;18</title>
<path fill="none" stroke="green" stroke-width="0.459983" d="M631.129,-226.704C625.872,-225.111 619.349,-223.274 613.417,-222 504.952,-198.71 471.421,-221.797 366.417,-186 363.646,-185.055 360.839,-183.87 358.098,-182.561"/>
<polygon fill="green" stroke="green" stroke-width="0.459983" points="359.653,-179.423 349.183,-177.803 356.357,-185.599 359.653,-179.423"/>
</g>
<!-- 7&#45;&gt;21 -->
<g id="edge39" class="edge"><title>7&#45;&gt;21</title>
<path fill="none" stroke="red" stroke-width="0.459851" d="M651.971,-228.37C662.663,-226.727 679.682,-224.136 694.417,-222 809.433,-205.327 838.603,-204.006 953.417,-186 978.921,-182 1007.87,-176.89 1028.57,-173.137"/>
<polygon fill="red" stroke="red" stroke-width="0.459851" points="1029.38,-176.548 1038.59,-171.311 1028.12,-169.662 1029.38,-176.548"/>
</g>
<!-- 7&#45;&gt;23 -->
<g id="edge130" class="edge"><title>7&#45;&gt;23</title>
<path fill="none" stroke="green" stroke-width="0.523595" d="M651.79,-225.34C673.283,-215.684 723.23,-193.244 753.879,-179.474"/>
<polygon fill="green" stroke="green" stroke-width="0.523595" points="755.405,-182.625 763.092,-175.335 752.536,-176.24 755.405,-182.625"/>
</g>
<!-- 7&#45;&gt;16 -->
<g id="edge115" class="edge"><title>7&#45;&gt;16</title>
<path fill="none" stroke="red" stroke-width="1.03359" d="M631.136,-226.399C604.19,-216.96 530.86,-191.274 491.027,-177.321"/>
<polygon fill="red" stroke="red" stroke-width="1.03359" points="492.033,-173.965 481.438,-173.962 489.719,-180.571 492.033,-173.965"/>
</g>
<!-- 7&#45;&gt;22 -->
<g id="edge23" class="edge"><title>7&#45;&gt;22</title>
<path fill="none" stroke="red" stroke-width="0.363571" d="M635.273,-221.895C629.166,-213.838 619.525,-201.121 611.143,-190.063"/>
<polygon fill="red" stroke="red" stroke-width="0.363571" points="613.887,-187.89 605.057,-182.035 608.309,-192.118 613.887,-187.89"/>
</g>
<!-- 8 -->
<g id="node9" class="node"><title>8</title>
<polygon fill="lightgrey" stroke="black" points="857.667,-240 837.167,-240 837.167,-222 857.667,-222 857.667,-240"/>
<text text-anchor="middle" x="847.417" y="-228.8" font-family="Times,serif" font-size="9.00">8</text>
</g>
<!-- 8&#45;&gt;14 -->
<g id="edge118" class="edge"><title>8&#45;&gt;14</title>
<path fill="none" stroke="green" stroke-width="0.320112" d="M857.784,-227.311C864.266,-225.674 872.801,-223.597 880.417,-222 925.257,-212.598 1053.99,-221.111 1083.42,-186 1094.27,-173.057 1094.7,-160.571 1083.42,-148 1034.01,-92.9258 824.063,-130.476 752.417,-112 746.493,-110.472 740.319,-108.277 734.558,-105.942"/>
<polygon fill="green" stroke="green" stroke-width="0.320112" points="735.938,-102.726 725.37,-101.974 733.163,-109.152 735.938,-102.726"/>
</g>
<!-- 8&#45;&gt;15 -->
<g id="edge11" class="edge"><title>8&#45;&gt;15</title>
<path fill="none" stroke="green" stroke-width="0.480741" d="M857.742,-227.088C864.208,-225.366 872.742,-223.279 880.417,-222 923.124,-214.881 1239.25,-217.998 1268.42,-186 1279.79,-173.518 1279.51,-160.739 1268.42,-148 1221.52,-94.1194 990.327,-92.3045 908.877,-93.3877"/>
<polygon fill="green" stroke="green" stroke-width="0.480741" points="908.785,-89.8887 898.842,-93.5467 908.896,-96.8878 908.785,-89.8887"/>
</g>
<!-- 8&#45;&gt;17 -->
<g id="edge141" class="edge"><title>8&#45;&gt;17</title>
<path fill="none" stroke="green" stroke-width="0.475132" d="M857.745,-221.895C869.532,-212.644 889.148,-197.249 904.404,-185.276"/>
<polygon fill="green" stroke="green" stroke-width="0.475132" points="906.648,-187.965 912.353,-179.037 902.326,-182.458 906.648,-187.965"/>
</g>
<!-- 8&#45;&gt;20 -->
<g id="edge121" class="edge"><title>8&#45;&gt;20</title>
<path fill="none" stroke="green" stroke-width="0.513554" d="M845.718,-221.895C844.293,-215.097 842.171,-204.981 840.151,-195.343"/>
<polygon fill="green" stroke="green" stroke-width="0.513554" points="843.513,-194.321 838.035,-185.252 836.662,-195.758 843.513,-194.321"/>
</g>
<!-- 8&#45;&gt;19 -->
<g id="edge74" class="edge"><title>8&#45;&gt;19</title>
<path fill="none" stroke="green" stroke-width="0.264313" d="M836.894,-225.594C833.856,-224.376 830.523,-223.09 827.417,-222 774.673,-203.489 711.877,-185.323 676.736,-175.498"/>
<polygon fill="green" stroke="green" stroke-width="0.264313" points="677.332,-172.031 666.76,-172.726 675.458,-178.775 677.332,-172.031"/>
</g>
<!-- 8&#45;&gt;21 -->
<g id="edge15" class="edge"><title>8&#45;&gt;21</title>
<path fill="none" stroke="green" stroke-width="0.870712" d="M857.694,-227.485C894.874,-218.38 1020.41,-187.592 1024.42,-186 1026.99,-184.977 1029.62,-183.781 1032.2,-182.502"/>
<polygon fill="green" stroke="green" stroke-width="0.870712" points="1034.06,-185.478 1041.21,-177.658 1030.74,-179.313 1034.06,-185.478"/>
</g>
<!-- 8&#45;&gt;23 -->
<g id="edge108" class="edge"><title>8&#45;&gt;23</title>
<path fill="none" stroke="green" stroke-width="0.316904" d="M838.528,-221.895C828.868,-213.088 813.1,-198.71 800.277,-187.02"/>
<polygon fill="green" stroke="green" stroke-width="0.316904" points="802.503,-184.313 792.756,-180.161 797.787,-189.485 802.503,-184.313"/>
</g>
<!-- 8&#45;&gt;16 -->
<g id="edge94" class="edge"><title>8&#45;&gt;16</title>
<path fill="none" stroke="green" stroke-width="0.222469" d="M836.992,-225.275C833.956,-224.052 830.598,-222.843 827.417,-222 714.652,-192.117 682.671,-204.044 567.417,-186 541.913,-182.007 512.959,-176.896 492.259,-173.141"/>
<polygon fill="green" stroke="green" stroke-width="0.222469" points="492.715,-169.666 482.249,-171.314 491.458,-176.552 492.715,-169.666"/>
</g>
<!-- 8&#45;&gt;22 -->
<g id="edge59" class="edge"><title>8&#45;&gt;22</title>
<path fill="none" stroke="red" stroke-width="0.314182" d="M836.972,-225.349C833.935,-224.127 830.583,-222.901 827.417,-222 738.443,-196.687 708.576,-219.674 622.417,-186 620.789,-185.364 619.155,-184.626 617.538,-183.821"/>
<polygon fill="red" stroke="red" stroke-width="0.314182" points="619.057,-180.656 608.647,-178.69 615.559,-186.719 619.057,-180.656"/>
</g>
<!-- 9 -->
<g id="node10" class="node"><title>9</title>
<polygon fill="lightgrey" stroke="black" points="565.667,-240 545.167,-240 545.167,-222 565.667,-222 565.667,-240"/>
<text text-anchor="middle" x="555.417" y="-228.8" font-family="Times,serif" font-size="9.00">9</text>
</g>
<!-- 9&#45;&gt;13 -->
<g id="edge57" class="edge"><title>9&#45;&gt;13</title>
<path fill="none" stroke="red" stroke-width="0.345865" d="M544.893,-226.347C540.202,-224.826 534.58,-223.151 529.417,-222 473.56,-209.546 311.949,-229.203 274.417,-186 249.531,-157.354 296.195,-79.549 303.417,-74 374,-19.7688 659.327,-18.4741 750.946,-19.5061"/>
<polygon fill="red" stroke="red" stroke-width="0.345865" points="751.086,-23.0082 761.131,-19.6401 751.178,-16.0088 751.086,-23.0082"/>
</g>
<!-- 9&#45;&gt;14 -->
<g id="edge12" class="edge"><title>9&#45;&gt;14</title>
<path fill="none" stroke="red" stroke-width="0.715004" d="M544.886,-226.377C540.194,-224.862 534.573,-223.183 529.417,-222 478.138,-210.233 329.675,-225.931 295.417,-186 284.42,-173.182 284.274,-160.691 295.417,-148 320.926,-118.948 591.465,-100.814 680.899,-95.5779"/>
<polygon fill="red" stroke="red" stroke-width="0.715004" points="681.331,-99.0589 691.113,-94.9902 680.929,-92.0705 681.331,-99.0589"/>
</g>
<!-- 9&#45;&gt;17 -->
<g id="edge123" class="edge"><title>9&#45;&gt;17</title>
<path fill="none" stroke="green" stroke-width="0.592808" d="M565.69,-225.072C568.469,-223.906 571.513,-222.778 574.417,-222 698.597,-188.746 735.361,-211.221 861.417,-186 873.988,-183.485 887.695,-179.829 899.268,-176.468"/>
<polygon fill="green" stroke="green" stroke-width="0.592808" points="900.619,-179.717 909.201,-173.505 898.618,-173.009 900.619,-179.717"/>
</g>
<!-- 9&#45;&gt;20 -->
<g id="edge50" class="edge"><title>9&#45;&gt;20</title>
<path fill="none" stroke="green" stroke-width="0.341402" d="M565.706,-225.129C568.485,-223.963 571.525,-222.82 574.417,-222 674.807,-193.542 708.859,-223.016 806.417,-186 808.052,-185.38 809.691,-184.655 811.311,-183.859"/>
<polygon fill="green" stroke="green" stroke-width="0.341402" points="813.28,-186.764 820.212,-178.751 809.796,-180.693 813.28,-186.764"/>
</g>
<!-- 9&#45;&gt;19 -->
<g id="edge35" class="edge"><title>9&#45;&gt;19</title>
<path fill="none" stroke="green" stroke-width="0.324976" d="M565.836,-223.128C580.279,-213.602 606.783,-196.12 626.083,-183.39"/>
<polygon fill="green" stroke="green" stroke-width="0.324976" points="628.214,-186.178 634.635,-177.75 624.36,-180.335 628.214,-186.178"/>
</g>
<!-- 9&#45;&gt;18 -->
<g id="edge77" class="edge"><title>9&#45;&gt;18</title>
<path fill="none" stroke="red" stroke-width="0.724828" d="M544.847,-226.535C540.148,-225.049 534.532,-223.349 529.417,-222 457.681,-203.075 435.723,-212.474 366.417,-186 363.827,-185.011 361.193,-183.838 358.605,-182.572"/>
<polygon fill="red" stroke="red" stroke-width="0.724828" points="360.061,-179.382 349.594,-177.746 356.756,-185.552 360.061,-179.382"/>
</g>
<!-- 9&#45;&gt;23 -->
<g id="edge61" class="edge"><title>9&#45;&gt;23</title>
<path fill="none" stroke="red" stroke-width="0.866066" d="M565.769,-225.331C568.547,-224.163 571.571,-222.969 574.417,-222 636.653,-200.819 711.843,-182.906 751.611,-174.013"/>
<polygon fill="red" stroke="red" stroke-width="0.866066" points="752.611,-177.376 761.619,-171.798 751.099,-170.541 752.611,-177.376"/>
</g>
<!-- 9&#45;&gt;16 -->
<g id="edge17" class="edge"><title>9&#45;&gt;16</title>
<path fill="none" stroke="red" stroke-width="0.478565" d="M544.978,-222.888C531.097,-213.43 506.168,-196.445 487.705,-183.866"/>
<polygon fill="red" stroke="red" stroke-width="0.478565" points="489.472,-180.835 479.237,-178.097 485.531,-186.62 489.472,-180.835"/>
</g>
<!-- 9&#45;&gt;22 -->
<g id="edge110" class="edge"><title>9&#45;&gt;22</title>
<path fill="none" stroke="green" stroke-width="0.478024" d="M560.516,-221.895C565.355,-214.201 572.868,-202.258 579.592,-191.568"/>
<polygon fill="green" stroke="green" stroke-width="0.478024" points="582.618,-193.332 584.98,-183.004 576.692,-189.605 582.618,-193.332"/>
</g>
<!-- 10 -->
<g id="node11" class="node"><title>10</title>
<polygon fill="lightgrey" stroke="black" points="1047.42,-240 1021.42,-240 1021.42,-222 1047.42,-222 1047.42,-240"/>
<text text-anchor="middle" x="1034.42" y="-228.8" font-family="Times,serif" font-size="9.00">10</text>
</g>
<!-- 10&#45;&gt;13 -->
<g id="edge14" class="edge"><title>10&#45;&gt;13</title>
<path fill="none" stroke="red" stroke-width="0.114539" d="M1047.7,-229.576C1114.31,-227.317 1409.82,-215.667 1436.42,-186 1447.69,-173.425 1442.77,-163.647 1436.42,-148 1419.15,-105.486 1405.82,-93.7764 1364.42,-74 1264.18,-26.128 911.022,-20.6267 807.893,-20.0506"/>
<polygon fill="red" stroke="red" stroke-width="0.114539" points="807.655,-16.5496 797.64,-20.0054 807.624,-23.5496 807.655,-16.5496"/>
</g>
<!-- 10&#45;&gt;14 -->
<g id="edge31" class="edge"><title>10&#45;&gt;14</title>
<path fill="none" stroke="red" stroke-width="0.824155" d="M1047.73,-229.013C1071.19,-226.472 1119.4,-217.486 1140.42,-186 1149.8,-171.954 1151.79,-160.482 1140.42,-148 1082.08,-84.0039 836.435,-132.96 752.417,-112 746.482,-110.519 740.302,-108.343 734.54,-106.012"/>
<polygon fill="red" stroke="red" stroke-width="0.824155" points="735.922,-102.797 725.354,-102.037 733.142,-109.221 735.922,-102.797"/>
</g>
<!-- 10&#45;&gt;15 -->
<g id="edge73" class="edge"><title>10&#45;&gt;15</title>
<path fill="none" stroke="green" stroke-width="0.310806" d="M1047.57,-229.514C1112.19,-226.995 1394.06,-214.425 1419.42,-186 1430.66,-173.398 1430.75,-160.523 1419.42,-148 1384.91,-109.862 1015.79,-97.4722 909.128,-94.6746"/>
<polygon fill="green" stroke="green" stroke-width="0.310806" points="908.902,-91.1678 898.817,-94.4129 908.724,-98.1655 908.902,-91.1678"/>
</g>
<!-- 10&#45;&gt;17 -->
<g id="edge1" class="edge"><title>10&#45;&gt;17</title>
<path fill="none" stroke="red" stroke-width="0.188968" d="M1021.17,-222.398C1003.63,-212.325 972.358,-194.374 950.558,-181.859"/>
<polygon fill="red" stroke="red" stroke-width="0.188968" points="952.278,-178.81 941.862,-176.867 948.792,-184.881 952.278,-178.81"/>
</g>
<!-- 10&#45;&gt;20 -->
<g id="edge65" class="edge"><title>10&#45;&gt;20</title>
<path fill="none" stroke="red" stroke-width="0.95761" d="M1021.29,-225.932C988.952,-215.906 904.89,-189.847 861.385,-176.36"/>
<polygon fill="red" stroke="red" stroke-width="0.95761" points="862.339,-172.991 851.751,-173.373 860.266,-179.678 862.339,-172.991"/>
</g>
<!-- 10&#45;&gt;19 -->
<g id="edge52" class="edge"><title>10&#45;&gt;19</title>
<path fill="none" stroke="green" stroke-width="0.62886" d="M1021.19,-228.024C980.845,-221.977 855.813,-203.099 752.417,-186 726.948,-181.788 697.99,-176.701 677.28,-173.011"/>
<polygon fill="green" stroke="green" stroke-width="0.62886" points="677.724,-169.535 667.264,-171.22 676.492,-176.425 677.724,-169.535"/>
</g>
<!-- 10&#45;&gt;21 -->
<g id="edge114" class="edge"><title>10&#45;&gt;21</title>
<path fill="none" stroke="green" stroke-width="0.594051" d="M1037.29,-221.895C1039.81,-214.805 1043.61,-204.105 1047.16,-194.103"/>
<polygon fill="green" stroke="green" stroke-width="0.594051" points="1050.52,-195.087 1050.57,-184.493 1043.92,-192.747 1050.52,-195.087"/>
</g>
<!-- 10&#45;&gt;23 -->
<g id="edge21" class="edge"><title>10&#45;&gt;23</title>
<path fill="none" stroke="red" stroke-width="0.407088" d="M1021.31,-228.127C979.124,-221.993 847.284,-201.988 807.417,-186 805.795,-185.349 804.165,-184.601 802.552,-183.787"/>
<polygon fill="red" stroke="red" stroke-width="0.407088" points="804.074,-180.625 793.668,-178.636 800.563,-186.68 804.074,-180.625"/>
</g>
<!-- 11 -->
<g id="node12" class="node"><title>11</title>
<polygon fill="lightgrey" stroke="black" points="960.417,-240 934.417,-240 934.417,-222 960.417,-222 960.417,-240"/>
<text text-anchor="middle" x="947.417" y="-228.8" font-family="Times,serif" font-size="9.00">11</text>
</g>
<!-- 11&#45;&gt;12 -->
<g id="edge144" class="edge"><title>11&#45;&gt;12</title>
<path fill="none" stroke="red" stroke-width="0.138063" d="M960.858,-228.251C995.266,-223.47 1085.05,-208.987 1102.42,-186 1112.6,-172.525 1113.86,-160.419 1102.42,-148 1099.69,-145.037 595.782,-105.925 469.739,-96.185"/>
<polygon fill="red" stroke="red" stroke-width="0.138063" points="469.942,-92.6904 459.703,-95.4099 469.403,-99.6697 469.942,-92.6904"/>
</g>
<!-- 11&#45;&gt;13 -->
<g id="edge96" class="edge"><title>11&#45;&gt;13</title>
<path fill="none" stroke="red" stroke-width="0.624485" d="M960.598,-228.243C973.719,-226.527 994.439,-223.901 1012.42,-222 1057.56,-217.226 1388.76,-219.486 1419.42,-186 1430.82,-173.543 1427.39,-162.891 1419.42,-148 1391.44,-95.7244 1364.22,-94.0446 1308.42,-74 1214.72,-40.3422 903.395,-25.0676 807.669,-21.0916"/>
<polygon fill="red" stroke="red" stroke-width="0.624485" points="807.72,-17.5909 797.587,-20.6818 807.436,-24.5851 807.72,-17.5909"/>
</g>
<!-- 11&#45;&gt;14 -->
<g id="edge76" class="edge"><title>11&#45;&gt;14</title>
<path fill="none" stroke="green" stroke-width="0.121542" d="M960.57,-228.721C997.603,-224.823 1101.37,-211.754 1121.42,-186 1131.79,-172.674 1132.77,-160.509 1121.42,-148 1066.06,-86.979 832.309,-132.132 752.417,-112 746.485,-110.505 740.307,-108.324 734.545,-105.991"/>
<polygon fill="green" stroke="green" stroke-width="0.121542" points="735.927,-102.776 725.359,-102.018 733.148,-109.2 735.927,-102.776"/>
</g>
<!-- 11&#45;&gt;15 -->
<g id="edge34" class="edge"><title>11&#45;&gt;15</title>
<path fill="none" stroke="red" stroke-width="0.15786" d="M960.6,-228.259C973.722,-226.554 994.443,-223.937 1012.42,-222 1055.57,-217.348 1372.17,-218.076 1401.42,-186 1412.8,-173.52 1412.73,-160.543 1401.42,-148 1368.19,-111.147 1012.86,-97.881 908.859,-94.7715"/>
<polygon fill="red" stroke="red" stroke-width="0.15786" points="908.885,-91.2708 898.787,-94.4789 908.682,-98.2679 908.885,-91.2708"/>
</g>
<!-- 11&#45;&gt;17 -->
<g id="edge148" class="edge"><title>11&#45;&gt;17</title>
<path fill="none" stroke="red" stroke-width="0.185317" d="M944.672,-221.895C942.287,-214.854 938.697,-204.253 935.329,-194.311"/>
<polygon fill="red" stroke="red" stroke-width="0.185317" points="938.612,-193.094 932.089,-184.745 931.982,-195.339 938.612,-193.094"/>
</g>
<!-- 11&#45;&gt;20 -->
<g id="edge64" class="edge"><title>11&#45;&gt;20</title>
<path fill="none" stroke="red" stroke-width="0.323215" d="M934.011,-222.644C915.513,-212.495 881.843,-194.021 858.817,-181.388"/>
<polygon fill="red" stroke="red" stroke-width="0.323215" points="860.425,-178.277 849.974,-176.535 857.057,-184.414 860.425,-178.277"/>
</g>
<!-- 11&#45;&gt;19 -->
<g id="edge81" class="edge"><title>11&#45;&gt;19</title>
<path fill="none" stroke="red" stroke-width="0.217921" d="M934.37,-226.035C929.678,-224.672 924.331,-223.191 919.417,-222 831.555,-200.699 726.154,-181.399 677.08,-172.769"/>
<polygon fill="red" stroke="red" stroke-width="0.217921" points="677.67,-169.319 667.217,-171.045 676.465,-176.215 677.67,-169.319"/>
</g>
<!-- 11&#45;&gt;18 -->
<g id="edge128" class="edge"><title>11&#45;&gt;18</title>
<path fill="none" stroke="green" stroke-width="0.182768" d="M934.16,-225.613C929.541,-224.246 924.295,-222.87 919.417,-222 707.933,-184.297 650.593,-212.522 437.417,-186 411.799,-182.813 382.858,-177.612 362.192,-173.618"/>
<polygon fill="green" stroke="green" stroke-width="0.182768" points="362.687,-170.149 352.2,-171.657 361.339,-177.018 362.687,-170.149"/>
</g>
<!-- 11&#45;&gt;21 -->
<g id="edge20" class="edge"><title>11&#45;&gt;21</title>
<path fill="none" stroke="red" stroke-width="0.299333" d="M960.783,-222.398C978.491,-212.325 1010.05,-194.374 1032.05,-181.859"/>
<polygon fill="red" stroke="red" stroke-width="0.299333" points="1033.87,-184.853 1040.83,-176.867 1030.41,-178.769 1033.87,-184.853"/>
</g>
<!-- 11&#45;&gt;23 -->
<g id="edge113" class="edge"><title>11&#45;&gt;23</title>
<path fill="none" stroke="green" stroke-width="0.902238" d="M934.37,-226.116C901.904,-216.421 819.243,-191.537 807.417,-186 805.834,-185.259 804.234,-184.441 802.644,-183.576"/>
<polygon fill="green" stroke="green" stroke-width="0.902238" points="804.194,-180.425 793.816,-178.295 800.601,-186.433 804.194,-180.425"/>
</g>
<!-- 17&#45;&gt;12 -->
<g id="edge66" class="edge"><title>17&#45;&gt;12</title>
<path fill="none" stroke="red" stroke-width="0.188942" d="M909.198,-160.51C896.19,-156.539 877.831,-151.31 861.417,-148 715.671,-118.606 538.08,-101.953 469.921,-96.2551"/>
<polygon fill="red" stroke="red" stroke-width="0.188942" points="469.832,-92.7361 459.579,-95.405 469.259,-99.7125 469.832,-92.7361"/>
</g>
<!-- 17&#45;&gt;13 -->
<g id="edge22" class="edge"><title>17&#45;&gt;13</title>
<path fill="none" stroke="red" stroke-width="0.251883" d="M927.39,-148.366C927.556,-128.178 924.808,-95.1733 907.417,-74 882.331,-43.4568 836.911,-29.8894 807.47,-24.08"/>
<polygon fill="red" stroke="red" stroke-width="0.251883" points="807.874,-20.5967 797.413,-22.2736 806.637,-27.4865 807.874,-20.5967"/>
</g>
<!-- 17&#45;&gt;14 -->
<g id="edge129" class="edge"><title>17&#45;&gt;14</title>
<path fill="none" stroke="green" stroke-width="0.426642" d="M908.947,-161.177C877.386,-152.333 808.897,-132.532 752.417,-112 746.903,-109.995 741.063,-107.682 735.525,-105.397"/>
<polygon fill="green" stroke="green" stroke-width="0.426642" points="736.59,-102.047 726.016,-101.384 733.868,-108.497 736.59,-102.047"/>
</g>
<!-- 17&#45;&gt;15 -->
<g id="edge83" class="edge"><title>17&#45;&gt;15</title>
<path fill="none" stroke="red" stroke-width="0.20228" d="M916.886,-151.082C910.718,-141.428 902.555,-128.651 895.516,-117.633"/>
<polygon fill="red" stroke="red" stroke-width="0.20228" points="898.27,-115.442 889.936,-108.899 892.371,-119.211 898.27,-115.442"/>
</g>
<!-- 20&#45;&gt;13 -->
<g id="edge131" class="edge"><title>20&#45;&gt;13</title>
<path fill="none" stroke="green" stroke-width="0.4754" d="M830.188,-149.089C825.305,-130.41 816.624,-99.5872 806.417,-74 802.44,-64.0286 797.323,-53.3923 792.616,-44.2193"/>
<polygon fill="green" stroke="green" stroke-width="0.4754" points="795.67,-42.5065 787.923,-35.2789 789.471,-45.76 795.67,-42.5065"/>
</g>
<!-- 20&#45;&gt;14 -->
<g id="edge24" class="edge"><title>20&#45;&gt;14</title>
<path fill="none" stroke="red" stroke-width="0.379902" d="M819.414,-156.108C815.24,-153.423 810.681,-150.554 806.417,-148 782.261,-133.531 754.085,-117.99 734.345,-107.313"/>
<polygon fill="red" stroke="red" stroke-width="0.379902" points="735.85,-104.148 725.386,-102.488 732.531,-110.311 735.85,-104.148"/>
</g>
<!-- 20&#45;&gt;15 -->
<g id="edge68" class="edge"><title>20&#45;&gt;15</title>
<path fill="none" stroke="red" stroke-width="0.284373" d="M843.949,-151.082C850.116,-141.428 858.279,-128.651 865.318,-117.633"/>
<polygon fill="red" stroke="red" stroke-width="0.284373" points="868.464,-119.211 870.898,-108.899 862.565,-115.442 868.464,-119.211"/>
</g>
<!-- 19&#45;&gt;12 -->
<g id="edge127" class="edge"><title>19&#45;&gt;12</title>
<path fill="none" stroke="green" stroke-width="0.712088" d="M635.037,-155.666C630.789,-152.918 626.037,-150.126 621.417,-148 569.762,-124.222 505.007,-107.791 468.934,-99.7245"/>
<polygon fill="green" stroke="green" stroke-width="0.712088" points="469.647,-96.2978 459.13,-97.5812 468.152,-103.136 469.647,-96.2978"/>
</g>
<!-- 19&#45;&gt;13 -->
<g id="edge4" class="edge"><title>19&#45;&gt;13</title>
<path fill="none" stroke="green" stroke-width="0.263411" d="M651.897,-148.566C655.525,-128.565 663.974,-95.7371 682.417,-74 701.041,-52.051 730.948,-37.3331 752.635,-28.8794"/>
<polygon fill="green" stroke="green" stroke-width="0.263411" points="754.075,-32.0787 762.243,-25.3304 751.65,-25.5123 754.075,-32.0787"/>
</g>
<!-- 19&#45;&gt;14 -->
<g id="edge6" class="edge"><title>19&#45;&gt;14</title>
<path fill="none" stroke="red" stroke-width="0.443314" d="M660.703,-152.457C669.419,-141.998 681.643,-127.329 691.666,-115.302"/>
<polygon fill="red" stroke="red" stroke-width="0.443314" points="694.469,-117.405 698.182,-107.482 689.092,-112.924 694.469,-117.405"/>
</g>
<!-- 18&#45;&gt;12 -->
<g id="edge86" class="edge"><title>18&#45;&gt;12</title>
<path fill="none" stroke="red" stroke-width="0.399043" d="M349.295,-155.989C367.183,-143.952 397.404,-123.617 418.33,-109.536"/>
<polygon fill="red" stroke="red" stroke-width="0.399043" points="420.323,-112.413 426.666,-103.926 416.415,-106.605 420.323,-112.413"/>
</g>
<!-- 18&#45;&gt;13 -->
<g id="edge133" class="edge"><title>18&#45;&gt;13</title>
<path fill="none" stroke="green" stroke-width="0.462284" d="M342.968,-150.622C355.603,-129.505 381.371,-92.0948 414.417,-74 472.656,-42.1111 675.922,-26.4579 751.144,-21.6568"/>
<polygon fill="green" stroke="green" stroke-width="0.462284" points="751.517,-25.1404 761.28,-21.0265 751.082,-18.1539 751.517,-25.1404"/>
</g>
<!-- 18&#45;&gt;15 -->
<g id="edge41" class="edge"><title>18&#45;&gt;15</title>
<path fill="none" stroke="red" stroke-width="0.248677" d="M352.217,-162.467C372.699,-158.5 407.378,-152.084 437.417,-148 600.694,-125.801 643.957,-139.542 806.417,-112 821.999,-109.358 839.163,-105.259 853.035,-101.64"/>
<polygon fill="red" stroke="red" stroke-width="0.248677" points="854.163,-104.961 862.92,-98.9975 852.355,-98.1987 854.163,-104.961"/>
</g>
<!-- 21&#45;&gt;12 -->
<g id="edge10" class="edge"><title>21&#45;&gt;12</title>
<path fill="none" stroke="green" stroke-width="0.506627" d="M1038.61,-162.509C1018.12,-158.581 983.44,-152.202 953.417,-148 769.913,-122.319 547.862,-102.82 470.027,-96.3306"/>
<polygon fill="green" stroke="green" stroke-width="0.506627" points="469.866,-92.8054 459.611,-95.4684 469.288,-99.7815 469.866,-92.8054"/>
</g>
<!-- 21&#45;&gt;13 -->
<g id="edge116" class="edge"><title>21&#45;&gt;13</title>
<path fill="none" stroke="green" stroke-width="0.405834" d="M1042.94,-154.107C1020.78,-135.054 974.699,-97.4523 930.417,-74 889.302,-52.2247 837.522,-35.868 806.52,-27.1344"/>
<polygon fill="green" stroke="green" stroke-width="0.405834" points="807.419,-23.7517 796.848,-24.468 805.558,-30.5 807.419,-23.7517"/>
</g>
<!-- 21&#45;&gt;15 -->
<g id="edge25" class="edge"><title>21&#45;&gt;15</title>
<path fill="none" stroke="red" stroke-width="0.315693" d="M1041.04,-156.721C1035.85,-153.759 1029.97,-150.582 1024.42,-148 984.574,-129.457 936.439,-112.436 907.144,-102.645"/>
<polygon fill="red" stroke="red" stroke-width="0.315693" points="908.206,-99.3097 897.612,-99.4927 906.008,-105.956 908.206,-99.3097"/>
</g>
<!-- 23&#45;&gt;14 -->
<g id="edge138" class="edge"><title>23&#45;&gt;14</title>
<path fill="none" stroke="red" stroke-width="0.286631" d="M766.903,-153.128C756.351,-142.275 741.072,-126.559 728.917,-114.057"/>
<polygon fill="red" stroke="red" stroke-width="0.286631" points="731.304,-111.491 721.824,-106.761 726.285,-116.37 731.304,-111.491"/>
</g>
<!-- 23&#45;&gt;15 -->
<g id="edge92" class="edge"><title>23&#45;&gt;15</title>
<path fill="none" stroke="green" stroke-width="0.457825" d="M793.888,-155.684C810.538,-143.815 838.091,-124.173 857.629,-110.245"/>
<polygon fill="green" stroke="green" stroke-width="0.457825" points="859.862,-112.951 865.973,-104.297 855.799,-107.252 859.862,-112.951"/>
</g>
<!-- 24 -->
<g id="node25" class="node"><title>24</title>
<ellipse fill="none" stroke="black" cx="779.417" cy="-93" rx="18.0791" ry="18.2703"/>
<text text-anchor="middle" x="779.417" y="-90.8" font-family="Times,serif" font-size="9.00">24</text>
</g>
<!-- 23&#45;&gt;24 -->
<g id="edge56" class="edge"><title>23&#45;&gt;24</title>
<path fill="none" stroke="green" stroke-width="0.586078" d="M779.417,-148.571C779.417,-140.494 779.417,-130.7 779.417,-121.651"/>
<polygon fill="green" stroke="green" stroke-width="0.586078" points="782.917,-121.518 779.417,-111.518 775.917,-121.518 782.917,-121.518"/>
</g>
<!-- 16&#45;&gt;12 -->
<g id="edge146" class="edge"><title>16&#45;&gt;12</title>
<path fill="none" stroke="red" stroke-width="0.719743" d="M459.083,-149.301C456.325,-140.668 452.896,-129.932 449.794,-120.224"/>
<polygon fill="red" stroke="red" stroke-width="0.719743" points="453.1,-119.069 446.723,-110.609 446.432,-121.199 453.1,-119.069"/>
</g>
<!-- 16&#45;&gt;13 -->
<g id="edge36" class="edge"><title>16&#45;&gt;13</title>
<path fill="none" stroke="red" stroke-width="0.775192" d="M479.141,-156.099C506.472,-138.026 567.291,-99.234 622.417,-74 666.45,-53.8439 720.308,-36.8859 752.129,-27.6096"/>
<polygon fill="red" stroke="red" stroke-width="0.775192" points="753.386,-30.8903 762.03,-24.7647 751.453,-24.1625 753.386,-30.8903"/>
</g>
<!-- 16&#45;&gt;14 -->
<g id="edge78" class="edge"><title>16&#45;&gt;14</title>
<path fill="none" stroke="green" stroke-width="0.292156" d="M479.634,-156.357C484.815,-153.371 490.735,-150.272 496.417,-148 560.449,-122.4 640.254,-106.029 681.631,-98.6172"/>
<polygon fill="green" stroke="green" stroke-width="0.292156" points="682.281,-102.057 691.528,-96.8853 681.074,-95.1617 682.281,-102.057"/>
</g>
<!-- 16&#45;&gt;15 -->
<g id="edge124" class="edge"><title>16&#45;&gt;15</title>
<path fill="none" stroke="green" stroke-width="0.793857" d="M479.15,-156.099C484.394,-153.019 490.476,-149.929 496.417,-148 628.339,-105.159 669.883,-136.438 806.417,-112 821.974,-109.216 839.137,-105.107 853.013,-101.518"/>
<polygon fill="green" stroke="green" stroke-width="0.793857" points="854.129,-104.843 862.904,-98.9053 852.341,-98.0756 854.129,-104.843"/>
</g>
<!-- 22&#45;&gt;12 -->
<g id="edge28" class="edge"><title>22&#45;&gt;12</title>
<path fill="none" stroke="green" stroke-width="0.295073" d="M578.044,-158.295C551.356,-145.736 498.296,-120.766 466.727,-105.911"/>
<polygon fill="green" stroke="green" stroke-width="0.295073" points="468.212,-102.741 457.673,-101.65 465.231,-109.075 468.212,-102.741"/>
</g>
<!-- 22&#45;&gt;13 -->
<g id="edge70" class="edge"><title>22&#45;&gt;13</title>
<path fill="none" stroke="green" stroke-width="0.656472" d="M602.06,-150.026C612.375,-129.931 632.486,-95.4617 658.417,-74 686.422,-50.8223 725.958,-35.683 752.119,-27.4897"/>
<polygon fill="green" stroke="green" stroke-width="0.656472" points="753.201,-30.8194 761.772,-24.5915 751.188,-24.1151 753.201,-30.8194"/>
</g>
<!-- 22&#45;&gt;14 -->
<g id="edge89" class="edge"><title>22&#45;&gt;14</title>
<path fill="none" stroke="red" stroke-width="0.178648" d="M609.502,-156.241C613.677,-153.557 618.216,-150.654 622.417,-148 643.595,-134.622 667.817,-119.611 685.316,-108.818"/>
<polygon fill="red" stroke="red" stroke-width="0.178648" points="687.606,-111.518 694.284,-103.293 683.934,-105.558 687.606,-111.518"/>
</g>
<!-- 22&#45;&gt;15 -->
<g id="edge136" class="edge"><title>22&#45;&gt;15</title>
<path fill="none" stroke="red" stroke-width="0.573436" d="M608.67,-155.37C612.916,-152.617 617.699,-149.897 622.417,-148 699.731,-116.916 725.024,-129.852 806.417,-112 821.855,-108.614 839.009,-104.466 852.911,-101.005"/>
<polygon fill="red" stroke="red" stroke-width="0.573436" points="853.979,-104.346 862.826,-98.5171 852.275,-97.5565 853.979,-104.346"/>
</g>
<!-- 24&#45;&gt;13 -->
<g id="edge107" class="edge"><title>24&#45;&gt;13</title>
<path fill="none" stroke="red" stroke-width="0.16298" d="M779.417,-74.5708C779.417,-66.4942 779.417,-56.7004 779.417,-47.6514"/>
<polygon fill="red" stroke="red" stroke-width="0.16298" points="782.917,-47.5182 779.417,-37.5182 775.917,-47.5183 782.917,-47.5182"/>
</g>
</g>
</svg>
