<?xml version="1.0" encoding="UTF-8" standalone="no"?>
<!DOCTYPE svg PUBLIC "-//W3C//DTD SVG 1.1//EN"
 "http://www.w3.org/Graphics/SVG/1.1/DTD/svg11.dtd">
<!-- Generated by graphviz version 2.36.0 (20140111.2315)
 -->
<!-- Title: %3 Pages: 1 -->
<svg width="2800pt" height="248pt"
 viewBox="0.00 0.00 2800.24 248.00" xmlns="http://www.w3.org/2000/svg" xmlns:xlink="http://www.w3.org/1999/xlink">
<g id="graph0" class="graph" transform="scale(1 1) rotate(0) translate(4 244)">
<title>%3</title>
<polygon fill="white" stroke="none" points="-4,4 -4,-244 2796.24,-244 2796.24,4 -4,4"/>
<!-- 0 -->
<g id="node1" class="node"><title>0</title>
<polygon fill="lightgrey" stroke="black" points="1563.05,-240 1542.55,-240 1542.55,-222 1563.05,-222 1563.05,-240"/>
<text text-anchor="middle" x="1552.8" y="-228.8" font-family="Times,serif" font-size="9.00">0</text>
</g>
<!-- 12 -->
<g id="node13" class="node"><title>12</title>
<ellipse fill="lightblue" stroke="lightblue" cx="1358.8" cy="-19" rx="18.0791" ry="18.2703"/>
<text text-anchor="middle" x="1358.8" y="-16.8" font-family="Times,serif" font-size="9.00">12</text>
</g>
<!-- 0&#45;&gt;12 -->
<g id="edge117" class="edge"><title>0&#45;&gt;12</title>
<path fill="none" stroke="red" stroke-width="0.63908" d="M1563.06,-225.024C1565.84,-223.858 1568.89,-222.742 1571.8,-222 1726.77,-182.534 1771.17,-206.215 1929.8,-186 2146.68,-158.363 2559.37,-232.516 2408.8,-74 2372.63,-35.9165 1552.41,-22.6589 1387.52,-20.3742"/>
<polygon fill="red" stroke="red" stroke-width="0.63908" points="1387.26,-16.8704 1377.21,-20.2339 1387.16,-23.8697 1387.26,-16.8704"/>
</g>
<!-- 13 -->
<g id="node14" class="node"><title>13</title>
<ellipse fill="lightblue" stroke="lightblue" cx="2107.8" cy="-19" rx="18.0791" ry="18.2703"/>
<text text-anchor="middle" x="2107.8" y="-16.8" font-family="Times,serif" font-size="9.00">13</text>
</g>
<!-- 0&#45;&gt;13 -->
<g id="edge175" class="edge"><title>0&#45;&gt;13</title>
<path fill="none" stroke="red" stroke-width="0.47034" stroke-dasharray="1,5" d="M1563.44,-224.773C1566.11,-223.671 1569.01,-222.647 1571.8,-222 1818.86,-164.655 2541.78,-303.738 2707.8,-112 2718.86,-99.2322 2719.2,-86.466 2707.8,-74 2668.8,-31.3254 2249.54,-22.0838 2136.01,-20.3576"/>
<polygon fill="red" stroke="red" stroke-width="0.47034" points="2136.05,-16.8579 2126,-20.2131 2135.95,-23.8572 2136.05,-16.8579"/>
</g>
<!-- 14 -->
<g id="node15" class="node"><title>14</title>
<ellipse fill="lightblue" stroke="lightblue" cx="1297.8" cy="-19" rx="18.0791" ry="18.2703"/>
<text text-anchor="middle" x="1297.8" y="-16.8" font-family="Times,serif" font-size="9.00">14</text>
</g>
<!-- 0&#45;&gt;14 -->
<g id="edge52" class="edge"><title>0&#45;&gt;14</title>
<path fill="none" stroke="green" stroke-width="0.357207" d="M1563.08,-225.093C1565.86,-223.927 1568.9,-222.793 1571.8,-222 1686.02,-190.754 1738.43,-253.39 1835.8,-186 1879.27,-155.92 1911.92,-112.59 1875.8,-74 1834.41,-29.7742 1390.08,-54.5362 1331.8,-38 1328.52,-37.0702 1325.2,-35.7964 1321.99,-34.3527"/>
<polygon fill="green" stroke="green" stroke-width="0.357207" points="1323.3,-31.092 1312.79,-29.6855 1320.13,-37.3336 1323.3,-31.092"/>
</g>
<!-- 15 -->
<g id="node16" class="node"><title>15</title>
<ellipse fill="lightblue" stroke="lightblue" cx="1225.8" cy="-19" rx="18.0791" ry="18.2703"/>
<text text-anchor="middle" x="1225.8" y="-16.8" font-family="Times,serif" font-size="9.00">15</text>
</g>
<!-- 0&#45;&gt;15 -->
<g id="edge102" class="edge"><title>0&#45;&gt;15</title>
<path fill="none" stroke="green" stroke-width="0.710573" d="M1563.15,-225.333C1565.93,-224.165 1568.96,-222.97 1571.8,-222 1630.98,-201.819 1669.66,-235.548 1707.8,-186 1743.88,-139.13 1651.31,-74.827 1649.8,-74 1575.57,-33.4131 1353.03,-57.913 1270.8,-38 1264.36,-36.4403 1257.63,-34.1369 1251.38,-31.6949"/>
<polygon fill="green" stroke="green" stroke-width="0.710573" points="1252.68,-28.4417 1242.1,-27.8304 1249.99,-34.9043 1252.68,-28.4417"/>
</g>
<!-- 17 -->
<g id="node17" class="node"><title>17</title>
<ellipse fill="none" stroke="black" cx="1236.8" cy="-167" rx="18.0791" ry="18.2703"/>
<text text-anchor="middle" x="1236.8" y="-164.8" font-family="Times,serif" font-size="9.00">17</text>
</g>
<!-- 0&#45;&gt;17 -->
<g id="edge13" class="edge"><title>0&#45;&gt;17</title>
<path fill="none" stroke="green" stroke-width="0.548339" d="M1542.35,-225.363C1539.32,-224.141 1535.96,-222.911 1532.8,-222 1519.88,-218.278 1336.21,-185.602 1264.86,-172.962"/>
<polygon fill="green" stroke="green" stroke-width="0.548339" points="1265.25,-169.478 1254.8,-171.181 1264.03,-176.37 1265.25,-169.478"/>
</g>
<!-- 20 -->
<g id="node18" class="node"><title>20</title>
<ellipse fill="none" stroke="black" cx="1106.8" cy="-167" rx="18.0791" ry="18.2703"/>
<text text-anchor="middle" x="1106.8" y="-164.8" font-family="Times,serif" font-size="9.00">20</text>
</g>
<!-- 0&#45;&gt;20 -->
<g id="edge2" class="edge"><title>0&#45;&gt;20</title>
<path fill="none" stroke="green" stroke-width="0.286489" d="M1542.39,-225.22C1539.35,-223.996 1535.99,-222.801 1532.8,-222 1392.7,-186.859 1352.79,-206.443 1209.8,-186 1184.25,-182.346 1155.3,-177.197 1134.61,-173.342"/>
<polygon fill="green" stroke="green" stroke-width="0.286489" points="1135.09,-169.869 1124.61,-171.458 1133.79,-176.749 1135.09,-169.869"/>
</g>
<!-- 19 -->
<g id="node19" class="node"><title>19</title>
<ellipse fill="none" stroke="black" cx="1225.8" cy="-93" rx="18.0791" ry="18.2703"/>
<text text-anchor="middle" x="1225.8" y="-90.8" font-family="Times,serif" font-size="9.00">19</text>
</g>
<!-- 0&#45;&gt;19 -->
<g id="edge122" class="edge"><title>0&#45;&gt;19</title>
<path fill="none" stroke="green" stroke-width="0.528668" d="M1563.18,-225.405C1565.96,-224.236 1568.97,-223.023 1571.8,-222 1623.36,-203.337 1657.17,-230.067 1689.8,-186 1699.85,-172.427 1701.03,-160.614 1689.8,-148 1660.69,-115.303 1350.58,-99.3461 1254.21,-95.1517"/>
<polygon fill="green" stroke="green" stroke-width="0.528668" points="1254.19,-91.6477 1244.05,-94.7189 1253.89,-98.6413 1254.19,-91.6477"/>
</g>
<!-- 22 -->
<g id="node20" class="node"><title>22</title>
<ellipse fill="none" stroke="black" cx="1458.8" cy="-167" rx="18.0791" ry="18.2703"/>
<text text-anchor="middle" x="1458.8" y="-164.8" font-family="Times,serif" font-size="9.00">22</text>
</g>
<!-- 0&#45;&gt;22 -->
<g id="edge112" class="edge"><title>0&#45;&gt;22</title>
<path fill="none" stroke="red" stroke-width="0.38406" d="M1542.38,-223.128C1527.94,-213.602 1501.44,-196.12 1482.14,-183.39"/>
<polygon fill="red" stroke="red" stroke-width="0.38406" points="1483.86,-180.335 1473.58,-177.75 1480,-186.178 1483.86,-180.335"/>
</g>
<!-- 21 -->
<g id="node21" class="node"><title>21</title>
<ellipse fill="none" stroke="black" cx="1051.8" cy="-167" rx="18.0791" ry="18.2703"/>
<text text-anchor="middle" x="1051.8" y="-164.8" font-family="Times,serif" font-size="9.00">21</text>
</g>
<!-- 0&#45;&gt;21 -->
<g id="edge59" class="edge"><title>0&#45;&gt;21</title>
<path fill="none" stroke="red" stroke-width="0.379249" d="M1542.41,-225.155C1539.37,-223.93 1536.01,-222.75 1532.8,-222 1336.15,-175.975 1271.18,-250.552 1079.8,-186 1078.15,-185.441 1076.49,-184.763 1074.86,-184.002"/>
<polygon fill="red" stroke="red" stroke-width="0.379249" points="1076.36,-180.83 1065.92,-178.981 1072.93,-186.932 1076.36,-180.83"/>
</g>
<!-- 18 -->
<g id="node22" class="node"><title>18</title>
<ellipse fill="none" stroke="black" cx="1366.8" cy="-167" rx="18.0791" ry="18.2703"/>
<text text-anchor="middle" x="1366.8" y="-164.8" font-family="Times,serif" font-size="9.00">18</text>
</g>
<!-- 0&#45;&gt;18 -->
<g id="edge66" class="edge"><title>0&#45;&gt;18</title>
<path fill="none" stroke="red" stroke-width="0.186256" d="M1542.26,-225.634C1539.23,-224.416 1535.9,-223.121 1532.8,-222 1484.46,-204.492 1427.3,-186.475 1394.23,-176.312"/>
<polygon fill="red" stroke="red" stroke-width="0.186256" points="1394.96,-172.878 1384.38,-173.299 1392.92,-179.572 1394.96,-172.878"/>
</g>
<!-- 23 -->
<g id="node23" class="node"><title>23</title>
<ellipse fill="none" stroke="black" cx="1643.8" cy="-167" rx="18.0791" ry="18.2703"/>
<text text-anchor="middle" x="1643.8" y="-164.8" font-family="Times,serif" font-size="9.00">23</text>
</g>
<!-- 0&#45;&gt;23 -->
<g id="edge168" class="edge"><title>0&#45;&gt;23</title>
<path fill="none" stroke="green" stroke-width="0.624149" d="M1563.24,-222.888C1577.12,-213.43 1602.05,-196.445 1620.51,-183.866"/>
<polygon fill="green" stroke="green" stroke-width="0.624149" points="1622.69,-186.62 1628.98,-178.097 1618.75,-180.835 1622.69,-186.62"/>
</g>
<!-- 16 -->
<g id="node24" class="node"><title>16</title>
<ellipse fill="none" stroke="black" cx="1513.8" cy="-167" rx="18.0791" ry="18.2703"/>
<text text-anchor="middle" x="1513.8" y="-164.8" font-family="Times,serif" font-size="9.00">16</text>
</g>
<!-- 0&#45;&gt;16 -->
<g id="edge134" class="edge"><title>0&#45;&gt;16</title>
<path fill="none" stroke="red" stroke-width="0.403053" stroke-dasharray="1,5" d="M1547.7,-221.895C1542.86,-214.201 1535.35,-202.258 1528.63,-191.568"/>
<polygon fill="red" stroke="red" stroke-width="0.403053" points="1531.53,-189.605 1523.24,-183.004 1525.6,-193.332 1531.53,-189.605"/>
</g>
<!-- 1 -->
<g id="node2" class="node"><title>1</title>
<polygon fill="lightgrey" stroke="black" points="1062.05,-240 1041.55,-240 1041.55,-222 1062.05,-222 1062.05,-240"/>
<text text-anchor="middle" x="1051.8" y="-228.8" font-family="Times,serif" font-size="9.00">1</text>
</g>
<!-- 1&#45;&gt;12 -->
<g id="edge33" class="edge"><title>1&#45;&gt;12</title>
<path fill="none" stroke="red" stroke-width="0.807537" d="M1041.41,-225.126C1038.38,-223.9 1035.01,-222.728 1031.8,-222 972.075,-208.46 523.668,-230.696 481.802,-186 470.256,-173.674 473.895,-162.924 481.802,-148 509.213,-96.2588 535.27,-92.5699 590.802,-74 745.678,-22.2083 1167.32,-81.2369 1324.8,-38 1328.09,-37.0982 1331.41,-35.8413 1334.63,-34.4066"/>
<polygon fill="red" stroke="red" stroke-width="0.807537" points="1336.49,-37.3894 1343.83,-29.7463 1333.32,-31.1457 1336.49,-37.3894"/>
</g>
<!-- 1&#45;&gt;13 -->
<g id="edge158" class="edge"><title>1&#45;&gt;13</title>
<path fill="none" stroke="red" stroke-width="0.523058" d="M1041.42,-225.58C1027.81,-219.139 1004.5,-205.747 994.802,-186 985.084,-166.222 991.18,-83.3169 1000.8,-74 1020.78,-54.6507 1908.27,-26.1862 2079.41,-20.8714"/>
<polygon fill="red" stroke="red" stroke-width="0.523058" points="2079.53,-24.3695 2089.42,-20.5617 2079.31,-17.3728 2079.53,-24.3695"/>
</g>
<!-- 1&#45;&gt;14 -->
<g id="edge103" class="edge"><title>1&#45;&gt;14</title>
<path fill="none" stroke="green" stroke-width="0.905022" d="M1041.42,-225.082C1038.39,-223.855 1035.02,-222.693 1031.8,-222 943.084,-202.877 278.545,-251.572 215.802,-186 204.125,-173.797 204.866,-160.871 215.802,-148 292.382,-57.8619 1233.81,-42.2669 1252.8,-38 1259.27,-36.5476 1266.01,-34.2854 1272.25,-31.8492"/>
<polygon fill="green" stroke="green" stroke-width="0.905022" points="1273.66,-35.0552 1281.54,-27.9688 1270.96,-28.5969 1273.66,-35.0552"/>
</g>
<!-- 1&#45;&gt;15 -->
<g id="edge53" class="edge"><title>1&#45;&gt;15</title>
<path fill="none" stroke="red" stroke-width="0.287973" d="M1041.42,-225.074C1038.39,-223.848 1035.02,-222.687 1031.8,-222 983.3,-211.641 174.157,-221.77 139.802,-186 128.103,-173.819 130.023,-161.77 139.802,-148 197.583,-66.6313 253.969,-93.7064 351.802,-74 519.227,-40.2755 1066.01,-24.1525 1197.28,-20.7125"/>
<polygon fill="red" stroke="red" stroke-width="0.287973" points="1197.44,-24.2096 1207.35,-20.4524 1197.26,-17.212 1197.44,-24.2096"/>
</g>
<!-- 1&#45;&gt;17 -->
<g id="edge5" class="edge"><title>1&#45;&gt;17</title>
<path fill="none" stroke="red" stroke-width="0.234602" d="M1062.19,-225.44C1064.97,-224.271 1067.98,-223.049 1070.8,-222 1118.98,-204.057 1176.2,-186.182 1209.32,-176.164"/>
<polygon fill="red" stroke="red" stroke-width="0.234602" points="1210.62,-179.429 1219.19,-173.197 1208.6,-172.725 1210.62,-179.429"/>
</g>
<!-- 1&#45;&gt;20 -->
<g id="edge96" class="edge"><title>1&#45;&gt;20</title>
<path fill="none" stroke="red" stroke-width="0.705731" d="M1058.99,-221.895C1066.3,-213.654 1077.94,-200.536 1087.9,-189.305"/>
<polygon fill="red" stroke="red" stroke-width="0.705731" points="1090.76,-191.362 1094.77,-181.558 1085.52,-186.716 1090.76,-191.362"/>
</g>
<!-- 1&#45;&gt;19 -->
<g id="edge68" class="edge"><title>1&#45;&gt;19</title>
<path fill="none" stroke="red" stroke-width="0.255015" d="M1041.19,-224.195C1029.28,-217.009 1010.63,-203.542 1002.8,-186 995.922,-170.576 992.359,-161.273 1002.8,-148 1026.76,-117.549 1143.07,-102.196 1197.55,-96.5781"/>
<polygon fill="red" stroke="red" stroke-width="0.255015" points="1197.97,-100.054 1207.57,-95.5828 1197.28,-93.0879 1197.97,-100.054"/>
</g>
<!-- 1&#45;&gt;22 -->
<g id="edge172" class="edge"><title>1&#45;&gt;22</title>
<path fill="none" stroke="green" stroke-width="0.729245" d="M1062.07,-225.045C1064.85,-223.879 1067.89,-222.758 1070.8,-222 1210.58,-185.598 1251.97,-213.361 1393.8,-186 1406.39,-183.572 1420.1,-179.928 1431.67,-176.553"/>
<polygon fill="green" stroke="green" stroke-width="0.729245" points="1433.03,-179.799 1441.6,-173.571 1431.01,-173.095 1433.03,-179.799"/>
</g>
<!-- 1&#45;&gt;21 -->
<g id="edge48" class="edge"><title>1&#45;&gt;21</title>
<path fill="none" stroke="green" stroke-width="0.290445" d="M1051.8,-221.895C1051.8,-215.145 1051.8,-205.124 1051.8,-195.548"/>
<polygon fill="green" stroke="green" stroke-width="0.290445" points="1055.3,-195.508 1051.8,-185.508 1048.3,-195.508 1055.3,-195.508"/>
</g>
<!-- 1&#45;&gt;18 -->
<g id="edge124" class="edge"><title>1&#45;&gt;18</title>
<path fill="none" stroke="red" stroke-width="0.425161" d="M1062.1,-225.181C1064.88,-224.015 1067.92,-222.858 1070.8,-222 1083.69,-218.162 1267.38,-185.557 1338.74,-172.949"/>
<polygon fill="red" stroke="red" stroke-width="0.425161" points="1339.56,-176.357 1348.8,-171.172 1338.35,-169.464 1339.56,-176.357"/>
</g>
<!-- 1&#45;&gt;23 -->
<g id="edge115" class="edge"><title>1&#45;&gt;23</title>
<path fill="none" stroke="red" stroke-width="0.672443" d="M1062.45,-224.811C1065.12,-223.707 1068.02,-222.674 1070.8,-222 1274.42,-172.713 1332.93,-212.063 1540.8,-186 1566.42,-182.788 1595.36,-177.59 1616.03,-173.604"/>
<polygon fill="red" stroke="red" stroke-width="0.672443" points="1616.88,-177.004 1626.02,-171.647 1615.53,-170.134 1616.88,-177.004"/>
</g>
<!-- 1&#45;&gt;16 -->
<g id="edge61" class="edge"><title>1&#45;&gt;16</title>
<path fill="none" stroke="red" stroke-width="0.235931" d="M1062.05,-224.997C1064.83,-223.832 1067.88,-222.722 1070.8,-222 1250.52,-177.538 1310.59,-245.806 1485.8,-186 1487.46,-185.435 1489.11,-184.753 1490.74,-183.988"/>
<polygon fill="red" stroke="red" stroke-width="0.235931" points="1492.68,-186.916 1499.67,-178.959 1489.24,-180.817 1492.68,-186.916"/>
</g>
<!-- 2 -->
<g id="node3" class="node"><title>2</title>
<polygon fill="lightgrey" stroke="black" points="1477.05,-240 1456.55,-240 1456.55,-222 1477.05,-222 1477.05,-240"/>
<text text-anchor="middle" x="1466.8" y="-228.8" font-family="Times,serif" font-size="9.00">2</text>
</g>
<!-- 2&#45;&gt;12 -->
<g id="edge55" class="edge"><title>2&#45;&gt;12</title>
<path fill="none" stroke="red" stroke-width="0.585705" d="M1477.2,-226.395C1482.17,-224.807 1488.23,-223.065 1493.8,-222 1537.63,-213.62 1863.69,-218.938 1893.8,-186 1905.2,-173.534 1902.74,-162.331 1893.8,-148 1838.77,-59.743 1490.09,-29.0086 1387.29,-21.8032"/>
<polygon fill="red" stroke="red" stroke-width="0.585705" points="1387.27,-18.2941 1377.06,-21.1077 1386.8,-25.278 1387.27,-18.2941"/>
</g>
<!-- 2&#45;&gt;13 -->
<g id="edge106" class="edge"><title>2&#45;&gt;13</title>
<path fill="none" stroke="red" stroke-width="0.658833" d="M1477.19,-226.385C1482.16,-224.796 1488.23,-223.054 1493.8,-222 1677.02,-187.337 1726.16,-203.533 1911.8,-186 1951.83,-182.219 2604.86,-141.851 2631.8,-112 2643.12,-99.4621 2643.12,-86.5394 2631.8,-74 2598.33,-36.906 2240.21,-23.793 2136.06,-20.7483"/>
<polygon fill="red" stroke="red" stroke-width="0.658833" points="2136.08,-17.2475 2125.98,-20.4623 2135.88,-24.2447 2136.08,-17.2475"/>
</g>
<!-- 2&#45;&gt;14 -->
<g id="edge118" class="edge"><title>2&#45;&gt;14</title>
<path fill="none" stroke="green" stroke-width="0.5859" d="M1477.26,-226.67C1482.24,-225.143 1488.3,-223.372 1493.8,-222 1649.14,-183.269 1749.64,-246.285 1836.8,-112 1846,-97.8337 1848.31,-86.3595 1836.8,-74 1798.46,-32.8328 1385.88,-53.4937 1331.8,-38 1328.53,-37.0618 1325.21,-35.7831 1321.99,-34.3367"/>
<polygon fill="green" stroke="green" stroke-width="0.5859" points="1323.3,-31.0761 1312.8,-29.6674 1320.13,-37.317 1323.3,-31.0761"/>
</g>
<!-- 2&#45;&gt;15 -->
<g id="edge176" class="edge"><title>2&#45;&gt;15</title>
<path fill="none" stroke="green" stroke-width="0.360295" stroke-dasharray="1,5" d="M1477.29,-227.35C1494.22,-222.443 1527.06,-210.165 1540.8,-186 1570.3,-134.141 1519.62,-101.737 1466.8,-74 1388.39,-32.8244 1355.89,-62.5681 1270.8,-38 1264.44,-36.1619 1257.73,-33.7514 1251.49,-31.2945"/>
<polygon fill="green" stroke="green" stroke-width="0.360295" points="1252.77,-28.038 1242.19,-27.4712 1250.11,-34.5119 1252.77,-28.038"/>
</g>
<!-- 2&#45;&gt;17 -->
<g id="edge30" class="edge"><title>2&#45;&gt;17</title>
<path fill="none" stroke="green" stroke-width="0.284679" stroke-dasharray="1,5" d="M1456.44,-226.994C1451.17,-225.476 1444.65,-223.617 1438.8,-222 1376.6,-204.801 1303.37,-185.447 1264.43,-175.226"/>
<polygon fill="green" stroke="green" stroke-width="0.284679" points="1264.95,-171.745 1254.39,-172.594 1263.18,-178.516 1264.95,-171.745"/>
</g>
<!-- 2&#45;&gt;20 -->
<g id="edge116" class="edge"><title>2&#45;&gt;20</title>
<path fill="none" stroke="green" stroke-width="0.218623" d="M1456.51,-226.732C1451.25,-225.146 1444.73,-223.307 1438.8,-222 1338.19,-199.807 1311.44,-202.869 1209.8,-186 1184.33,-181.773 1155.38,-176.688 1134.67,-173.002"/>
<polygon fill="green" stroke="green" stroke-width="0.218623" points="1135.11,-169.526 1124.65,-171.214 1133.88,-176.417 1135.11,-169.526"/>
</g>
<!-- 2&#45;&gt;19 -->
<g id="edge100" class="edge"><title>2&#45;&gt;19</title>
<path fill="none" stroke="green" stroke-width="0.254165" d="M1456.49,-227.08C1429.99,-219.474 1360.17,-198.756 1339.8,-186 1319.56,-173.324 1320.05,-163.416 1301.8,-148 1285.06,-133.853 1264.76,-119.562 1249.36,-109.239"/>
<polygon fill="green" stroke="green" stroke-width="0.254165" points="1251.19,-106.252 1240.92,-103.65 1247.32,-112.089 1251.19,-106.252"/>
</g>
<!-- 2&#45;&gt;22 -->
<g id="edge7" class="edge"><title>2&#45;&gt;22</title>
<path fill="none" stroke="red" stroke-width="0.816509" stroke-dasharray="1,5" d="M1465.76,-221.895C1464.88,-215.097 1463.57,-204.981 1462.33,-195.343"/>
<polygon fill="red" stroke="red" stroke-width="0.816509" points="1465.78,-194.722 1461.03,-185.252 1458.84,-195.618 1465.78,-194.722"/>
</g>
<!-- 2&#45;&gt;21 -->
<g id="edge173" class="edge"><title>2&#45;&gt;21</title>
<path fill="none" stroke="green" stroke-width="0.675055" stroke-dasharray="1,5" d="M1456.54,-226.591C1451.28,-224.97 1444.76,-223.141 1438.8,-222 1281.3,-191.854 1231.21,-238.817 1079.8,-186 1078.15,-185.424 1076.5,-184.733 1074.87,-183.962"/>
<polygon fill="green" stroke="green" stroke-width="0.675055" points="1076.37,-180.792 1065.95,-178.917 1072.93,-186.885 1076.37,-180.792"/>
</g>
<!-- 2&#45;&gt;18 -->
<g id="edge50" class="edge"><title>2&#45;&gt;18</title>
<path fill="none" stroke="green" stroke-width="0.609536" d="M1456.48,-223.598C1441.09,-214.058 1411.71,-195.842 1390.77,-182.861"/>
<polygon fill="green" stroke="green" stroke-width="0.609536" points="1392.45,-179.782 1382.1,-177.487 1388.76,-185.731 1392.45,-179.782"/>
</g>
<!-- 2&#45;&gt;23 -->
<g id="edge62" class="edge"><title>2&#45;&gt;23</title>
<path fill="none" stroke="green" stroke-width="0.627772" d="M1477.15,-226.926C1509.26,-217.384 1605.36,-188.75 1611.8,-186 1614.35,-184.911 1616.96,-183.673 1619.53,-182.367"/>
<polygon fill="green" stroke="green" stroke-width="0.627772" points="1621.4,-185.334 1628.52,-177.489 1618.06,-179.181 1621.4,-185.334"/>
</g>
<!-- 2&#45;&gt;16 -->
<g id="edge154" class="edge"><title>2&#45;&gt;16</title>
<path fill="none" stroke="red" stroke-width="0.327098" d="M1472.95,-221.895C1479.05,-213.838 1488.69,-201.121 1497.08,-190.063"/>
<polygon fill="red" stroke="red" stroke-width="0.327098" points="1499.91,-192.118 1503.16,-182.035 1494.33,-187.89 1499.91,-192.118"/>
</g>
<!-- 3 -->
<g id="node4" class="node"><title>3</title>
<polygon fill="lightgrey" stroke="black" points="1524.05,-240 1503.55,-240 1503.55,-222 1524.05,-222 1524.05,-240"/>
<text text-anchor="middle" x="1513.8" y="-228.8" font-family="Times,serif" font-size="9.00">3</text>
</g>
<!-- 3&#45;&gt;12 -->
<g id="edge32" class="edge"><title>3&#45;&gt;12</title>
<path fill="none" stroke="green" stroke-width="0.184922" d="M1524.06,-225.013C1526.84,-223.848 1529.89,-222.734 1532.8,-222 1614.84,-201.347 1854.88,-248.587 1911.8,-186 1923.17,-173.506 1919.29,-163.137 1911.8,-148 1887.75,-99.4016 1865.06,-94.3535 1814.8,-74 1736.32,-42.2189 1474.13,-26.0004 1387.13,-21.3991"/>
<polygon fill="green" stroke="green" stroke-width="0.184922" points="1387.12,-17.8942 1376.96,-20.8722 1386.76,-24.8849 1387.12,-17.8942"/>
</g>
<!-- 3&#45;&gt;13 -->
<g id="edge157" class="edge"><title>3&#45;&gt;13</title>
<path fill="none" stroke="green" stroke-width="0.222711" d="M1524.43,-224.741C1527.1,-223.64 1530.01,-222.625 1532.8,-222 1910.91,-137.481 2021.08,-246.319 2403.8,-186 2418.95,-183.612 2660.52,-124.214 2669.8,-112 2680.02,-98.5523 2681.16,-86.5003 2669.8,-74 2633.6,-34.1518 2245.6,-22.9274 2136.31,-20.5456"/>
<polygon fill="green" stroke="green" stroke-width="0.222711" points="2136.13,-17.0412 2126.06,-20.3307 2135.98,-24.0397 2136.13,-17.0412"/>
</g>
<!-- 3&#45;&gt;14 -->
<g id="edge137" class="edge"><title>3&#45;&gt;14</title>
<path fill="none" stroke="red" stroke-width="1.12352" d="M1524.08,-225.093C1526.86,-223.927 1529.9,-222.793 1532.8,-222 1647.02,-190.754 1694.08,-244.92 1796.8,-186 1845.43,-158.109 1893.05,-114.976 1854.8,-74 1815.05,-31.4213 1387.82,-53.9748 1331.8,-38 1328.53,-37.0658 1325.21,-35.7895 1321.99,-34.3444"/>
<polygon fill="red" stroke="red" stroke-width="1.12352" points="1323.3,-31.0837 1312.8,-29.6761 1320.13,-37.325 1323.3,-31.0837"/>
</g>
<!-- 3&#45;&gt;15 -->
<g id="edge83" class="edge"><title>3&#45;&gt;15</title>
<path fill="none" stroke="green" stroke-width="1.04106" d="M1524.13,-225.268C1526.91,-224.101 1529.94,-222.923 1532.8,-222 1600.93,-200.027 1645.19,-241.993 1689.8,-186 1700.32,-172.79 1699.19,-162.039 1689.8,-148 1582.78,12.0483 1456.63,-88.37 1270.8,-38 1264.41,-36.2664 1257.69,-33.8961 1251.45,-31.4448"/>
<polygon fill="green" stroke="green" stroke-width="1.04106" points="1252.74,-28.1896 1242.16,-27.6061 1250.06,-34.6593 1252.74,-28.1896"/>
</g>
<!-- 3&#45;&gt;17 -->
<g id="edge57" class="edge"><title>3&#45;&gt;17</title>
<path fill="none" stroke="red" stroke-width="0.459555" d="M1503.47,-226.876C1498.21,-225.327 1491.69,-223.477 1485.8,-222 1406,-201.968 1310.7,-182.537 1264.56,-173.41"/>
<polygon fill="red" stroke="red" stroke-width="0.459555" points="1265.2,-169.967 1254.71,-171.469 1263.84,-176.835 1265.2,-169.967"/>
</g>
<!-- 3&#45;&gt;20 -->
<g id="edge140" class="edge"><title>3&#45;&gt;20</title>
<path fill="none" stroke="green" stroke-width="0.457267" d="M1503.52,-226.666C1498.27,-225.064 1491.74,-223.229 1485.8,-222 1364.66,-196.939 1332.09,-204.652 1209.8,-186 1184.28,-182.108 1155.33,-176.985 1134.63,-173.2"/>
<polygon fill="green" stroke="green" stroke-width="0.457267" points="1135.09,-169.726 1124.63,-171.357 1133.83,-176.61 1135.09,-169.726"/>
</g>
<!-- 3&#45;&gt;19 -->
<g id="edge163" class="edge"><title>3&#45;&gt;19</title>
<path fill="none" stroke="green" stroke-width="0.456871" d="M1524.15,-225.326C1526.93,-224.158 1529.95,-222.965 1532.8,-222 1592.83,-201.649 1632.05,-236.16 1670.8,-186 1681.13,-172.635 1682,-160.641 1670.8,-148 1643.06,-116.692 1348.07,-99.8849 1254.27,-95.3032"/>
<polygon fill="green" stroke="green" stroke-width="0.456871" points="1254.26,-91.7987 1244.1,-94.8163 1253.92,-98.7907 1254.26,-91.7987"/>
</g>
<!-- 3&#45;&gt;22 -->
<g id="edge71" class="edge"><title>3&#45;&gt;22</title>
<path fill="none" stroke="green" stroke-width="1.03692" d="M1506.61,-221.895C1499.3,-213.654 1487.66,-200.536 1477.7,-189.305"/>
<polygon fill="green" stroke="green" stroke-width="1.03692" points="1480.08,-186.716 1470.83,-181.558 1474.85,-191.362 1480.08,-186.716"/>
</g>
<!-- 3&#45;&gt;21 -->
<g id="edge86" class="edge"><title>3&#45;&gt;21</title>
<path fill="none" stroke="green" stroke-width="0.426874" d="M1503.54,-226.562C1498.29,-224.933 1491.77,-223.106 1485.8,-222 1307.69,-188.968 1251.19,-244.682 1079.8,-186 1078.15,-185.434 1076.49,-184.75 1074.86,-183.984"/>
<polygon fill="green" stroke="green" stroke-width="0.426874" points="1076.36,-180.813 1065.93,-178.953 1072.93,-186.912 1076.36,-180.813"/>
</g>
<!-- 3&#45;&gt;18 -->
<g id="edge38" class="edge"><title>3&#45;&gt;18</title>
<path fill="none" stroke="green" stroke-width="0.399355" d="M1503.23,-225.541C1480.32,-215.879 1425.53,-192.769 1392.78,-178.955"/>
<polygon fill="green" stroke="green" stroke-width="0.399355" points="1393.95,-175.653 1383.38,-174.992 1391.23,-182.103 1393.95,-175.653"/>
</g>
<!-- 3&#45;&gt;23 -->
<g id="edge18" class="edge"><title>3&#45;&gt;23</title>
<path fill="none" stroke="red" stroke-width="0.563083" d="M1524.07,-225.528C1545.71,-216.089 1595.32,-194.316 1611.8,-186 1614.28,-184.751 1616.84,-183.407 1619.38,-182.036"/>
<polygon fill="red" stroke="red" stroke-width="0.563083" points="1621.28,-184.984 1628.33,-177.075 1617.89,-178.861 1621.28,-184.984"/>
</g>
<!-- 3&#45;&gt;16 -->
<g id="edge108" class="edge"><title>3&#45;&gt;16</title>
<path fill="none" stroke="red" stroke-width="0.338021" d="M1513.8,-221.895C1513.8,-215.145 1513.8,-205.124 1513.8,-195.548"/>
<polygon fill="red" stroke="red" stroke-width="0.338021" points="1517.3,-195.508 1513.8,-185.508 1510.3,-195.508 1517.3,-195.508"/>
</g>
<!-- 4 -->
<g id="node5" class="node"><title>4</title>
<polygon fill="lightgrey" stroke="black" points="1235.05,-240 1214.55,-240 1214.55,-222 1235.05,-222 1235.05,-240"/>
<text text-anchor="middle" x="1224.8" y="-228.8" font-family="Times,serif" font-size="9.00">4</text>
</g>
<!-- 4&#45;&gt;12 -->
<g id="edge54" class="edge"><title>4&#45;&gt;12</title>
<path fill="none" stroke="green" stroke-width="0.154815" stroke-dasharray="1,5" d="M1214.5,-227.223C1208.48,-225.63 1200.73,-223.63 1193.8,-222 1119.05,-204.401 1081.21,-238.114 1024.8,-186 987.541,-151.575 968.982,-111.811 1002.8,-74 1050.8,-20.3334 1256,-59.2173 1324.8,-38 1328.06,-36.9962 1331.36,-35.678 1334.57,-34.2105"/>
<polygon fill="green" stroke="green" stroke-width="0.154815" points="1336.44,-37.1865 1343.76,-29.5251 1333.26,-30.9507 1336.44,-37.1865"/>
</g>
<!-- 4&#45;&gt;13 -->
<g id="edge105" class="edge"><title>4&#45;&gt;13</title>
<path fill="none" stroke="green" stroke-width="0.839405" d="M1235.18,-229.084C1284.15,-224.743 1496.84,-205.631 1670.8,-186 1803.91,-170.978 1836.54,-161.663 1969.8,-148 2020.91,-142.76 2395.91,-149.718 2430.8,-112 2442.27,-99.6016 2441.71,-86.8893 2430.8,-74 2393.06,-29.4265 2207.86,-21.6172 2136.19,-20.2711"/>
<polygon fill="green" stroke="green" stroke-width="0.839405" points="2136.14,-16.77 2126.09,-20.1108 2136.03,-23.7691 2136.14,-16.77"/>
</g>
<!-- 4&#45;&gt;14 -->
<g id="edge160" class="edge"><title>4&#45;&gt;14</title>
<path fill="none" stroke="red" stroke-width="0.31843" d="M1214.54,-227.04C1208.53,-225.386 1200.78,-223.386 1193.8,-222 1137.45,-210.805 975.489,-229.359 937.802,-186 926.722,-173.253 934.862,-164.631 937.802,-148 943.895,-113.525 937.418,-95.8131 964.802,-74 1015.25,-33.8139 1190.35,-54.1089 1252.8,-38 1259.22,-36.345 1265.94,-34.0049 1272.18,-31.5579"/>
<polygon fill="red" stroke="red" stroke-width="0.31843" points="1273.58,-34.77 1281.47,-27.7074 1270.89,-28.3036 1273.58,-34.77"/>
</g>
<!-- 4&#45;&gt;15 -->
<g id="edge36" class="edge"><title>4&#45;&gt;15</title>
<path fill="none" stroke="red" stroke-width="0.667452" stroke-dasharray="1,5" d="M1214.55,-226.957C1208.55,-225.276 1200.8,-223.276 1193.8,-222 1120.79,-208.694 911.367,-241.231 861.802,-186 760.646,-73.283 1095.9,-32.1485 1197.51,-22.4308"/>
<polygon fill="red" stroke="red" stroke-width="0.667452" points="1198.02,-25.8987 1207.66,-21.4917 1197.38,-18.9285 1198.02,-25.8987"/>
</g>
<!-- 4&#45;&gt;17 -->
<g id="edge73" class="edge"><title>4&#45;&gt;17</title>
<path fill="none" stroke="green" stroke-width="0.143419" d="M1226.37,-221.895C1227.69,-215.097 1229.64,-204.981 1231.51,-195.343"/>
<polygon fill="green" stroke="green" stroke-width="0.143419" points="1235,-195.735 1233.46,-185.252 1228.13,-194.405 1235,-195.735"/>
</g>
<!-- 4&#45;&gt;20 -->
<g id="edge166" class="edge"><title>4&#45;&gt;20</title>
<path fill="none" stroke="green" stroke-width="0.415903" d="M1214.33,-224.498C1195.92,-214.827 1157.3,-194.535 1131.71,-181.087"/>
<polygon fill="green" stroke="green" stroke-width="0.415903" points="1133.09,-177.858 1122.61,-176.305 1129.83,-184.055 1133.09,-177.858"/>
</g>
<!-- 4&#45;&gt;19 -->
<g id="edge8" class="edge"><title>4&#45;&gt;19</title>
<path fill="none" stroke="red" stroke-width="0.38165" stroke-dasharray="1,5" d="M1221.08,-221.777C1217.38,-213.092 1211.94,-198.898 1209.8,-186 1207.04,-169.338 1207.38,-164.714 1209.8,-148 1211.13,-138.819 1213.68,-129.027 1216.35,-120.337"/>
<polygon fill="red" stroke="red" stroke-width="0.38165" points="1219.7,-121.337 1219.48,-110.744 1213.05,-119.164 1219.7,-121.337"/>
</g>
<!-- 4&#45;&gt;22 -->
<g id="edge89" class="edge"><title>4&#45;&gt;22</title>
<path fill="none" stroke="green" stroke-width="1.17371" d="M1235.1,-227.377C1261.51,-220.639 1333.78,-202.124 1393.8,-186 1406.18,-182.674 1419.86,-178.901 1431.47,-175.671"/>
<polygon fill="green" stroke="green" stroke-width="1.17371" points="1432.75,-178.946 1441.44,-172.886 1430.87,-172.204 1432.75,-178.946"/>
</g>
<!-- 4&#45;&gt;21 -->
<g id="edge42" class="edge"><title>4&#45;&gt;21</title>
<path fill="none" stroke="green" stroke-width="0.173165" d="M1214.46,-227.262C1185.61,-219.562 1104.76,-197.535 1079.8,-186 1078.21,-185.267 1076.61,-184.455 1075.02,-183.594"/>
<polygon fill="green" stroke="green" stroke-width="0.173165" points="1076.57,-180.442 1066.19,-178.325 1072.98,-186.454 1076.57,-180.442"/>
</g>
<!-- 4&#45;&gt;18 -->
<g id="edge128" class="edge"><title>4&#45;&gt;18</title>
<path fill="none" stroke="green" stroke-width="0.128804" d="M1235.47,-225.34C1257.71,-215.633 1309.53,-193.007 1341.02,-179.257"/>
<polygon fill="green" stroke="green" stroke-width="0.128804" points="1342.7,-182.341 1350.47,-175.132 1339.9,-175.926 1342.7,-182.341"/>
</g>
<!-- 4&#45;&gt;23 -->
<g id="edge143" class="edge"><title>4&#45;&gt;23</title>
<path fill="none" stroke="green" stroke-width="0.524058" d="M1235.19,-228.687C1274.9,-223.637 1420.96,-204.809 1540.8,-186 1566.3,-181.997 1595.26,-176.887 1615.96,-173.135"/>
<polygon fill="green" stroke="green" stroke-width="0.524058" points="1616.76,-176.547 1625.97,-171.31 1615.5,-169.66 1616.76,-176.547"/>
</g>
<!-- 4&#45;&gt;16 -->
<g id="edge21" class="edge"><title>4&#45;&gt;16</title>
<path fill="none" stroke="green" stroke-width="0.264523" d="M1235.15,-229.736C1271.06,-228.517 1393.23,-221.816 1485.8,-186 1487.43,-185.369 1489.07,-184.636 1490.69,-183.834"/>
<polygon fill="green" stroke="green" stroke-width="0.264523" points="1492.66,-186.735 1499.58,-178.711 1489.17,-180.669 1492.66,-186.735"/>
</g>
<!-- 5 -->
<g id="node6" class="node"><title>5</title>
<polygon fill="lightgrey" stroke="black" points="1140.05,-240 1119.55,-240 1119.55,-222 1140.05,-222 1140.05,-240"/>
<text text-anchor="middle" x="1129.8" y="-228.8" font-family="Times,serif" font-size="9.00">5</text>
</g>
<!-- 5&#45;&gt;12 -->
<g id="edge139" class="edge"><title>5&#45;&gt;12</title>
<path fill="none" stroke="red" stroke-width="0.395204" d="M1119.4,-225.196C1116.36,-223.971 1113,-222.782 1109.8,-222 1031.27,-202.798 802.063,-245.925 747.802,-186 736.466,-173.481 738.544,-162.126 747.802,-148 792.969,-79.078 837.947,-94.3382 917.802,-74 1093.78,-29.18 1150.66,-89.5029 1324.8,-38 1328.07,-37.0339 1331.38,-35.7384 1334.6,-34.283"/>
<polygon fill="red" stroke="red" stroke-width="0.395204" points="1336.46,-37.2615 1343.79,-29.6069 1333.29,-31.0227 1336.46,-37.2615"/>
</g>
<!-- 5&#45;&gt;13 -->
<g id="edge85" class="edge"><title>5&#45;&gt;13</title>
<path fill="none" stroke="red" stroke-width="0.175664" d="M1119.24,-225.709C1116.2,-224.492 1112.87,-223.179 1109.8,-222 1066.48,-205.382 1038.36,-224.049 1011.8,-186 990.931,-156.099 1037.33,-75.0877 1038.8,-74 1081.88,-42.2163 1913.7,-23.896 2079.28,-20.5563"/>
<polygon fill="red" stroke="red" stroke-width="0.175664" points="2079.69,-24.0489 2089.62,-20.3499 2079.55,-17.0503 2079.69,-24.0489"/>
</g>
<!-- 5&#45;&gt;14 -->
<g id="edge37" class="edge"><title>5&#45;&gt;14</title>
<path fill="none" stroke="green" stroke-width="0.327812" d="M1119.41,-225.161C1116.37,-223.935 1113,-222.754 1109.8,-222 1062.27,-210.808 704.886,-221.915 671.802,-186 660.359,-173.578 662.485,-162.087 671.802,-148 764.492,-7.85471 1217.03,-46.5398 1252.8,-38 1259.25,-36.4612 1265.98,-34.1658 1272.23,-31.725"/>
<polygon fill="green" stroke="green" stroke-width="0.327812" points="1273.63,-34.9337 1281.51,-27.8573 1270.93,-28.4719 1273.63,-34.9337"/>
</g>
<!-- 5&#45;&gt;15 -->
<g id="edge162" class="edge"><title>5&#45;&gt;15</title>
<path fill="none" stroke="green" stroke-width="0.468405" d="M1119.38,-225.256C1116.35,-224.032 1112.99,-222.828 1109.8,-222 1049.3,-206.267 872.08,-232.947 830.802,-186 817.313,-170.659 819.813,-91.9859 836.802,-74 885.876,-22.0437 1115.44,-18.9693 1196.98,-19.5597"/>
<polygon fill="green" stroke="green" stroke-width="0.468405" points="1197.43,-23.0642 1207.47,-19.6626 1197.5,-16.0645 1197.43,-23.0642"/>
</g>
<!-- 5&#45;&gt;17 -->
<g id="edge64" class="edge"><title>5&#45;&gt;17</title>
<path fill="none" stroke="red" stroke-width="0.871766" d="M1140.06,-224.055C1156.61,-214.465 1189.65,-195.321 1212.48,-182.093"/>
<polygon fill="red" stroke="red" stroke-width="0.871766" points="1214.37,-185.045 1221.26,-177.003 1210.86,-178.988 1214.37,-185.045"/>
</g>
<!-- 5&#45;&gt;20 -->
<g id="edge76" class="edge"><title>5&#45;&gt;20</title>
<path fill="none" stroke="green" stroke-width="0.315028" d="M1126.79,-221.895C1124.16,-214.805 1120.2,-204.105 1116.48,-194.103"/>
<polygon fill="green" stroke="green" stroke-width="0.315028" points="1119.68,-192.651 1112.92,-184.493 1113.12,-195.086 1119.68,-192.651"/>
</g>
<!-- 5&#45;&gt;19 -->
<g id="edge131" class="edge"><title>5&#45;&gt;19</title>
<path fill="none" stroke="green" stroke-width="0.223603" d="M1119.51,-225.863C1093.34,-215.319 1026.21,-188.119 1024.8,-186 1015.45,-171.938 1014.52,-161.402 1024.8,-148 1045.8,-120.619 1147.34,-104.037 1197.56,-97.3814"/>
<polygon fill="green" stroke="green" stroke-width="0.223603" points="1198.26,-100.82 1207.73,-96.0762 1197.37,-93.8772 1198.26,-100.82"/>
</g>
<!-- 5&#45;&gt;22 -->
<g id="edge147" class="edge"><title>5&#45;&gt;22</title>
<path fill="none" stroke="green" stroke-width="0.353233" d="M1140.23,-225.293C1143.27,-224.07 1146.62,-222.857 1149.8,-222 1255.64,-193.449 1286.55,-208.671 1393.8,-186 1406.34,-183.349 1420.05,-179.673 1431.62,-176.334"/>
<polygon fill="green" stroke="green" stroke-width="0.353233" points="1432.96,-179.588 1441.56,-173.401 1430.98,-172.874 1432.96,-179.588"/>
</g>
<!-- 5&#45;&gt;21 -->
<g id="edge24" class="edge"><title>5&#45;&gt;21</title>
<path fill="none" stroke="red" stroke-width="0.489318" d="M1119.6,-221.895C1107.97,-212.644 1088.6,-197.249 1073.54,-185.276"/>
<polygon fill="red" stroke="red" stroke-width="0.489318" points="1075.69,-182.52 1065.69,-179.037 1071.34,-188 1075.69,-182.52"/>
</g>
<!-- 5&#45;&gt;18 -->
<g id="edge10" class="edge"><title>5&#45;&gt;18</title>
<path fill="none" stroke="red" stroke-width="0.240405" d="M1140.29,-225.492C1143.33,-224.272 1146.67,-223.011 1149.8,-222 1216.76,-200.39 1297.66,-182.314 1339.21,-173.599"/>
<polygon fill="red" stroke="red" stroke-width="0.240405" points="1340.05,-176.999 1349.13,-171.539 1338.63,-170.145 1340.05,-176.999"/>
</g>
<!-- 5&#45;&gt;23 -->
<g id="edge94" class="edge"><title>5&#45;&gt;23</title>
<path fill="none" stroke="red" stroke-width="0.101924" d="M1140.2,-225.181C1143.24,-223.956 1146.6,-222.77 1149.8,-222 1319.47,-181.169 1367.82,-209.04 1540.8,-186 1566.39,-182.592 1595.34,-177.415 1616.01,-173.487"/>
<polygon fill="red" stroke="red" stroke-width="0.101924" points="1616.85,-176.89 1626.01,-171.563 1615.52,-170.016 1616.85,-176.89"/>
</g>
<!-- 5&#45;&gt;16 -->
<g id="edge119" class="edge"><title>5&#45;&gt;16</title>
<path fill="none" stroke="red" stroke-width="0.111055" d="M1140.21,-225.212C1143.25,-223.987 1146.61,-222.794 1149.8,-222 1295.55,-185.772 1344.16,-235.949 1485.8,-186 1487.45,-185.419 1489.1,-184.723 1490.73,-183.949"/>
<polygon fill="red" stroke="red" stroke-width="0.111055" points="1492.67,-186.87 1499.65,-178.896 1489.22,-180.779 1492.67,-186.87"/>
</g>
<!-- 6 -->
<g id="node7" class="node"><title>6</title>
<polygon fill="lightgrey" stroke="black" points="1430.05,-240 1409.55,-240 1409.55,-222 1430.05,-222 1430.05,-240"/>
<text text-anchor="middle" x="1419.8" y="-228.8" font-family="Times,serif" font-size="9.00">6</text>
</g>
<!-- 6&#45;&gt;12 -->
<g id="edge165" class="edge"><title>6&#45;&gt;12</title>
<path fill="none" stroke="red" stroke-width="0.295619" d="M1430.23,-226.568C1435.21,-225.019 1441.27,-223.258 1446.8,-222 1545.12,-199.631 1585.55,-239.848 1670.8,-186 1717.04,-156.791 1757.52,-115.423 1721.8,-74 1678.49,-23.7662 1465.51,-19.5241 1387.5,-19.6911"/>
<polygon fill="red" stroke="red" stroke-width="0.295619" points="1387.41,-16.1914 1377.42,-19.7395 1387.44,-23.1913 1387.41,-16.1914"/>
</g>
<!-- 6&#45;&gt;13 -->
<g id="edge41" class="edge"><title>6&#45;&gt;13</title>
<path fill="none" stroke="red" stroke-width="0.28685" d="M1430.19,-226.342C1435.15,-224.743 1441.22,-223.006 1446.8,-222 1676.1,-180.656 1741.23,-231.201 1969.8,-186 2022.19,-175.639 2031.42,-158.407 2083.8,-148 2139.52,-136.931 2555.07,-153.559 2593.8,-112 2605.32,-99.6445 2605.07,-86.5844 2593.8,-74 2563.1,-39.7036 2235.63,-24.7618 2136.24,-20.9953"/>
<polygon fill="red" stroke="red" stroke-width="0.28685" points="2136.18,-17.4906 2126.05,-20.6184 2135.92,-24.4858 2136.18,-17.4906"/>
</g>
<!-- 6&#45;&gt;14 -->
<g id="edge58" class="edge"><title>6&#45;&gt;14</title>
<path fill="none" stroke="red" stroke-width="0.732923" d="M1430.26,-226.944C1458.42,-218.617 1534.13,-195.52 1540.8,-186 1550.49,-172.167 1545.75,-164.149 1540.8,-148 1529.18,-110.046 1523.57,-96.3998 1490.8,-74 1430.99,-33.1113 1399.74,-63.1698 1331.8,-38 1328.67,-36.8399 1325.46,-35.4463 1322.33,-33.9548"/>
<polygon fill="red" stroke="red" stroke-width="0.732923" points="1323.81,-30.7771 1313.31,-29.3213 1320.61,-37.0038 1323.81,-30.7771"/>
</g>
<!-- 6&#45;&gt;15 -->
<g id="edge110" class="edge"><title>6&#45;&gt;15</title>
<path fill="none" stroke="green" stroke-width="0.427645" d="M1418.66,-221.7C1416.22,-206.158 1409.39,-172.066 1393.8,-148 1357.75,-92.348 1288.8,-51.4486 1251.42,-32.2301"/>
<polygon fill="green" stroke="green" stroke-width="0.427645" points="1252.71,-28.9609 1242.2,-27.6022 1249.57,-35.2168 1252.71,-28.9609"/>
</g>
<!-- 6&#45;&gt;17 -->
<g id="edge93" class="edge"><title>6&#45;&gt;17</title>
<path fill="none" stroke="red" stroke-width="0.282201" d="M1409.27,-227.806C1384.27,-222.413 1319.65,-207.376 1268.8,-186 1266.25,-184.925 1263.63,-183.696 1261.06,-182.396"/>
<polygon fill="red" stroke="red" stroke-width="0.282201" points="1262.53,-179.21 1252.07,-177.526 1259.19,-185.365 1262.53,-179.21"/>
</g>
<!-- 6&#45;&gt;20 -->
<g id="edge75" class="edge"><title>6&#45;&gt;20</title>
<path fill="none" stroke="green" stroke-width="0.545725" d="M1409.39,-227.937C1366.28,-219.399 1200.98,-186.656 1134.62,-173.51"/>
<polygon fill="green" stroke="green" stroke-width="0.545725" points="1134.98,-170.014 1124.49,-171.504 1133.62,-176.88 1134.98,-170.014"/>
</g>
<!-- 6&#45;&gt;19 -->
<g id="edge170" class="edge"><title>6&#45;&gt;19</title>
<path fill="none" stroke="green" stroke-width="0.19993" d="M1409.34,-227.702C1388.4,-222.739 1340.45,-209.522 1306.8,-186 1279.91,-167.201 1256.03,-137.674 1241.29,-117.161"/>
<polygon fill="green" stroke="green" stroke-width="0.19993" points="1243.97,-114.89 1235.36,-108.711 1238.24,-118.908 1243.97,-114.89"/>
</g>
<!-- 6&#45;&gt;22 -->
<g id="edge146" class="edge"><title>6&#45;&gt;22</title>
<path fill="none" stroke="green" stroke-width="0.185886" d="M1424.9,-221.895C1429.74,-214.201 1437.25,-202.258 1443.98,-191.568"/>
<polygon fill="green" stroke="green" stroke-width="0.185886" points="1447,-193.332 1449.36,-183.004 1441.08,-189.605 1447,-193.332"/>
</g>
<!-- 6&#45;&gt;21 -->
<g id="edge130" class="edge"><title>6&#45;&gt;21</title>
<path fill="none" stroke="red" stroke-width="0.49438" d="M1409.49,-229.279C1359.59,-225.697 1142.98,-209.064 1079.8,-186 1078.16,-185.401 1076.51,-184.691 1074.89,-183.907"/>
<polygon fill="red" stroke="red" stroke-width="0.49438" points="1076.4,-180.739 1065.98,-178.828 1072.93,-186.821 1076.4,-180.739"/>
</g>
<!-- 6&#45;&gt;18 -->
<g id="edge114" class="edge"><title>6&#45;&gt;18</title>
<path fill="none" stroke="red" stroke-width="0.31897" d="M1412.87,-221.895C1405.83,-213.654 1394.61,-200.536 1385.01,-189.305"/>
<polygon fill="red" stroke="red" stroke-width="0.31897" points="1387.55,-186.885 1378.39,-181.558 1382.23,-191.434 1387.55,-186.885"/>
</g>
<!-- 6&#45;&gt;23 -->
<g id="edge23" class="edge"><title>6&#45;&gt;23</title>
<path fill="none" stroke="red" stroke-width="0.11464" d="M1430.27,-226.705C1435.25,-225.186 1441.31,-223.411 1446.8,-222 1519.5,-203.326 1541.65,-212.694 1611.8,-186 1614.39,-185.014 1617.03,-183.843 1619.62,-182.579"/>
<polygon fill="red" stroke="red" stroke-width="0.11464" points="1621.46,-185.56 1628.63,-177.754 1618.16,-179.388 1621.46,-185.56"/>
</g>
<!-- 6&#45;&gt;16 -->
<g id="edge46" class="edge"><title>6&#45;&gt;16</title>
<path fill="none" stroke="green" stroke-width="0.425562" d="M1430.22,-223.128C1444.66,-213.602 1471.17,-196.12 1490.47,-183.39"/>
<polygon fill="green" stroke="green" stroke-width="0.425562" points="1492.6,-186.178 1499.02,-177.75 1488.74,-180.335 1492.6,-186.178"/>
</g>
<!-- 7 -->
<g id="node8" class="node"><title>7</title>
<polygon fill="lightgrey" stroke="black" points="1101.05,-240 1080.55,-240 1080.55,-222 1101.05,-222 1101.05,-240"/>
<text text-anchor="middle" x="1090.8" y="-228.8" font-family="Times,serif" font-size="9.00">7</text>
</g>
<!-- 7&#45;&gt;12 -->
<g id="edge3" class="edge"><title>7&#45;&gt;12</title>
<path fill="none" stroke="red" stroke-width="0.182732" d="M1080.41,-225.136C1077.38,-223.91 1074.01,-222.735 1070.8,-222 1015.11,-209.236 596.766,-227.795 557.802,-186 546.285,-173.647 547.945,-161.714 557.802,-148 618.007,-64.2294 676.598,-93.999 777.802,-74 1016.82,-26.7681 1090.41,-104.466 1324.8,-38 1328.08,-37.0707 1331.4,-35.7974 1334.62,-34.3538"/>
<polygon fill="red" stroke="red" stroke-width="0.182732" points="1336.48,-37.3348 1343.81,-29.6868 1333.31,-31.0932 1336.48,-37.3348"/>
</g>
<!-- 7&#45;&gt;13 -->
<g id="edge123" class="edge"><title>7&#45;&gt;13</title>
<path fill="none" stroke="red" stroke-width="0.110364" stroke-dasharray="1,5" d="M1080.32,-225.502C1057.97,-215.807 1007.27,-193.229 1002.8,-186 988.513,-162.88 1010.29,-79.6736 1016.8,-74 1058.06,-38.0603 1911.81,-23.0309 2079.4,-20.4216"/>
<polygon fill="red" stroke="red" stroke-width="0.110364" points="2079.69,-23.9176 2089.64,-20.2644 2079.59,-16.9184 2079.69,-23.9176"/>
</g>
<!-- 7&#45;&gt;14 -->
<g id="edge113" class="edge"><title>7&#45;&gt;14</title>
<path fill="none" stroke="green" stroke-width="0.118282" d="M1080.4,-225.172C1077.37,-223.947 1074,-222.763 1070.8,-222 981.833,-200.789 722.582,-253.442 660.802,-186 649.394,-173.546 656.245,-164.263 660.802,-148 671.187,-110.935 672.887,-93.9578 705.802,-74 809.967,-10.839 1134,-64.9543 1252.8,-38 1259.26,-36.5338 1266.01,-34.2664 1272.25,-31.8294"/>
<polygon fill="green" stroke="green" stroke-width="0.118282" points="1273.65,-35.0359 1281.53,-27.951 1270.96,-28.577 1273.65,-35.0359"/>
</g>
<!-- 7&#45;&gt;15 -->
<g id="edge60" class="edge"><title>7&#45;&gt;15</title>
<path fill="none" stroke="red" stroke-width="0.470235" stroke-dasharray="1,5" d="M1080.42,-225.082C1077.39,-223.855 1074.02,-222.693 1070.8,-222 981.975,-202.856 316.623,-251.651 253.802,-186 242.125,-173.798 242.666,-160.698 253.802,-148 317.982,-74.8139 1043.61,-30.2159 1197.31,-21.5535"/>
<polygon fill="red" stroke="red" stroke-width="0.470235" points="1197.58,-25.0439 1207.37,-20.992 1197.19,-18.0547 1197.58,-25.0439"/>
</g>
<!-- 7&#45;&gt;17 -->
<g id="edge80" class="edge"><title>7&#45;&gt;17</title>
<path fill="none" stroke="green" stroke-width="0.230689" d="M1101.3,-225.541C1124.06,-215.879 1178.48,-192.769 1211,-178.955"/>
<polygon fill="green" stroke="green" stroke-width="0.230689" points="1212.5,-182.122 1220.34,-174.992 1209.76,-175.679 1212.5,-182.122"/>
</g>
<!-- 7&#45;&gt;20 -->
<g id="edge98" class="edge"><title>7&#45;&gt;20</title>
<path fill="none" stroke="red" stroke-width="0.13461" d="M1092.89,-221.895C1094.68,-214.976 1097.35,-204.62 1099.88,-194.829"/>
<polygon fill="red" stroke="red" stroke-width="0.13461" points="1103.31,-195.556 1102.41,-184.998 1096.53,-193.806 1103.31,-195.556"/>
</g>
<!-- 7&#45;&gt;19 -->
<g id="edge14" class="edge"><title>7&#45;&gt;19</title>
<path fill="none" stroke="red" stroke-width="0.85444" d="M1080.46,-225.652C1061.24,-217.333 1021.26,-198.851 1013.8,-186 1005.32,-171.393 1003.44,-161.335 1013.8,-148 1036.32,-119.033 1145.58,-103.033 1197.84,-96.9256"/>
<polygon fill="red" stroke="red" stroke-width="0.85444" points="1198.24,-100.403 1207.79,-95.8031 1197.46,-93.4471 1198.24,-100.403"/>
</g>
<!-- 7&#45;&gt;22 -->
<g id="edge28" class="edge"><title>7&#45;&gt;22</title>
<path fill="none" stroke="red" stroke-width="0.363571" d="M1101.07,-225.074C1103.85,-223.909 1106.9,-222.78 1109.8,-222 1232.68,-189.008 1269.06,-211.043 1393.8,-186 1406.37,-183.477 1420.08,-179.819 1431.65,-176.46"/>
<polygon fill="red" stroke="red" stroke-width="0.363571" points="1433,-179.709 1441.58,-173.499 1431,-173.001 1433,-179.709"/>
</g>
<!-- 7&#45;&gt;21 -->
<g id="edge49" class="edge"><title>7&#45;&gt;21</title>
<path fill="none" stroke="red" stroke-width="0.459851" d="M1085.7,-221.895C1080.86,-214.201 1073.35,-202.258 1066.63,-191.568"/>
<polygon fill="red" stroke="red" stroke-width="0.459851" points="1069.53,-189.605 1061.24,-183.004 1063.6,-193.332 1069.53,-189.605"/>
</g>
<!-- 7&#45;&gt;18 -->
<g id="edge67" class="edge"><title>7&#45;&gt;18</title>
<path fill="none" stroke="green" stroke-width="0.459983" d="M1101.12,-225.233C1103.9,-224.066 1106.93,-222.897 1109.8,-222 1152.63,-208.621 1281.51,-183.896 1338.81,-173.179"/>
<polygon fill="green" stroke="green" stroke-width="0.459983" points="1339.77,-176.561 1348.96,-171.288 1338.48,-169.68 1339.77,-176.561"/>
</g>
<!-- 7&#45;&gt;23 -->
<g id="edge152" class="edge"><title>7&#45;&gt;23</title>
<path fill="none" stroke="green" stroke-width="0.523595" d="M1101.05,-224.99C1103.83,-223.825 1106.88,-222.717 1109.8,-222 1296.47,-176.135 1350.16,-210.57 1540.8,-186 1566.41,-182.7 1595.35,-177.512 1616.02,-173.552"/>
<polygon fill="green" stroke="green" stroke-width="0.523595" points="1616.86,-176.953 1626.01,-171.609 1615.53,-170.081 1616.86,-176.953"/>
</g>
<!-- 7&#45;&gt;16 -->
<g id="edge135" class="edge"><title>7&#45;&gt;16</title>
<path fill="none" stroke="red" stroke-width="1.03359" d="M1101.06,-225.014C1103.84,-223.849 1106.89,-222.735 1109.8,-222 1272.58,-180.957 1327.17,-240.938 1485.8,-186 1487.45,-185.428 1489.11,-184.74 1490.74,-183.971"/>
<polygon fill="red" stroke="red" stroke-width="1.03359" points="1492.67,-186.896 1499.66,-178.931 1489.23,-180.8 1492.67,-186.896"/>
</g>
<!-- 8 -->
<g id="node9" class="node"><title>8</title>
<polygon fill="lightgrey" stroke="black" points="1023.05,-240 1002.55,-240 1002.55,-222 1023.05,-222 1023.05,-240"/>
<text text-anchor="middle" x="1012.8" y="-228.8" font-family="Times,serif" font-size="9.00">8</text>
</g>
<!-- 8&#45;&gt;12 -->
<g id="edge34" class="edge"><title>8&#45;&gt;12</title>
<path fill="none" stroke="green" stroke-width="0.512022" stroke-dasharray="1,5" d="M1002.31,-229.981C930.083,-229.741 508.24,-226.601 470.802,-186 459.353,-173.584 467.193,-164.499 470.802,-148 478.536,-112.642 474.766,-94.1969 504.802,-74 580.481,-23.1099 1236.8,-61.9199 1324.8,-38 1328.09,-37.1066 1331.42,-35.8548 1334.64,-34.4228"/>
<polygon fill="green" stroke="green" stroke-width="0.512022" points="1336.49,-37.4062 1343.83,-29.7647 1333.33,-31.1618 1336.49,-37.4062"/>
</g>
<!-- 8&#45;&gt;14 -->
<g id="edge138" class="edge"><title>8&#45;&gt;14</title>
<path fill="none" stroke="green" stroke-width="0.320112" d="M1002.54,-229.925C902.155,-229.145 97.9695,-221.789 63.8015,-186 52.1391,-173.784 53.756,-161.576 63.8015,-148 130.7,-57.5872 194.902,-92.7373 305.802,-74 721.108,-3.83107 840.796,-125.493 1252.8,-38 1259.28,-36.6235 1266.04,-34.3906 1272.28,-31.9584"/>
<polygon fill="green" stroke="green" stroke-width="0.320112" points="1273.69,-35.1621 1281.56,-28.0668 1270.98,-28.7068 1273.69,-35.1621"/>
</g>
<!-- 8&#45;&gt;15 -->
<g id="edge16" class="edge"><title>8&#45;&gt;15</title>
<path fill="none" stroke="green" stroke-width="0.480741" d="M1002.46,-229.944C899.471,-229.333 61.4049,-223.226 25.8015,-186 -8.60397,-150.027 -8.59642,-109.981 25.8015,-74 67.5746,-30.3049 1018.32,-21.4619 1197,-20.1839"/>
<polygon fill="green" stroke="green" stroke-width="0.480741" points="1197.21,-23.6826 1207.19,-20.1134 1197.17,-16.6828 1197.21,-23.6826"/>
</g>
<!-- 8&#45;&gt;17 -->
<g id="edge164" class="edge"><title>8&#45;&gt;17</title>
<path fill="none" stroke="green" stroke-width="0.475132" d="M1023.15,-225.331C1025.93,-224.163 1028.96,-222.969 1031.8,-222 1094.04,-200.819 1169.23,-182.906 1209,-174.013"/>
<polygon fill="green" stroke="green" stroke-width="0.475132" points="1210,-177.376 1219,-171.798 1208.48,-170.541 1210,-177.376"/>
</g>
<!-- 8&#45;&gt;20 -->
<g id="edge142" class="edge"><title>8&#45;&gt;20</title>
<path fill="none" stroke="green" stroke-width="0.513554" d="M1023.22,-223.128C1037.66,-213.602 1064.17,-196.12 1083.47,-183.39"/>
<polygon fill="green" stroke="green" stroke-width="0.513554" points="1085.6,-186.178 1092.02,-177.75 1081.74,-180.335 1085.6,-186.178"/>
</g>
<!-- 8&#45;&gt;19 -->
<g id="edge88" class="edge"><title>8&#45;&gt;19</title>
<path fill="none" stroke="green" stroke-width="0.264313" d="M1006.74,-221.817C995.72,-205.871 975.114,-170.255 992.802,-148 1018.1,-116.163 1141.09,-101.432 1197.47,-96.2683"/>
<polygon fill="green" stroke="green" stroke-width="0.264313" points="1197.84,-99.7493 1207.5,-95.3872 1197.23,-92.7762 1197.84,-99.7493"/>
</g>
<!-- 8&#45;&gt;22 -->
<g id="edge72" class="edge"><title>8&#45;&gt;22</title>
<path fill="none" stroke="red" stroke-width="0.314182" d="M1023.06,-225.021C1025.84,-223.856 1028.89,-222.74 1031.8,-222 1188.5,-182.184 1234.87,-215.683 1393.8,-186 1406.53,-183.622 1420.4,-179.939 1432.04,-176.523"/>
<polygon fill="red" stroke="red" stroke-width="0.314182" points="1433.05,-179.873 1441.61,-173.628 1431.02,-173.172 1433.05,-179.873"/>
</g>
<!-- 8&#45;&gt;21 -->
<g id="edge20" class="edge"><title>8&#45;&gt;21</title>
<path fill="none" stroke="green" stroke-width="0.870712" d="M1017.9,-221.895C1022.74,-214.201 1030.25,-202.258 1036.98,-191.568"/>
<polygon fill="green" stroke="green" stroke-width="0.870712" points="1040,-193.332 1042.36,-183.004 1034.08,-189.605 1040,-193.332"/>
</g>
<!-- 8&#45;&gt;18 -->
<g id="edge40" class="edge"><title>8&#45;&gt;18</title>
<path fill="none" stroke="red" stroke-width="0.266643" stroke-dasharray="1,5" d="M1023.09,-225.129C1025.87,-223.963 1028.91,-222.82 1031.8,-222 1132.19,-193.542 1160.85,-202.982 1263.8,-186 1289.27,-181.799 1318.23,-176.71 1338.94,-173.017"/>
<polygon fill="red" stroke="red" stroke-width="0.266643" points="1339.73,-176.432 1348.96,-171.225 1338.5,-169.541 1339.73,-176.432"/>
</g>
<!-- 8&#45;&gt;23 -->
<g id="edge127" class="edge"><title>8&#45;&gt;23</title>
<path fill="none" stroke="green" stroke-width="0.316904" d="M1023.45,-224.799C1026.12,-223.696 1029.02,-222.665 1031.8,-222 1252.38,-169.29 1315.69,-213.557 1540.8,-186 1566.43,-182.863 1595.37,-177.657 1616.03,-173.648"/>
<polygon fill="green" stroke="green" stroke-width="0.316904" points="1616.89,-177.047 1626.02,-171.678 1615.53,-170.179 1616.89,-177.047"/>
</g>
<!-- 8&#45;&gt;16 -->
<g id="edge109" class="edge"><title>8&#45;&gt;16</title>
<path fill="none" stroke="green" stroke-width="0.222469" d="M1023.45,-224.816C1026.12,-223.713 1029.02,-222.677 1031.8,-222 1228.47,-174.117 1294,-250.676 1485.8,-186 1487.46,-185.441 1489.11,-184.764 1490.75,-184.002"/>
<polygon fill="green" stroke="green" stroke-width="0.222469" points="1492.68,-186.933 1499.68,-178.982 1489.25,-180.831 1492.68,-186.933"/>
</g>
<!-- 9 -->
<g id="node10" class="node"><title>9</title>
<polygon fill="lightgrey" stroke="black" points="1602.05,-240 1581.55,-240 1581.55,-222 1602.05,-222 1602.05,-240"/>
<text text-anchor="middle" x="1591.8" y="-228.8" font-family="Times,serif" font-size="9.00">9</text>
</g>
<!-- 9&#45;&gt;12 -->
<g id="edge126" class="edge"><title>9&#45;&gt;12</title>
<path fill="none" stroke="red" stroke-width="0.96791" stroke-dasharray="1,5" d="M1602.36,-225.982C1606.76,-224.476 1611.96,-222.91 1616.8,-222 1870.19,-174.345 1942.14,-232.161 2195.8,-186 2312.01,-164.854 2518.2,-159.582 2436.8,-74 2418.16,-54.4032 1555.95,-26.2204 1387.26,-20.8884"/>
<polygon fill="red" stroke="red" stroke-width="0.96791" points="1387.27,-17.3872 1377.16,-20.5706 1387.05,-24.3837 1387.27,-17.3872"/>
</g>
<!-- 9&#45;&gt;13 -->
<g id="edge70" class="edge"><title>9&#45;&gt;13</title>
<path fill="none" stroke="red" stroke-width="0.345865" d="M1602.35,-225.956C1606.75,-224.446 1611.96,-222.884 1616.8,-222 1744.93,-198.613 2699.22,-211.039 2783.8,-112 2794.77,-99.1572 2795.26,-86.4086 2783.8,-74 2739.27,-25.7709 2259.29,-20.5907 2136.35,-20.0564"/>
<polygon fill="red" stroke="red" stroke-width="0.345865" points="2136.23,-16.556 2126.22,-20.0197 2136.21,-23.556 2136.23,-16.556"/>
</g>
<!-- 9&#45;&gt;14 -->
<g id="edge17" class="edge"><title>9&#45;&gt;14</title>
<path fill="none" stroke="red" stroke-width="0.715004" d="M1602.4,-226.166C1606.8,-224.687 1612,-223.093 1616.8,-222 1790.06,-182.555 2292.12,-246.009 2408.8,-112 2419.89,-99.2628 2420.54,-86.1401 2408.8,-74 2367.18,-30.9665 1389.65,-53.3996 1331.8,-38 1328.51,-37.1238 1325.18,-35.8823 1321.96,-34.4559"/>
<polygon fill="red" stroke="red" stroke-width="0.715004" points="1323.27,-31.1948 1312.76,-29.802 1320.1,-37.4405 1323.27,-31.1948"/>
</g>
<!-- 9&#45;&gt;17 -->
<g id="edge144" class="edge"><title>9&#45;&gt;17</title>
<path fill="none" stroke="green" stroke-width="0.592808" d="M1581.37,-225.309C1578.33,-224.086 1574.98,-222.869 1571.8,-222 1471.16,-194.447 1442.76,-202.982 1339.8,-186 1314.33,-181.799 1285.37,-176.71 1264.66,-173.017"/>
<polygon fill="green" stroke="green" stroke-width="0.592808" points="1265.11,-169.541 1254.65,-171.225 1263.87,-176.432 1265.11,-169.541"/>
</g>
<!-- 9&#45;&gt;20 -->
<g id="edge63" class="edge"><title>9&#45;&gt;20</title>
<path fill="none" stroke="green" stroke-width="0.341402" d="M1581.4,-225.196C1578.36,-223.971 1575,-222.782 1571.8,-222 1414.75,-183.597 1369.99,-207.932 1209.8,-186 1184.22,-182.498 1155.28,-177.332 1134.6,-173.432"/>
<polygon fill="green" stroke="green" stroke-width="0.341402" points="1135.08,-169.96 1124.6,-171.523 1133.77,-176.836 1135.08,-169.96"/>
</g>
<!-- 9&#45;&gt;19 -->
<g id="edge44" class="edge"><title>9&#45;&gt;19</title>
<path fill="none" stroke="green" stroke-width="0.324976" d="M1602.17,-226.426C1630.03,-216.775 1704.62,-190.609 1707.8,-186 1717.4,-172.1 1719.06,-160.59 1707.8,-148 1677.4,-114.006 1353.31,-98.8764 1254.34,-95.0267"/>
<polygon fill="green" stroke="green" stroke-width="0.324976" points="1254.31,-91.5232 1244.19,-94.6409 1254.05,-98.5182 1254.31,-91.5232"/>
</g>
<!-- 9&#45;&gt;22 -->
<g id="edge129" class="edge"><title>9&#45;&gt;22</title>
<path fill="none" stroke="green" stroke-width="0.478024" d="M1581.31,-225.723C1556.5,-215.6 1495.68,-190.668 1486.8,-186 1485.29,-185.205 1483.75,-184.353 1482.22,-183.469"/>
<polygon fill="green" stroke="green" stroke-width="0.478024" points="1483.98,-180.445 1473.63,-178.211 1480.33,-186.416 1483.98,-180.445"/>
</g>
<!-- 9&#45;&gt;21 -->
<g id="edge9" class="edge"><title>9&#45;&gt;21</title>
<path fill="none" stroke="green" stroke-width="0.48837" stroke-dasharray="1,5" d="M1581.41,-225.142C1578.37,-223.916 1575.01,-222.74 1571.8,-222 1358.16,-172.705 1287.77,-255.425 1079.8,-186 1078.14,-185.446 1076.49,-184.772 1074.85,-184.014"/>
<polygon fill="green" stroke="green" stroke-width="0.48837" points="1076.35,-180.842 1065.92,-179.001 1072.93,-186.947 1076.35,-180.842"/>
</g>
<!-- 9&#45;&gt;18 -->
<g id="edge91" class="edge"><title>9&#45;&gt;18</title>
<path fill="none" stroke="red" stroke-width="0.724828" d="M1581.31,-225.508C1578.27,-224.288 1574.93,-223.023 1571.8,-222 1510.74,-202.028 1493.87,-202.574 1431.8,-186 1419.42,-182.693 1405.73,-178.922 1394.13,-175.689"/>
<polygon fill="red" stroke="red" stroke-width="0.724828" points="1394.73,-172.223 1384.16,-172.9 1392.85,-178.964 1394.73,-172.223"/>
</g>
<!-- 9&#45;&gt;23 -->
<g id="edge74" class="edge"><title>9&#45;&gt;23</title>
<path fill="none" stroke="red" stroke-width="0.866066" d="M1598.6,-221.895C1605.51,-213.654 1616.51,-200.536 1625.93,-189.305"/>
<polygon fill="red" stroke="red" stroke-width="0.866066" points="1628.69,-191.469 1632.43,-181.558 1623.32,-186.971 1628.69,-191.469"/>
</g>
<!-- 9&#45;&gt;16 -->
<g id="edge22" class="edge"><title>9&#45;&gt;16</title>
<path fill="none" stroke="red" stroke-width="0.478565" d="M1581.6,-221.895C1569.97,-212.644 1550.6,-197.249 1535.54,-185.276"/>
<polygon fill="red" stroke="red" stroke-width="0.478565" points="1537.69,-182.52 1527.69,-179.037 1533.34,-188 1537.69,-182.52"/>
</g>
<!-- 10 -->
<g id="node11" class="node"><title>10</title>
<polygon fill="lightgrey" stroke="black" points="1184.8,-240 1158.8,-240 1158.8,-222 1184.8,-222 1184.8,-240"/>
<text text-anchor="middle" x="1171.8" y="-228.8" font-family="Times,serif" font-size="9.00">10</text>
</g>
<!-- 10&#45;&gt;12 -->
<g id="edge141" class="edge"><title>10&#45;&gt;12</title>
<path fill="none" stroke="green" stroke-width="0.235775" stroke-dasharray="1,5" d="M1158.8,-224.992C1155.57,-223.883 1152.09,-222.801 1148.8,-222 1094.48,-208.756 936.397,-228.267 899.802,-186 888.747,-173.232 892.941,-163.433 899.802,-148 919.743,-103.142 936.965,-93.9888 981.802,-74 1121.8,-11.5863 1178.17,-82.6731 1324.8,-38 1328.06,-37.0073 1331.37,-35.6957 1334.58,-34.2317"/>
<polygon fill="green" stroke="green" stroke-width="0.235775" points="1336.45,-37.2084 1343.77,-29.549 1333.27,-30.9717 1336.45,-37.2084"/>
</g>
<!-- 10&#45;&gt;13 -->
<g id="edge19" class="edge"><title>10&#45;&gt;13</title>
<path fill="none" stroke="red" stroke-width="0.114539" d="M1158.71,-225.312C1155.48,-224.194 1152.02,-223.027 1148.8,-222 1094.13,-204.568 1059.26,-231.888 1024.8,-186 982.65,-129.871 1093.33,-76.4413 1098.8,-74 1190.53,-33.0998 1925.56,-22.1623 2079.57,-20.3104"/>
<polygon fill="red" stroke="red" stroke-width="0.114539" points="2079.68,-23.8094 2089.63,-20.1924 2079.59,-16.8099 2079.68,-23.8094"/>
</g>
<!-- 10&#45;&gt;14 -->
<g id="edge39" class="edge"><title>10&#45;&gt;14</title>
<path fill="none" stroke="red" stroke-width="0.824155" d="M1158.33,-224.748C1155.24,-223.702 1151.94,-222.709 1148.8,-222 1077.93,-205.963 872.272,-240.136 823.802,-186 812.536,-173.418 815.712,-162.825 823.802,-148 918.084,24.7849 1061.96,-86.1881 1252.8,-38 1259.23,-36.3778 1265.96,-34.0503 1272.2,-31.605"/>
<polygon fill="red" stroke="red" stroke-width="0.824155" points="1273.59,-34.8162 1281.48,-27.7497 1270.91,-28.351 1273.59,-34.8162"/>
</g>
<!-- 10&#45;&gt;15 -->
<g id="edge87" class="edge"><title>10&#45;&gt;15</title>
<path fill="none" stroke="green" stroke-width="0.310806" d="M1158.32,-224.761C1155.23,-223.715 1151.93,-222.718 1148.8,-222 1081.42,-206.552 885.769,-237.634 839.802,-186 828.572,-173.386 837.791,-164.769 839.802,-148 843.83,-114.393 832.782,-96.7968 857.802,-74 907.491,-28.7249 1119.78,-21.3756 1197.31,-20.2095"/>
<polygon fill="green" stroke="green" stroke-width="0.310806" points="1197.37,-23.7092 1207.32,-20.0827 1197.28,-16.7097 1197.37,-23.7092"/>
</g>
<!-- 10&#45;&gt;17 -->
<g id="edge1" class="edge"><title>10&#45;&gt;17</title>
<path fill="none" stroke="red" stroke-width="0.188968" d="M1180.3,-221.895C1189.45,-213.171 1204.32,-198.981 1216.51,-187.351"/>
<polygon fill="red" stroke="red" stroke-width="0.188968" points="1219.23,-189.596 1224.05,-180.161 1214.4,-184.531 1219.23,-189.596"/>
</g>
<!-- 10&#45;&gt;20 -->
<g id="edge78" class="edge"><title>10&#45;&gt;20</title>
<path fill="none" stroke="red" stroke-width="0.95761" d="M1163.3,-221.895C1154.16,-213.171 1139.28,-198.981 1127.09,-187.351"/>
<polygon fill="red" stroke="red" stroke-width="0.95761" points="1129.2,-184.531 1119.55,-180.161 1124.37,-189.596 1129.2,-184.531"/>
</g>
<!-- 10&#45;&gt;19 -->
<g id="edge65" class="edge"><title>10&#45;&gt;19</title>
<path fill="none" stroke="green" stroke-width="0.62886" d="M1175.02,-221.9C1182.84,-202.189 1203.15,-151.048 1215.58,-119.731"/>
<polygon fill="green" stroke="green" stroke-width="0.62886" points="1218.88,-120.91 1219.32,-110.325 1212.38,-118.327 1218.88,-120.91"/>
</g>
<!-- 10&#45;&gt;22 -->
<g id="edge150" class="edge"><title>10&#45;&gt;22</title>
<path fill="none" stroke="green" stroke-width="0.591857" stroke-dasharray="1,5" d="M1184.93,-226.658C1190.97,-225.163 1198.23,-223.421 1204.8,-222 1288.38,-203.921 1310.53,-205.427 1393.8,-186 1406.29,-183.087 1419.98,-179.374 1431.57,-176.077"/>
<polygon fill="green" stroke="green" stroke-width="0.591857" points="1432.88,-179.34 1441.52,-173.202 1430.94,-172.615 1432.88,-179.34"/>
</g>
<!-- 10&#45;&gt;21 -->
<g id="edge133" class="edge"><title>10&#45;&gt;21</title>
<path fill="none" stroke="green" stroke-width="0.594051" d="M1158.74,-224.376C1140.67,-216.454 1107.17,-201.263 1079.8,-186 1078.31,-185.168 1076.79,-184.288 1075.27,-183.382"/>
<polygon fill="green" stroke="green" stroke-width="0.594051" points="1077.05,-180.367 1066.7,-178.068 1073.35,-186.315 1077.05,-180.367"/>
</g>
<!-- 10&#45;&gt;18 -->
<g id="edge12" class="edge"><title>10&#45;&gt;18</title>
<path fill="none" stroke="red" stroke-width="0.689983" stroke-dasharray="1,5" d="M1184.9,-225.836C1216.53,-215.778 1297.62,-189.996 1340.03,-176.511"/>
<polygon fill="red" stroke="red" stroke-width="0.689983" points="1341.22,-179.807 1349.69,-173.441 1339.1,-173.136 1341.22,-179.807"/>
</g>
<!-- 10&#45;&gt;23 -->
<g id="edge26" class="edge"><title>10&#45;&gt;23</title>
<path fill="none" stroke="red" stroke-width="0.407088" d="M1184.89,-226.41C1190.91,-224.865 1198.18,-223.152 1204.8,-222 1352.77,-196.253 1392.08,-206.939 1540.8,-186 1566.36,-182.401 1595.31,-177.246 1615.99,-173.374"/>
<polygon fill="red" stroke="red" stroke-width="0.407088" points="1616.82,-176.78 1626,-171.481 1615.52,-169.902 1616.82,-176.78"/>
</g>
<!-- 10&#45;&gt;16 -->
<g id="edge121" class="edge"><title>10&#45;&gt;16</title>
<path fill="none" stroke="green" stroke-width="0.423662" stroke-dasharray="1,5" d="M1184.9,-226.473C1190.93,-224.94 1198.19,-223.221 1204.8,-222 1328.62,-199.133 1367.5,-229.101 1485.8,-186 1487.44,-185.402 1489.09,-184.693 1490.71,-183.909"/>
<polygon fill="green" stroke="green" stroke-width="0.423662" points="1492.67,-186.823 1499.63,-178.832 1489.2,-180.741 1492.67,-186.823"/>
</g>
<!-- 11 -->
<g id="node12" class="node"><title>11</title>
<polygon fill="lightgrey" stroke="black" points="1651.8,-240 1625.8,-240 1625.8,-222 1651.8,-222 1651.8,-240"/>
<text text-anchor="middle" x="1638.8" y="-228.8" font-family="Times,serif" font-size="9.00">11</text>
</g>
<!-- 11&#45;&gt;12 -->
<g id="edge167" class="edge"><title>11&#45;&gt;12</title>
<path fill="none" stroke="red" stroke-width="0.138063" d="M1651.82,-229.877C1734.27,-228.988 2184.78,-222.503 2316.8,-186 2394.95,-164.393 2516.71,-132.718 2460.8,-74 2441.72,-53.9571 1558.47,-26.0782 1387.34,-20.8595"/>
<polygon fill="red" stroke="red" stroke-width="0.138063" points="1387.22,-17.3543 1377.12,-20.5489 1387.01,-24.351 1387.22,-17.3543"/>
</g>
<!-- 11&#45;&gt;13 -->
<g id="edge111" class="edge"><title>11&#45;&gt;13</title>
<path fill="none" stroke="red" stroke-width="0.624485" d="M1651.95,-229.698C1746.11,-227.472 2316.26,-212.946 2387.8,-186 2437.89,-167.135 2459.3,-160.086 2482.8,-112 2490.22,-96.8258 2493.86,-86.765 2482.8,-74 2437.76,-22.0079 2215.99,-18.9271 2136.34,-19.5402"/>
<polygon fill="red" stroke="red" stroke-width="0.624485" points="2136.05,-16.043 2126.08,-19.6465 2136.12,-23.0426 2136.05,-16.043"/>
</g>
<!-- 11&#45;&gt;14 -->
<g id="edge90" class="edge"><title>11&#45;&gt;14</title>
<path fill="none" stroke="green" stroke-width="0.121542" d="M1651.95,-229.995C1734.24,-229.839 2179.18,-227.077 2307.8,-186 2377.3,-163.805 2478.53,-126.426 2427.8,-74 2385.44,-30.2204 1390.68,-53.654 1331.8,-38 1328.51,-37.1248 1325.18,-35.8839 1321.96,-34.4577"/>
<polygon fill="green" stroke="green" stroke-width="0.121542" points="1323.27,-31.1966 1312.76,-29.8041 1320.1,-37.4424 1323.27,-31.1966"/>
</g>
<!-- 11&#45;&gt;15 -->
<g id="edge43" class="edge"><title>11&#45;&gt;15</title>
<path fill="none" stroke="red" stroke-width="0.15786" d="M1651.99,-228.969C1675.24,-226.359 1723,-217.267 1743.8,-186 1774.96,-139.155 1734.38,-100.589 1684.8,-74 1603.42,-30.3581 1360.64,-59.3786 1270.8,-38 1264.36,-36.466 1257.62,-34.1725 1251.38,-31.7318"/>
<polygon fill="red" stroke="red" stroke-width="0.15786" points="1252.67,-28.4788 1242.09,-27.8635 1249.98,-34.9404 1252.67,-28.4788"/>
</g>
<!-- 11&#45;&gt;17 -->
<g id="edge171" class="edge"><title>11&#45;&gt;17</title>
<path fill="none" stroke="red" stroke-width="0.185317" d="M1625.79,-225.856C1621.11,-224.476 1615.75,-223.03 1610.8,-222 1491.85,-197.244 1459.89,-204.462 1339.8,-186 1314.29,-182.077 1285.33,-176.958 1264.64,-173.182"/>
<polygon fill="red" stroke="red" stroke-width="0.185317" points="1265.1,-169.708 1254.63,-171.344 1263.83,-176.593 1265.1,-169.708"/>
</g>
<!-- 11&#45;&gt;20 -->
<g id="edge77" class="edge"><title>11&#45;&gt;20</title>
<path fill="none" stroke="red" stroke-width="0.323215" d="M1625.54,-225.655C1620.92,-224.291 1615.67,-222.906 1610.8,-222 1434.88,-189.275 1387.2,-209.422 1209.8,-186 1184.21,-182.621 1155.26,-177.441 1134.59,-173.504"/>
<polygon fill="red" stroke="red" stroke-width="0.323215" points="1135.08,-170.034 1124.6,-171.575 1133.75,-176.907 1135.08,-170.034"/>
</g>
<!-- 11&#45;&gt;19 -->
<g id="edge95" class="edge"><title>11&#45;&gt;19</title>
<path fill="none" stroke="red" stroke-width="0.217921" d="M1652.03,-227.744C1672.09,-223.532 1709.58,-212.386 1725.8,-186 1734.65,-171.613 1737.08,-160.567 1725.8,-148 1694.07,-112.662 1355.12,-98.3859 1254.07,-94.8962"/>
<polygon fill="red" stroke="red" stroke-width="0.217921" points="1254.11,-91.3957 1244,-94.5572 1253.88,-98.3917 1254.11,-91.3957"/>
</g>
<!-- 11&#45;&gt;22 -->
<g id="edge11" class="edge"><title>11&#45;&gt;22</title>
<path fill="none" stroke="green" stroke-width="0.275558" stroke-dasharray="1,5" d="M1625.64,-226.245C1589.31,-215.872 1490.07,-187.485 1486.8,-186 1485.21,-185.277 1483.6,-184.473 1482.01,-183.618"/>
<polygon fill="green" stroke="green" stroke-width="0.275558" points="1483.55,-180.465 1473.17,-178.363 1479.98,-186.482 1483.55,-180.465"/>
</g>
<!-- 11&#45;&gt;21 -->
<g id="edge25" class="edge"><title>11&#45;&gt;21</title>
<path fill="none" stroke="red" stroke-width="0.299333" d="M1625.55,-225.594C1620.93,-224.225 1615.68,-222.853 1610.8,-222 1377.79,-181.283 1304.37,-260.299 1079.8,-186 1078.14,-185.451 1076.48,-184.78 1074.85,-184.024"/>
<polygon fill="red" stroke="red" stroke-width="0.299333" points="1076.35,-180.852 1065.91,-179.018 1072.93,-186.959 1076.35,-180.852"/>
</g>
<!-- 11&#45;&gt;18 -->
<g id="edge149" class="edge"><title>11&#45;&gt;18</title>
<path fill="none" stroke="green" stroke-width="0.182768" d="M1625.75,-226.038C1621.06,-224.676 1615.71,-223.194 1610.8,-222 1531.95,-202.838 1510.73,-204.841 1431.8,-186 1419.33,-183.024 1405.64,-179.301 1394.05,-176.014"/>
<polygon fill="green" stroke="green" stroke-width="0.182768" points="1394.67,-172.551 1384.09,-173.153 1392.74,-179.279 1394.67,-172.551"/>
</g>
<!-- 11&#45;&gt;23 -->
<g id="edge132" class="edge"><title>11&#45;&gt;23</title>
<path fill="none" stroke="green" stroke-width="0.902238" d="M1639.46,-221.895C1640,-215.145 1640.81,-205.124 1641.58,-195.548"/>
<polygon fill="green" stroke="green" stroke-width="0.902238" points="1645.07,-195.757 1642.39,-185.508 1638.1,-195.194 1645.07,-195.757"/>
</g>
<!-- 11&#45;&gt;16 -->
<g id="edge47" class="edge"><title>11&#45;&gt;16</title>
<path fill="none" stroke="red" stroke-width="0.205116" stroke-dasharray="1,5" d="M1625.42,-223.365C1604.87,-213.171 1565.18,-193.482 1539.09,-180.542"/>
<polygon fill="red" stroke="red" stroke-width="0.205116" points="1540.34,-177.255 1529.82,-175.947 1537.23,-183.526 1540.34,-177.255"/>
</g>
<!-- 17&#45;&gt;12 -->
<g id="edge79" class="edge"><title>17&#45;&gt;12</title>
<path fill="none" stroke="red" stroke-width="0.188942" d="M1248.06,-152.526C1269.2,-127.232 1314.99,-72.4349 1340.57,-41.817"/>
<polygon fill="red" stroke="red" stroke-width="0.188942" points="1343.49,-43.7848 1347.21,-33.867 1338.12,-39.2963 1343.49,-43.7848"/>
</g>
<!-- 17&#45;&gt;13 -->
<g id="edge27" class="edge"><title>17&#45;&gt;13</title>
<path fill="none" stroke="red" stroke-width="0.251883" d="M1253.86,-160.569C1304.5,-144.66 1458.63,-97.7899 1589.8,-74 1774.61,-40.4825 2000.57,-25.8043 2079.21,-21.4607"/>
<polygon fill="red" stroke="red" stroke-width="0.251883" points="2079.51,-24.9495 2089.31,-20.9155 2079.13,-17.9597 2079.51,-24.9495"/>
</g>
<!-- 17&#45;&gt;14 -->
<g id="edge151" class="edge"><title>17&#45;&gt;14</title>
<path fill="none" stroke="green" stroke-width="0.426642" d="M1224.27,-153.257C1207.88,-134.981 1183.01,-100.599 1198.8,-74 1206.95,-60.2662 1244.93,-42.1041 1271.4,-30.7368"/>
<polygon fill="green" stroke="green" stroke-width="0.426642" points="1273.04,-33.8442 1280.9,-26.7363 1270.32,-27.3933 1273.04,-33.8442"/>
</g>
<!-- 17&#45;&gt;15 -->
<g id="edge97" class="edge"><title>17&#45;&gt;15</title>
<path fill="none" stroke="red" stroke-width="0.20228" d="M1218.99,-163.088C1193.59,-157.875 1147.85,-144.299 1127.8,-112 1118.9,-97.6498 1119.21,-88.5412 1127.8,-74 1142.95,-48.3578 1175.1,-34.0614 1198.46,-26.7179"/>
<polygon fill="red" stroke="red" stroke-width="0.20228" points="1199.54,-30.0491 1208.17,-23.9004 1197.59,-23.3265 1199.54,-30.0491"/>
</g>
<!-- 17&#45;&gt;19 -->
<g id="edge156" class="edge"><title>17&#45;&gt;19</title>
<path fill="none" stroke="red" stroke-width="0.495378" stroke-dasharray="1,5" d="M1234.14,-148.571C1232.9,-140.434 1231.39,-130.555 1230,-121.45"/>
<polygon fill="red" stroke="red" stroke-width="0.495378" points="1233.41,-120.625 1228.44,-111.269 1226.49,-121.683 1233.41,-120.625"/>
</g>
<!-- 20&#45;&gt;12 -->
<g id="edge99" class="edge"><title>20&#45;&gt;12</title>
<path fill="none" stroke="red" stroke-width="1.13893" stroke-dasharray="1,5" d="M1112.76,-149.564C1121.23,-128.646 1138.77,-92.9571 1165.8,-74 1225.12,-32.3971 1256.86,-63.1698 1324.8,-38 1327.93,-36.8399 1331.14,-35.4463 1334.27,-33.9548"/>
<polygon fill="red" stroke="red" stroke-width="1.13893" points="1335.99,-37.0038 1343.29,-29.3213 1332.8,-30.7771 1335.99,-37.0038"/>
</g>
<!-- 20&#45;&gt;13 -->
<g id="edge153" class="edge"><title>20&#45;&gt;13</title>
<path fill="none" stroke="green" stroke-width="0.4754" d="M1120.18,-153.81C1131.89,-143.025 1149.25,-126.754 1163.8,-112 1179.92,-95.6504 1178.06,-83.8403 1198.8,-74 1279.98,-35.4952 1933.77,-22.7936 2079.2,-20.4314"/>
<polygon fill="green" stroke="green" stroke-width="0.4754" points="2079.57,-23.9261 2089.51,-20.2676 2079.46,-16.9269 2079.57,-23.9261"/>
</g>
<!-- 20&#45;&gt;14 -->
<g id="edge29" class="edge"><title>20&#45;&gt;14</title>
<path fill="none" stroke="red" stroke-width="0.379902" d="M1097.43,-150.853C1086.48,-131.015 1072,-96.1608 1089.8,-74 1136.26,-16.1587 1181.9,-59.8494 1252.8,-38 1259.13,-36.0485 1265.83,-33.5944 1272.06,-31.1314"/>
<polygon fill="red" stroke="red" stroke-width="0.379902" points="1273.44,-34.3518 1281.36,-27.3249 1270.78,-27.8733 1273.44,-34.3518"/>
</g>
<!-- 20&#45;&gt;15 -->
<g id="edge81" class="edge"><title>20&#45;&gt;15</title>
<path fill="none" stroke="red" stroke-width="0.284373" d="M1104.3,-148.696C1102.37,-128.817 1102.25,-96.1028 1117.8,-74 1136.67,-47.1768 1172.81,-32.9708 1198.07,-25.9783"/>
<polygon fill="red" stroke="red" stroke-width="0.284373" points="1198.99,-29.3545 1207.81,-23.4848 1197.26,-22.573 1198.99,-29.3545"/>
</g>
<!-- 19&#45;&gt;12 -->
<g id="edge148" class="edge"><title>19&#45;&gt;12</title>
<path fill="none" stroke="green" stroke-width="0.712088" d="M1241.58,-83.4579C1264.48,-71.0624 1307.13,-47.9739 1334.18,-33.328"/>
<polygon fill="green" stroke="green" stroke-width="0.712088" points="1335.92,-36.3697 1343.04,-28.531 1332.58,-30.2138 1335.92,-36.3697"/>
</g>
<!-- 19&#45;&gt;13 -->
<g id="edge4" class="edge"><title>19&#45;&gt;13</title>
<path fill="none" stroke="green" stroke-width="0.263411" d="M1244.22,-90.4962C1355.98,-81.3731 1942.86,-33.4648 2079.4,-22.3187"/>
<polygon fill="green" stroke="green" stroke-width="0.263411" points="2079.8,-25.7977 2089.48,-21.4955 2079.23,-18.8209 2079.8,-25.7977"/>
</g>
<!-- 19&#45;&gt;14 -->
<g id="edge6" class="edge"><title>19&#45;&gt;14</title>
<path fill="none" stroke="red" stroke-width="0.443314" d="M1238.34,-79.4586C1249.15,-68.6482 1264.96,-52.8393 1277.56,-40.2396"/>
<polygon fill="red" stroke="red" stroke-width="0.443314" points="1280.32,-42.4285 1284.92,-32.8825 1275.37,-37.4788 1280.32,-42.4285"/>
</g>
<!-- 19&#45;&gt;15 -->
<g id="edge120" class="edge"><title>19&#45;&gt;15</title>
<path fill="none" stroke="red" stroke-width="0.329601" stroke-dasharray="1,5" d="M1225.8,-74.5708C1225.8,-66.4942 1225.8,-56.7004 1225.8,-47.6514"/>
<polygon fill="red" stroke="red" stroke-width="0.329601" points="1229.3,-47.5182 1225.8,-37.5182 1222.3,-47.5183 1229.3,-47.5182"/>
</g>
<!-- 22&#45;&gt;12 -->
<g id="edge35" class="edge"><title>22&#45;&gt;12</title>
<path fill="none" stroke="green" stroke-width="0.295073" d="M1473.06,-155.386C1477.31,-152.633 1482.09,-149.909 1486.8,-148 1562.01,-117.531 1614.39,-174.783 1665.8,-112 1676.5,-98.9334 1676.66,-86.9354 1665.8,-74 1630.3,-31.7054 1456.3,-22.5268 1387.18,-20.5435"/>
<polygon fill="green" stroke="green" stroke-width="0.295073" points="1387.11,-17.0406 1377.02,-20.283 1386.93,-24.0383 1387.11,-17.0406"/>
</g>
<!-- 22&#45;&gt;13 -->
<g id="edge84" class="edge"><title>22&#45;&gt;13</title>
<path fill="none" stroke="green" stroke-width="0.656472" d="M1473.04,-155.329C1477.28,-152.575 1482.07,-149.865 1486.8,-148 1570.01,-115.19 1597.09,-129.507 1684.8,-112 1834.51,-82.1186 2012.97,-41.733 2080.29,-26.3271"/>
<polygon fill="green" stroke="green" stroke-width="0.656472" points="2081.15,-29.72 2090.12,-24.0744 2079.59,-22.8968 2081.15,-29.72"/>
</g>
<!-- 22&#45;&gt;14 -->
<g id="edge104" class="edge"><title>22&#45;&gt;14</title>
<path fill="none" stroke="red" stroke-width="0.178648" d="M1459.6,-148.469C1459.56,-128.068 1456.35,-94.5596 1437.8,-74 1404.48,-37.0545 1377.49,-57.7023 1331.8,-38 1328.74,-36.6776 1325.57,-35.1851 1322.46,-33.6394"/>
<polygon fill="red" stroke="red" stroke-width="0.178648" points="1323.95,-30.4669 1313.46,-28.9597 1320.72,-36.6777 1323.95,-30.4669"/>
</g>
<!-- 22&#45;&gt;15 -->
<g id="edge159" class="edge"><title>22&#45;&gt;15</title>
<path fill="none" stroke="red" stroke-width="0.573436" d="M1452.54,-149.41C1443.86,-128.664 1426.2,-93.5073 1399.8,-74 1351.93,-38.6269 1327.18,-57.0813 1270.8,-38 1264.52,-35.8758 1257.85,-33.3552 1251.62,-30.8831"/>
<polygon fill="red" stroke="red" stroke-width="0.573436" points="1252.89,-27.6224 1242.31,-27.1021 1250.26,-34.1079 1252.89,-27.6224"/>
</g>
<!-- 21&#45;&gt;12 -->
<g id="edge15" class="edge"><title>21&#45;&gt;12</title>
<path fill="none" stroke="green" stroke-width="0.506627" d="M1039.16,-153.584C1021.22,-134.479 992.765,-97.6125 1013.8,-74 1060.08,-22.0533 1258.36,-58.6313 1324.8,-38 1328.05,-36.9899 1331.36,-35.6679 1334.57,-34.1983"/>
<polygon fill="green" stroke="green" stroke-width="0.506627" points="1336.44,-37.1738 1343.76,-29.5113 1333.26,-30.9385 1336.44,-37.1738"/>
</g>
<!-- 21&#45;&gt;13 -->
<g id="edge136" class="edge"><title>21&#45;&gt;13</title>
<path fill="none" stroke="green" stroke-width="0.405834" d="M1062.93,-151.915C1080.75,-130.577 1117.96,-90.7706 1159.8,-74 1247.04,-39.0323 1931.11,-23.5129 2079.47,-20.5403"/>
<polygon fill="green" stroke="green" stroke-width="0.405834" points="2079.66,-24.0374 2089.59,-20.3406 2079.52,-17.0388 2079.66,-24.0374"/>
</g>
<!-- 21&#45;&gt;14 -->
<g id="edge82" class="edge"><title>21&#45;&gt;14</title>
<path fill="none" stroke="green" stroke-width="0.700183" stroke-dasharray="1,5" d="M1034.8,-159.523C1016.42,-151.493 988.126,-135.875 975.802,-112 968.055,-96.9926 964.655,-86.6885 975.802,-74 1016.77,-27.3649 1192.73,-53.6501 1252.8,-38 1259.21,-36.3294 1265.94,-33.9833 1272.18,-31.5353"/>
<polygon fill="green" stroke="green" stroke-width="0.700183" points="1273.57,-34.7479 1281.47,-27.6872 1270.89,-28.2809 1273.57,-34.7479"/>
</g>
<!-- 21&#45;&gt;15 -->
<g id="edge31" class="edge"><title>21&#45;&gt;15</title>
<path fill="none" stroke="red" stroke-width="0.315693" d="M1056.89,-149.243C1063.83,-128.974 1078.05,-94.9705 1100.8,-74 1128.7,-48.2884 1170.75,-33.5912 1198.24,-26.2037"/>
<polygon fill="red" stroke="red" stroke-width="0.315693" points="1199.17,-29.5778 1208,-23.7225 1197.45,-22.7935 1199.17,-29.5778"/>
</g>
<!-- 18&#45;&gt;12 -->
<g id="edge101" class="edge"><title>18&#45;&gt;12</title>
<path fill="none" stroke="red" stroke-width="0.399043" d="M1365.85,-148.363C1364.85,-129.843 1363.22,-99.8741 1361.8,-74 1361.33,-65.4304 1360.81,-56.096 1360.34,-47.6356"/>
<polygon fill="red" stroke="red" stroke-width="0.399043" points="1363.83,-47.2997 1359.78,-37.5097 1356.84,-47.6888 1363.83,-47.2997"/>
</g>
<!-- 18&#45;&gt;13 -->
<g id="edge155" class="edge"><title>18&#45;&gt;13</title>
<path fill="none" stroke="green" stroke-width="0.462284" d="M1384.12,-160.969C1397.19,-157.232 1415.57,-152.095 1431.8,-148 1501.64,-130.385 1519.75,-128.735 1589.8,-112 1657.53,-95.8198 1673.5,-87.5428 1741.8,-74 1866.91,-49.1945 2018.15,-30.3802 2079.7,-23.1878"/>
<polygon fill="green" stroke="green" stroke-width="0.462284" points="2080.26,-26.6463 2089.79,-22.0192 2079.46,-19.6928 2080.26,-26.6463"/>
</g>
<!-- 18&#45;&gt;14 -->
<g id="edge174" class="edge"><title>18&#45;&gt;14</title>
<path fill="none" stroke="green" stroke-width="0.936764" stroke-dasharray="1,5" d="M1359.29,-150.098C1347.36,-124.865 1324,-75.4375 1309.76,-45.3008"/>
<polygon fill="green" stroke="green" stroke-width="0.936764" points="1312.75,-43.4285 1305.31,-35.8829 1306.42,-46.4196 1312.75,-43.4285"/>
</g>
<!-- 18&#45;&gt;15 -->
<g id="edge51" class="edge"><title>18&#45;&gt;15</title>
<path fill="none" stroke="red" stroke-width="0.248677" d="M1354.54,-153.299C1330.06,-127.952 1274.96,-70.9042 1245.41,-40.3041"/>
<polygon fill="red" stroke="red" stroke-width="0.248677" points="1247.6,-37.5375 1238.14,-32.7757 1242.57,-42.4003 1247.6,-37.5375"/>
</g>
<!-- 23&#45;&gt;12 -->
<g id="edge56" class="edge"><title>23&#45;&gt;12</title>
<path fill="none" stroke="red" stroke-width="0.318065" stroke-dasharray="1,5" d="M1658.79,-156.021C1683.36,-138.479 1727.23,-101.384 1703.8,-74 1663.04,-26.3635 1462.95,-20.4523 1387.59,-19.939"/>
<polygon fill="red" stroke="red" stroke-width="0.318065" points="1387.42,-16.4384 1377.41,-19.8981 1387.39,-23.4383 1387.42,-16.4384"/>
</g>
<!-- 23&#45;&gt;13 -->
<g id="edge177" class="edge"><title>23&#45;&gt;13</title>
<path fill="none" stroke="green" stroke-width="0.908167" stroke-dasharray="1,5" d="M1662.16,-164.874C1777.94,-157.757 2402.21,-119.069 2408.8,-112 2488.37,-26.6149 2225.63,-19.6669 2136.4,-19.7081"/>
<polygon fill="green" stroke="green" stroke-width="0.908167" points="2136.16,-16.2088 2126.17,-19.7446 2136.19,-23.2088 2136.16,-16.2088"/>
</g>
<!-- 23&#45;&gt;14 -->
<g id="edge161" class="edge"><title>23&#45;&gt;14</title>
<path fill="none" stroke="red" stroke-width="0.286631" d="M1661.19,-161.201C1704.31,-149.228 1812.99,-118.525 1817.8,-112 1827.82,-98.4026 1829.29,-86.3755 1817.8,-74 1780.95,-34.3226 1383.83,-52.9859 1331.8,-38 1328.53,-37.0573 1325.21,-35.7758 1321.99,-34.3279"/>
<polygon fill="red" stroke="red" stroke-width="0.286631" points="1323.3,-31.0674 1312.8,-29.6576 1320.13,-37.308 1323.3,-31.0674"/>
</g>
<!-- 23&#45;&gt;15 -->
<g id="edge107" class="edge"><title>23&#45;&gt;15</title>
<path fill="none" stroke="green" stroke-width="0.457825" d="M1628.87,-156.262C1599.23,-137.394 1530.35,-95.8028 1466.8,-74 1383.03,-45.2586 1355.89,-62.5681 1270.8,-38 1264.44,-36.1619 1257.73,-33.7514 1251.49,-31.2945"/>
<polygon fill="green" stroke="green" stroke-width="0.457825" points="1252.77,-28.038 1242.19,-27.4712 1250.11,-34.5119 1252.77,-28.038"/>
</g>
<!-- 24 -->
<g id="node25" class="node"><title>24</title>
<ellipse fill="none" stroke="black" cx="2381.8" cy="-93" rx="18.0791" ry="18.2703"/>
<text text-anchor="middle" x="2381.8" y="-90.8" font-family="Times,serif" font-size="9.00">24</text>
</g>
<!-- 23&#45;&gt;24 -->
<g id="edge69" class="edge"><title>23&#45;&gt;24</title>
<path fill="none" stroke="green" stroke-width="0.586078" d="M1661.97,-164.231C1731.48,-157.464 1987.17,-132.568 2197.8,-112 2252.95,-106.615 2317.4,-100.307 2353.52,-96.7697"/>
<polygon fill="green" stroke="green" stroke-width="0.586078" points="2354.17,-100.223 2363.78,-95.765 2353.49,-93.2563 2354.17,-100.223"/>
</g>
<!-- 16&#45;&gt;12 -->
<g id="edge169" class="edge"><title>16&#45;&gt;12</title>
<path fill="none" stroke="red" stroke-width="0.719743" d="M1531.69,-163.556C1584.12,-155.701 1730.91,-128.38 1684.8,-74 1646.69,-29.0522 1459.78,-21.4694 1387.45,-20.2274"/>
<polygon fill="red" stroke="red" stroke-width="0.719743" points="1387.31,-16.725 1377.26,-20.082 1387.21,-23.7243 1387.31,-16.725"/>
</g>
<!-- 16&#45;&gt;13 -->
<g id="edge45" class="edge"><title>16&#45;&gt;13</title>
<path fill="none" stroke="red" stroke-width="0.775192" d="M1531.59,-162.393C1552.06,-158.358 1586.74,-151.881 1616.8,-148 1711.68,-135.753 1963.29,-160.426 2045.8,-112 2071.01,-97.2044 2088.12,-67.6203 2097.87,-45.9804"/>
<polygon fill="red" stroke="red" stroke-width="0.775192" points="2101.14,-47.25 2101.84,-36.6785 2094.7,-44.5042 2101.14,-47.25"/>
</g>
<!-- 16&#45;&gt;14 -->
<g id="edge92" class="edge"><title>16&#45;&gt;14</title>
<path fill="none" stroke="green" stroke-width="0.292156" d="M1508.52,-149.064C1501.16,-128.289 1485.85,-93.4424 1460.8,-74 1413.78,-37.498 1387.09,-60.0523 1331.8,-38 1328.7,-36.7628 1325.51,-35.3222 1322.39,-33.8049"/>
<polygon fill="green" stroke="green" stroke-width="0.292156" points="1323.87,-30.6296 1313.38,-29.1495 1320.66,-36.8488 1323.87,-30.6296"/>
</g>
<!-- 16&#45;&gt;15 -->
<g id="edge145" class="edge"><title>16&#45;&gt;15</title>
<path fill="none" stroke="green" stroke-width="0.793857" d="M1504.59,-150.965C1491.07,-130.255 1463.86,-93.3258 1430.8,-74 1367.88,-37.2121 1340.42,-59.6035 1270.8,-38 1264.47,-36.036 1257.78,-33.5771 1251.54,-31.1135"/>
<polygon fill="green" stroke="green" stroke-width="0.793857" points="1252.82,-27.8552 1242.24,-27.3088 1250.17,-34.3342 1252.82,-27.8552"/>
</g>
<!-- 24&#45;&gt;13 -->
<g id="edge125" class="edge"><title>24&#45;&gt;13</title>
<path fill="none" stroke="red" stroke-width="0.16298" d="M2366.62,-82.2614C2361.44,-79.2685 2355.52,-76.1898 2349.8,-74 2275.38,-45.4776 2182.02,-29.9656 2136.04,-23.5645"/>
<polygon fill="red" stroke="red" stroke-width="0.16298" points="2136.31,-20.0693 2125.93,-22.1987 2135.38,-27.0062 2136.31,-20.0693"/>
</g>
</g>
</svg>
